<?xml version="1.0" encoding="UTF-8"?><svg xmlns="http://www.w3.org/2000/svg" xmlns:xlink="http://www.w3.org/1999/xlink" viewBox="0 0 17.46 19.99"><defs><style>.cls-1{fill:url(#_ÂÁ_Ï_ÌÌ_È_ËÂÌÚ_164-2);}.cls-1,.cls-2,.cls-3,.cls-4,.cls-5,.cls-6,.cls-7,.cls-8,.cls-9,.cls-10,.cls-11,.cls-12,.cls-13,.cls-14{mix-blend-mode:multiply;}.cls-2{fill:url(#_ÂÁ_Ï_ÌÌ_È_ËÂÌÚ_166-3);}.cls-3{fill:url(#_ÂÁ_Ï_ÌÌ_È_ËÂÌÚ_166-2);}.cls-4{fill:url(#_ÂÁ_Ï_ÌÌ_È_ËÂÌÚ_166-5);}.cls-5{fill:url(#_ÂÁ_Ï_ÌÌ_È_ËÂÌÚ_166-4);}.cls-6{fill:url(#_ÂÁ_Ï_ÌÌ_È_ËÂÌÚ_166-6);}.cls-15{mask:url(#mask-22);}.cls-16{mask:url(#mask-23);}.cls-17{mask:url(#mask-24);}.cls-18{mask:url(#mask-25);}.cls-19{mask:url(#mask-15);}.cls-20{mask:url(#mask-17);}.cls-21{mask:url(#mask-18);}.cls-22{mask:url(#mask-14);}.cls-23{mask:url(#mask-13);}.cls-24{mask:url(#mask-19);}.cls-25{mask:url(#mask-12);}.cls-26{mask:url(#mask-20);}.cls-27{mask:url(#mask-21);}.cls-28{mask:url(#mask-11);}.cls-29{mask:url(#mask-16);}.cls-30{mask:url(#mask-10);}.cls-31{mask:url(#mask-27);}.cls-32{mask:url(#mask-26);}.cls-33{filter:url(#luminosity-noclip-9);}.cls-34{filter:url(#luminosity-noclip-6);}.cls-35{filter:url(#luminosity-noclip-3);}.cls-36{mask:url(#mask);}.cls-37{fill:url(#_ÂÁ_Ï_ÌÌ_È_ËÂÌÚ_79-4);}.cls-37,.cls-38,.cls-39,.cls-40,.cls-41,.cls-42{mix-blend-mode:color-dodge;opacity:.78;}.cls-38{fill:url(#_ÂÁ_Ï_ÌÌ_È_ËÂÌÚ_79-6);}.cls-39{fill:url(#_ÂÁ_Ï_ÌÌ_È_ËÂÌÚ_79-5);}.cls-40{fill:url(#_ÂÁ_Ï_ÌÌ_È_ËÂÌÚ_79-2);}.cls-41{fill:url(#_ÂÁ_Ï_ÌÌ_È_ËÂÌÚ_79-3);}.cls-43,.cls-44{fill:#ffd800;}.cls-45{fill:#ffa700;}.cls-46,.cls-47,.cls-48{fill:#8c0000;}.cls-49{fill:#670000;}.cls-50{fill:#d23c00;}.cls-51{filter:url(#luminosity-noclip-18);}.cls-52{filter:url(#luminosity-noclip-15);}.cls-53{filter:url(#luminosity-noclip-12);}.cls-54{fill:url(#_ÂÁ_Ï_ÌÌ_È_ËÂÌÚ_20-2);opacity:.79;}.cls-42{fill:url(#_ÂÁ_Ï_ÌÌ_È_ËÂÌÚ_79);}.cls-7{fill:url(#_ÂÁ_Ï_ÌÌ_È_ËÂÌÚ_76);}.cls-8{fill:url(#_ÂÁ_Ï_ÌÌ_È_ËÂÌÚ_76-5);}.cls-9{fill:url(#_ÂÁ_Ï_ÌÌ_È_ËÂÌÚ_76-3);}.cls-10{fill:url(#_ÂÁ_Ï_ÌÌ_È_ËÂÌÚ_76-6);}.cls-11{fill:url(#_ÂÁ_Ï_ÌÌ_È_ËÂÌÚ_76-4);}.cls-12{fill:url(#_ÂÁ_Ï_ÌÌ_È_ËÂÌÚ_76-2);}.cls-55{fill:url(#_ÂÁ_Ï_ÌÌ_È_ËÂÌÚ_20);opacity:.6;}.cls-56{isolation:isolate;}.cls-57{fill:url(#_ÂÁ_Ï_ÌÌ_È_ËÂÌÚ_105);}.cls-58{mask:url(#mask-3);}.cls-59{mask:url(#mask-2);}.cls-60{mask:url(#mask-5);}.cls-61{mask:url(#mask-4);}.cls-62{mask:url(#mask-1);}.cls-63{mask:url(#mask-7);}.cls-64{mask:url(#mask-6);}.cls-65{mask:url(#mask-8);}.cls-66{mask:url(#mask-9);}.cls-44{opacity:.48;}.cls-47{opacity:.49;}.cls-67{fill:#9c0000;}.cls-67,.cls-68{opacity:.5;}.cls-68{fill:#c6002b;}.cls-69{fill:#fff;opacity:.8;}.cls-48,.cls-70{opacity:.29;}.cls-70{fill:#8c003a;}.cls-71{fill:#9f0000;opacity:.39;}.cls-13{fill:url(#_ÂÁ_Ï_ÌÌ_È_ËÂÌÚ_164);}.cls-14{fill:url(#_ÂÁ_Ï_ÌÌ_È_ËÂÌÚ_166);}</style><radialGradient id="_ÂÁ_Ï_ÌÌ_È_ËÂÌÚ_105" cx="6.06" cy="7.42" fx="6.06" fy="7.42" r="8.64" gradientUnits="userSpaceOnUse"><stop offset=".5" stop-color="#ff6f08"/><stop offset="1" stop-color="#af0004"/></radialGradient><filter id="luminosity-noclip-2" x="8212.78" y="-8196.31" width="-32766" height="32766" color-interpolation-filters="sRGB" filterUnits="userSpaceOnUse"><feFlood flood-color="#fff" result="bg"/><feBlend in="SourceGraphic" in2="bg"/></filter><mask id="mask-1" x="8212.78" y="-8196.31" width="-32766" height="32766" maskUnits="userSpaceOnUse"/><radialGradient id="_ÂÁ_Ï_ÌÌ_È_ËÂÌÚ_76" cx="10.3" cy="13.58" fx="10.3" fy="13.58" r="4.51" gradientUnits="userSpaceOnUse"><stop offset="0" stop-color="#fff"/><stop offset=".78" stop-color="#000"/></radialGradient><mask id="mask" x="6.13" y="9.05" width="8.52" height="8.52" maskUnits="userSpaceOnUse"><g class="cls-62"><path class="cls-7" d="M14.64,13.31c0,2.35-1.91,4.26-4.26,4.26s-4.26-1.91-4.26-4.26,1.91-4.26,4.26-4.26,4.26,1.91,4.26,4.26Z"/></g></mask><filter id="luminosity-noclip-3" x="6.13" y="9.05" width="8.52" height="8.52" color-interpolation-filters="sRGB" filterUnits="userSpaceOnUse"><feFlood flood-color="#fff" result="bg"/><feBlend in="SourceGraphic" in2="bg"/></filter><filter id="luminosity-noclip-4" x="8212.78" y="-8196.31" width="-32766" height="32766" color-interpolation-filters="sRGB" filterUnits="userSpaceOnUse"><feFlood flood-color="#fff" result="bg"/><feBlend in="SourceGraphic" in2="bg"/></filter><mask id="mask-3" x="8212.78" y="-8196.31" width="-32766" height="32766" maskUnits="userSpaceOnUse"/><radialGradient id="_ÂÁ_Ï_ÌÌ_È_ËÂÌÚ_166" cx="10.34" cy="13.43" fx="10.34" fy="13.43" r="4.47" gradientUnits="userSpaceOnUse"><stop offset="0" stop-color="#fff"/><stop offset="1" stop-color="#000"/></radialGradient><mask id="mask-2" x="6.13" y="9.05" width="8.52" height="8.52" maskUnits="userSpaceOnUse"><g class="cls-35"><g class="cls-58"><path class="cls-14" d="M14.64,13.04c.16,2.57-1.96,4.69-4.53,4.53-2.12-.13-3.84-1.85-3.97-3.97-.16-2.57,1.96-4.69,4.53-4.53,2.12,.13,3.84,1.85,3.97,3.97Z"/></g></g></mask><radialGradient id="_ÂÁ_Ï_ÌÌ_È_ËÂÌÚ_79" cx="10.34" cy="13.43" fx="10.34" fy="13.43" r="4.47" gradientUnits="userSpaceOnUse"><stop offset="0" stop-color="#ff0"/><stop offset="1" stop-color="#000"/></radialGradient><filter id="luminosity-noclip-5" x="8212.78" y="-8196.31" width="-32766" height="32766" color-interpolation-filters="sRGB" filterUnits="userSpaceOnUse"><feFlood flood-color="#fff" result="bg"/><feBlend in="SourceGraphic" in2="bg"/></filter><mask id="mask-5" x="8212.78" y="-8196.31" width="-32766" height="32766" maskUnits="userSpaceOnUse"/><radialGradient id="_ÂÁ_Ï_ÌÌ_È_ËÂÌÚ_76-2" cx="4.28" cy="6.75" fx="4.28" fy="6.75" r="2.4" xlink:href="#_ÂÁ_Ï_ÌÌ_È_ËÂÌÚ_76"/><mask id="mask-4" x="2.06" y="4.34" width="4.53" height="4.53" maskUnits="userSpaceOnUse"><g class="cls-60"><circle class="cls-12" cx="4.33" cy="6.61" r="2.26"/></g></mask><filter id="luminosity-noclip-6" x="2.06" y="4.34" width="4.53" height="4.53" color-interpolation-filters="sRGB" filterUnits="userSpaceOnUse"><feFlood flood-color="#fff" result="bg"/><feBlend in="SourceGraphic" in2="bg"/></filter><filter id="luminosity-noclip-7" x="8212.78" y="-8196.31" width="-32766" height="32766" color-interpolation-filters="sRGB" filterUnits="userSpaceOnUse"><feFlood flood-color="#fff" result="bg"/><feBlend in="SourceGraphic" in2="bg"/></filter><mask id="mask-7" x="8212.78" y="-8196.31" width="-32766" height="32766" maskUnits="userSpaceOnUse"/><radialGradient id="_ÂÁ_Ï_ÌÌ_È_ËÂÌÚ_166-2" cx="4.3" cy="6.67" fx="4.3" fy="6.67" r="2.37" xlink:href="#_ÂÁ_Ï_ÌÌ_È_ËÂÌÚ_166"/><mask id="mask-6" x="2.06" y="4.34" width="4.53" height="4.53" maskUnits="userSpaceOnUse"><g class="cls-34"><g class="cls-63"><path class="cls-3" d="M6.58,6.46c.09,1.37-1.04,2.49-2.41,2.41-1.13-.07-2.04-.99-2.11-2.11-.09-1.37,1.04-2.49,2.41-2.41,1.13,.07,2.04,.99,2.11,2.11Z"/></g></g></mask><radialGradient id="_ÂÁ_Ï_ÌÌ_È_ËÂÌÚ_79-2" cx="4.3" cy="6.67" fx="4.3" fy="6.67" r="2.37" xlink:href="#_ÂÁ_Ï_ÌÌ_È_ËÂÌÚ_79"/><filter id="luminosity-noclip-8" x="8212.78" y="-8196.31" width="-32766" height="32766" color-interpolation-filters="sRGB" filterUnits="userSpaceOnUse"><feFlood flood-color="#fff" result="bg"/><feBlend in="SourceGraphic" in2="bg"/></filter><mask id="mask-9" x="8212.78" y="-8196.31" width="-32766" height="32766" maskUnits="userSpaceOnUse"/><radialGradient id="_ÂÁ_Ï_ÌÌ_È_ËÂÌÚ_76-3" cx="14.25" cy="9.17" fx="14.25" fy="9.17" r="3.33" xlink:href="#_ÂÁ_Ï_ÌÌ_È_ËÂÌÚ_76"/><mask id="mask-8" x="11.17" y="5.83" width="6.29" height="6.29" maskUnits="userSpaceOnUse"><g class="cls-66"><path class="cls-9" d="M17.46,8.97c0,1.74-1.41,3.15-3.15,3.15s-3.15-1.41-3.15-3.15,1.41-3.15,3.15-3.15,3.15,1.41,3.15,3.15Z"/></g></mask><filter id="luminosity-noclip-9" x="11.17" y="5.83" width="6.29" height="6.29" color-interpolation-filters="sRGB" filterUnits="userSpaceOnUse"><feFlood flood-color="#fff" result="bg"/><feBlend in="SourceGraphic" in2="bg"/></filter><filter id="luminosity-noclip-10" x="8212.78" y="-8196.31" width="-32766" height="32766" color-interpolation-filters="sRGB" filterUnits="userSpaceOnUse"><feFlood flood-color="#fff" result="bg"/><feBlend in="SourceGraphic" in2="bg"/></filter><mask id="mask-11" x="8212.78" y="-8196.31" width="-32766" height="32766" maskUnits="userSpaceOnUse"/><radialGradient id="_ÂÁ_Ï_ÌÌ_È_ËÂÌÚ_166-3" cx="14.28" cy="9.05" fx="14.28" fy="9.05" r="3.3" xlink:href="#_ÂÁ_Ï_ÌÌ_È_ËÂÌÚ_166"/><mask id="mask-10" x="11.17" y="5.83" width="6.29" height="6.29" maskUnits="userSpaceOnUse"><g class="cls-33"><g class="cls-28"><path class="cls-2" d="M17.45,8.77c.12,1.9-1.44,3.46-3.34,3.34-1.57-.1-2.84-1.37-2.93-2.93-.12-1.9,1.44-3.46,3.34-3.34,1.57,.1,2.84,1.37,2.93,2.93Z"/></g></g></mask><radialGradient id="_ÂÁ_Ï_ÌÌ_È_ËÂÌÚ_79-3" cx="14.28" cy="9.05" fx="14.28" fy="9.05" r="3.3" xlink:href="#_ÂÁ_Ï_ÌÌ_È_ËÂÌÚ_79"/><filter id="luminosity-noclip-11" x="8212.78" y="-8196.31" width="-32766" height="32766" color-interpolation-filters="sRGB" filterUnits="userSpaceOnUse"><feFlood flood-color="#fff" result="bg"/><feBlend in="SourceGraphic" in2="bg"/></filter><mask id="mask-13" x="8212.78" y="-8196.31" width="-32766" height="32766" maskUnits="userSpaceOnUse"/><radialGradient id="_ÂÁ_Ï_ÌÌ_È_ËÂÌÚ_76-4" cx="10.04" cy="3.34" fx="10.04" fy="3.34" r="3.33" xlink:href="#_ÂÁ_Ï_ÌÌ_È_ËÂÌÚ_76"/><mask id="mask-12" x="6.96" y="0" width="6.29" height="6.29" maskUnits="userSpaceOnUse"><g class="cls-23"><path class="cls-11" d="M13.25,3.15c0,1.74-1.41,3.15-3.15,3.15s-3.15-1.41-3.15-3.15S8.36,0,10.1,0s3.15,1.41,3.15,3.15Z"/></g></mask><filter id="luminosity-noclip-12" x="6.96" width="6.29" height="6.29" color-interpolation-filters="sRGB" filterUnits="userSpaceOnUse"><feFlood flood-color="#fff" result="bg"/><feBlend in="SourceGraphic" in2="bg"/></filter><filter id="luminosity-noclip-13" x="8212.78" y="-8196.31" width="-32766" height="32766" color-interpolation-filters="sRGB" filterUnits="userSpaceOnUse"><feFlood flood-color="#fff" result="bg"/><feBlend in="SourceGraphic" in2="bg"/></filter><mask id="mask-15" x="8212.78" y="-8196.31" width="-32766" height="32766" maskUnits="userSpaceOnUse"/><radialGradient id="_ÂÁ_Ï_ÌÌ_È_ËÂÌÚ_166-4" cx="10.07" cy="3.23" fx="10.07" fy="3.23" r="3.3" xlink:href="#_ÂÁ_Ï_ÌÌ_È_ËÂÌÚ_166"/><mask id="mask-14" x="6.96" width="6.29" height="6.29" maskUnits="userSpaceOnUse"><g class="cls-53"><g class="cls-19"><path class="cls-5" d="M13.24,2.94c.12,1.9-1.44,3.46-3.34,3.34-1.57-.1-2.84-1.37-2.93-2.93C6.84,1.45,8.41-.11,10.31,0c1.57,.1,2.84,1.37,2.93,2.93Z"/></g></g></mask><radialGradient id="_ÂÁ_Ï_ÌÌ_È_ËÂÌÚ_79-4" cx="10.07" cy="3.23" fx="10.07" fy="3.23" r="3.3" xlink:href="#_ÂÁ_Ï_ÌÌ_È_ËÂÌÚ_79"/><filter id="luminosity-noclip-14" x="8212.78" y="-8196.31" width="-32766" height="32766" color-interpolation-filters="sRGB" filterUnits="userSpaceOnUse"><feFlood flood-color="#fff" result="bg"/><feBlend in="SourceGraphic" in2="bg"/></filter><mask id="mask-17" x="8212.78" y="-8196.31" width="-32766" height="32766" maskUnits="userSpaceOnUse"/><radialGradient id="_ÂÁ_Ï_ÌÌ_È_ËÂÌÚ_76-5" cx="11.28" cy="16.3" fx="11.28" fy="16.3" r="4.17" xlink:href="#_ÂÁ_Ï_ÌÌ_È_ËÂÌÚ_76"/><mask id="mask-16" x="7.42" y="12.12" width="7.87" height="7.87" maskUnits="userSpaceOnUse"><g class="cls-20"><path class="cls-8" d="M15.29,16.05c0,2.17-1.76,3.94-3.94,3.94s-3.94-1.76-3.94-3.94,1.76-3.94,3.94-3.94,3.94,1.76,3.94,3.94Z"/></g></mask><filter id="luminosity-noclip-15" x="7.42" y="12.12" width="7.87" height="7.87" color-interpolation-filters="sRGB" filterUnits="userSpaceOnUse"><feFlood flood-color="#fff" result="bg"/><feBlend in="SourceGraphic" in2="bg"/></filter><filter id="luminosity-noclip-16" x="8212.78" y="-8196.31" width="-32766" height="32766" color-interpolation-filters="sRGB" filterUnits="userSpaceOnUse"><feFlood flood-color="#fff" result="bg"/><feBlend in="SourceGraphic" in2="bg"/></filter><mask id="mask-19" x="8212.78" y="-8196.31" width="-32766" height="32766" maskUnits="userSpaceOnUse"/><radialGradient id="_ÂÁ_Ï_ÌÌ_È_ËÂÌÚ_166-5" cx="11.32" cy="16.16" fx="11.32" fy="16.16" r="4.13" xlink:href="#_ÂÁ_Ï_ÌÌ_È_ËÂÌÚ_166"/><mask id="mask-18" x="7.42" y="12.12" width="7.87" height="7.87" maskUnits="userSpaceOnUse"><g class="cls-52"><g class="cls-24"><path class="cls-4" d="M15.28,15.8c.15,2.38-1.81,4.33-4.18,4.18-1.96-.12-3.55-1.71-3.67-3.67-.15-2.38,1.81-4.33,4.18-4.18,1.96,.12,3.55,1.71,3.67,3.67Z"/></g></g></mask><radialGradient id="_ÂÁ_Ï_ÌÌ_È_ËÂÌÚ_79-5" cx="11.32" cy="16.16" fx="11.32" fy="16.16" r="4.13" xlink:href="#_ÂÁ_Ï_ÌÌ_È_ËÂÌÚ_79"/><filter id="luminosity-noclip-17" x="8212.78" y="-8196.31" width="-32766" height="32766" color-interpolation-filters="sRGB" filterUnits="userSpaceOnUse"><feFlood flood-color="#fff" result="bg"/><feBlend in="SourceGraphic" in2="bg"/></filter><mask id="mask-21" x="8212.78" y="-8196.31" width="-32766" height="32766" maskUnits="userSpaceOnUse"/><radialGradient id="_ÂÁ_Ï_ÌÌ_È_ËÂÌÚ_76-6" cx="7.6" cy="14.48" fx="7.6" fy="14.48" r="4.17" xlink:href="#_ÂÁ_Ï_ÌÌ_È_ËÂÌÚ_76"/><mask id="mask-20" x="3.74" y="10.3" width="7.87" height="7.87" maskUnits="userSpaceOnUse"><g class="cls-27"><circle class="cls-10" cx="7.68" cy="14.24" r="3.94"/></g></mask><filter id="luminosity-noclip-18" x="3.74" y="10.3" width="7.87" height="7.87" color-interpolation-filters="sRGB" filterUnits="userSpaceOnUse"><feFlood flood-color="#fff" result="bg"/><feBlend in="SourceGraphic" in2="bg"/></filter><filter id="luminosity-noclip-19" x="8212.78" y="-8196.31" width="-32766" height="32766" color-interpolation-filters="sRGB" filterUnits="userSpaceOnUse"><feFlood flood-color="#fff" result="bg"/><feBlend in="SourceGraphic" in2="bg"/></filter><mask id="mask-23" x="8212.78" y="-8196.31" width="-32766" height="32766" maskUnits="userSpaceOnUse"/><radialGradient id="_ÂÁ_Ï_ÌÌ_È_ËÂÌÚ_166-6" cx="7.64" cy="14.34" fx="7.64" fy="14.34" r="4.13" xlink:href="#_ÂÁ_Ï_ÌÌ_È_ËÂÌÚ_166"/><mask id="mask-22" x="3.74" y="10.3" width="7.87" height="7.87" maskUnits="userSpaceOnUse"><g class="cls-51"><g class="cls-16"><path class="cls-6" d="M11.61,13.98c.15,2.38-1.81,4.33-4.18,4.18-1.96-.12-3.55-1.71-3.67-3.67-.15-2.38,1.81-4.33,4.18-4.18,1.96,.12,3.55,1.71,3.67,3.67Z"/></g></g></mask><radialGradient id="_ÂÁ_Ï_ÌÌ_È_ËÂÌÚ_79-6" cx="7.64" cy="14.34" fx="7.64" fy="14.34" r="4.13" xlink:href="#_ÂÁ_Ï_ÌÌ_È_ËÂÌÚ_79"/><filter id="luminosity-noclip-20" x="8212.78" y="-8196.31" width="-32766" height="32766" color-interpolation-filters="sRGB" filterUnits="userSpaceOnUse"><feFlood flood-color="#fff" result="bg"/><feBlend in="SourceGraphic" in2="bg"/></filter><mask id="mask-25" x="8212.78" y="-8196.31" width="-32766" height="32766" maskUnits="userSpaceOnUse"/><linearGradient id="_ÂÁ_Ï_ÌÌ_È_ËÂÌÚ_164" x1="13.99" y1="16.5" x2="7.48" y2="8.16" gradientUnits="userSpaceOnUse"><stop offset="0" stop-color="#fff"/><stop offset="1" stop-color="#000"/></linearGradient><mask id="mask-24" x="2.63" y="3.01" width="14.65" height="15.35" maskUnits="userSpaceOnUse"><g class="cls-18"><path class="cls-13" d="M14.09,3.01c1.62,1.57,2.63,3.77,2.63,6.21,0,4.77-3.87,8.64-8.64,8.64-2.06,0-3.96-.72-5.44-1.93,1.55,1.51,3.67,2.43,6.01,2.43,4.77,0,8.64-3.87,8.64-8.64,0-2.71-1.25-5.12-3.2-6.71Z"/></g></mask><linearGradient id="_ÂÁ_Ï_ÌÌ_È_ËÂÌÚ_20" x1="13.99" y1="16.5" x2="7.48" y2="8.16" gradientUnits="userSpaceOnUse"><stop offset="0" stop-color="#fff"/><stop offset="1" stop-color="#fff"/></linearGradient><filter id="luminosity-noclip-21" x="8212.78" y="-8196.31" width="-32766" height="32766" color-interpolation-filters="sRGB" filterUnits="userSpaceOnUse"><feFlood flood-color="#fff" result="bg"/><feBlend in="SourceGraphic" in2="bg"/></filter><mask id="mask-27" x="8212.78" y="-8196.31" width="-32766" height="32766" maskUnits="userSpaceOnUse"/><linearGradient id="_ÂÁ_Ï_ÌÌ_È_ËÂÌÚ_164-2" x1="35.1" y1="-154.22" x2="35.76" y2="-149.33" gradientTransform="translate(64.93 208.12) rotate(-27.25) scale(1.15 1.36)" xlink:href="#_ÂÁ_Ï_ÌÌ_È_ËÂÌÚ_164"/><mask id="mask-26" x="1.1" y="1.42" width="10.85" height="7.9" maskUnits="userSpaceOnUse"><g class="cls-31"><path class="cls-1" d="M11.74,2.69c.82,1.6-.84,4.1-3.72,5.59-2.88,1.48-5.88,1.39-6.71-.22-.83-1.6,.84-4.1,3.72-5.59,2.88-1.48,5.88-1.39,6.71,.22Z"/></g></mask><linearGradient id="_ÂÁ_Ï_ÌÌ_È_ËÂÌÚ_20-2" x1="35.1" y1="-154.22" x2="35.76" y2="-149.33" gradientTransform="translate(64.93 208.12) rotate(-27.25) scale(1.15 1.36)" xlink:href="#_ÂÁ_Ï_ÌÌ_È_ËÂÌÚ_20"/></defs><g class="cls-56"><g id="Layer_2"><g id="solar_system"><path class="cls-57" d="M17.28,9.71c0,2.39-.97,4.55-2.53,6.11-.29,.29-.61,.57-.94,.81-.17,.12-.34,.24-.51,.36-.31,.2-.63,.37-.96,.53-.11,.05-.22,.1-.34,.15-.13,.05-.26,.11-.39,.15-.12,.04-.23,.08-.35,.12-.12,.04-.24,.07-.36,.11-.18,.05-.36,.09-.55,.13-.06,.01-.12,.02-.19,.03-.07,.01-.14,.02-.21,.03-.11,.02-.21,.03-.32,.04-.22,.02-.44,.04-.66,.05-.11,0-.22,0-.33,0-.03,0-.06,0-.08,0-.03,0-.06,0-.08,0-.11,0-.22,0-.33-.01-.06,0-.11,0-.17-.01-.16-.01-.33-.03-.49-.05-.11-.01-.22-.03-.32-.05-.05,0-.11-.02-.16-.03-.13-.03-.26-.05-.39-.08-.13-.03-.26-.07-.39-.1-.05-.02-.1-.03-.15-.05-.1-.03-.19-.06-.29-.1,0,0-.01,0-.02,0-.08-.03-.17-.06-.25-.09-.02,0-.04-.01-.06-.02-.09-.04-.18-.07-.27-.11-.08-.03-.15-.07-.23-.11-.05-.03-.11-.05-.16-.08-.07-.03-.13-.07-.2-.1-.18-.09-.35-.19-.52-.3-.09-.06-.18-.11-.26-.17-.17-.11-.33-.23-.48-.36-.21-.16-.41-.33-.61-.52-1.14-1.07-1.98-2.44-2.41-3.99-.08-.29-.14-.59-.19-.89-.08-.46-.11-.93-.11-1.41,0-.3,.02-.6,.05-.89C.49,4.47,4.17,1.07,8.64,1.07c2.03,0,3.89,.7,5.36,1.87,.05,.04,.1,.08,.15,.12,.03,.02,.05,.04,.07,.06,.08,.07,.17,.14,.25,.22,.13,.12,.26,.24,.38,.37,.12,.12,.23,.24,.33,.36l.02,.02c.13,.15,.25,.31,.37,.46l.02,.02h0c.05,.07,.1,.14,.15,.22,.05,.07,.1,.14,.15,.22,.06,.08,.11,.17,.16,.26,.02,.03,.04,.07,.06,.1,.03,.05,.06,.1,.09,.15,.02,.04,.04,.08,.07,.12,.14,.27,.28,.55,.39,.84,.02,.05,.04,.1,.06,.15,.02,.06,.04,.11,.06,.17,.04,.11,.08,.22,.11,.33,.01,.04,.03,.09,.04,.13,.02,.06,.04,.13,.05,.19,.02,.06,.03,.11,.04,.17,.01,.06,.03,.11,.04,.17,.06,.28,.12,.57,.15,.86,0,.06,.01,.12,.02,.18,0,.08,.02,.15,.02,.23,0,.03,0,.07,0,.11,0,.05,0,.1,0,.15,0,.07,0,.14,0,.2,0,.07,0,.14,0,.2Z"/><path class="cls-67" d="M17.28,9.71c0,2.39-.97,4.55-2.53,6.11-.29,.29-.61,.57-.94,.81-.17,.12-.34,.24-.51,.36-.31,.2-.63,.37-.96,.53-.11,.05-.22,.1-.34,.15-.13,.05-.26,.11-.39,.15-.12,.04-.23,.08-.35,.12-.12,.04-.24,.07-.36,.11-.18,.05-.36,.09-.55,.13-.06,.01-.12,.02-.19,.03-.07,.01-.14,.02-.21,.03-.11,.02-.21,.03-.32,.04-.22,.02-.44,.04-.66,.05-.11,0-.22,0-.33,0h-.08s-.06,0-.08,0c-.11,0-.22,0-.33-.01-.06,0-.11,0-.17-.01-.16-.01-.33-.03-.49-.05-.11-.01-.22-.03-.32-.05-.05,0-.11-.02-.16-.03-.13-.03-.26-.05-.39-.08-.13-.03-.26-.07-.39-.1-.05-.02-.1-.03-.15-.05-.1-.03-.19-.06-.29-.1,0,0-.01,0-.02,0-.08-.03-.17-.06-.25-.09-.02,0-.04-.01-.06-.02-.09-.04-.18-.07-.27-.11-.08-.03-.15-.07-.23-.11-.05-.03-.11-.05-.16-.08-.07-.03-.13-.07-.2-.1-.18-.09-.35-.19-.52-.3-.09-.06-.18-.11-.26-.17h0s.23-.99,1.43-1.62c1.2-.63-.17-1.71-.51-2.26-.34-.55,.35-1.19,1.34-.45,.98,.74-.08-1.71,1.16-3.08,1.24-1.37,2,1.57,2.52,2.12,.52,.55,1.83,1.6,2.91,.48,1.08-1.12,.38-5.71,1.13-7,.61-1.06,.97-1.29,1.07-1.34,.12,.12,.23,.24,.33,.36l.02,.02,.37,.46,.02,.02h0c.05,.07,.1,.14,.15,.22,.05,.07,.1,.14,.15,.22,.03,.05,.07,.11,.1,.16,.02,.03,.04,.07,.06,.1,.02,.03,.04,.07,.06,.1,.03,.05,.06,.1,.09,.15,.02,.04,.04,.08,.07,.12,.14,.27,.28,.55,.39,.84,.02,.05,.04,.1,.06,.15,.02,.06,.04,.11,.06,.17,.04,.11,.08,.22,.11,.33,.01,.04,.03,.09,.04,.13,.02,.06,.04,.13,.05,.19,.02,.06,.03,.11,.04,.17,.01,.06,.03,.11,.04,.17,.06,.28,.12,.57,.15,.86,0,.06,.01,.12,.02,.18,0,.08,.02,.15,.02,.23,0,.03,0,.07,0,.11,0,.05,0,.1,0,.15,0,.07,0,.14,0,.2,0,.07,0,.14,0,.2Z"/><path class="cls-68" d="M14,2.94c-1.25,.29-2.72,1.11-3.46,2.81-.97,2.23-3.18,3.12-6.74,1.95-1.12-.37-2.6-.4-3.76,1.12,.09-.88,.31-1.72,.65-2.51C2.01,3.23,5.08,1.07,8.64,1.07c1.81,0,3.49,.56,4.88,1.51,.17,.11,.33,.23,.48,.36Z"/><g><path class="cls-49" d="M12.13,13.37c0,.06-.05,.12-.1,.12,0,0,0,0,0,0-.05,0-.09-.06-.09-.12s.04-.11,.09-.12c0,0,0,0,0,0,.06,0,.1,.05,.1,.12Z"/><path class="cls-46" d="M12.11,13.37c0,.06-.04,.11-.09,.12-.05,0-.09-.06-.09-.12s.04-.11,.09-.12c.05,0,.09,.06,.09,.12Z"/></g><g><path class="cls-49" d="M11.35,15.49c0,.06-.05,.12-.1,.12,0,0,0,0,0,0-.05,0-.09-.06-.09-.12s.04-.11,.09-.12c0,0,0,0,0,0,.06,0,.1,.05,.1,.12Z"/><path class="cls-46" d="M11.34,15.49c0,.06-.04,.11-.09,.12-.05,0-.09-.06-.09-.12s.04-.11,.09-.12c.05,0,.09,.06,.09,.12Z"/></g><g><path class="cls-49" d="M10.16,15.01c0,.06-.05,.12-.1,.12,0,0,0,0,0,0-.05,0-.09-.06-.09-.12s.04-.11,.09-.12c0,0,0,0,0,0,.06,0,.1,.05,.1,.12Z"/><path class="cls-46" d="M10.15,15.01c0,.06-.04,.11-.09,.12-.05,0-.09-.06-.09-.12s.04-.11,.09-.12c.05,0,.09,.06,.09,.12Z"/></g><g><path class="cls-49" d="M8.38,15.31c0,.06-.05,.12-.1,.12,0,0,0,0,0,0-.05,0-.09-.06-.09-.12s.04-.11,.09-.12c0,0,0,0,0,0,.06,0,.1,.05,.1,.12Z"/><path class="cls-46" d="M8.36,15.31c0,.06-.04,.11-.09,.12-.05,0-.09-.06-.09-.12s.04-.11,.09-.12c.05,0,.09,.06,.09,.12Z"/></g><g><path class="cls-49" d="M7.23,16.34c0,.13-.09,.24-.21,.24,0,0-.01,0-.02,0-.11-.01-.19-.11-.19-.23s.08-.22,.19-.23c0,0,.01,0,.02,0,.11,0,.21,.11,.21,.24Z"/><path class="cls-46" d="M7.19,16.34c0,.12-.08,.22-.19,.23-.11-.01-.19-.11-.19-.23s.08-.22,.19-.23c.11,.01,.19,.11,.19,.23Z"/></g><g><path class="cls-49" d="M5.03,16.39c0,.13,.09,.24,.21,.24,0,0,.01,0,.02,0,.11-.01,.19-.11,.19-.23s-.08-.22-.19-.23c0,0-.01,0-.02,0-.11,0-.21,.11-.21,.24Z"/><path class="cls-46" d="M5.07,16.39c0,.12,.08,.22,.19,.23,.11-.01,.19-.11,.19-.23s-.08-.22-.19-.23c-.11,.01-.19,.11-.19,.23Z"/></g><g><path class="cls-50" d="M2.8,10.62c.02,.12,.1,.22,.19,.21,0,0,0,0,.01,0,.08-.02,.14-.13,.12-.24-.01-.12-.09-.21-.18-.21,0,0,0,0-.01,0-.09,.01-.15,.12-.14,.25Z"/><path class="cls-46" d="M2.83,10.62c.01,.12,.09,.21,.18,.21,.08-.02,.14-.13,.12-.24-.01-.12-.09-.21-.18-.21-.08,.02-.14,.13-.12,.24Z"/></g><g><path class="cls-50" d="M1.55,9.08c.02,.12,.1,.22,.19,.21,0,0,0,0,.01,0,.08-.02,.14-.13,.12-.24s-.09-.21-.18-.21c0,0,0,0-.01,0-.09,.01-.15,.12-.14,.25Z"/><path class="cls-43" d="M1.58,9.08c.01,.12,.09,.21,.18,.21,.08-.02,.14-.13,.12-.24s-.09-.21-.18-.21c-.08,.02-.14,.13-.12,.24Z"/></g><g><path class="cls-50" d="M2.03,9.08c.02,.12,.12,.22,.23,.2,0,0,.01,0,.02,0,.1-.02,.17-.13,.16-.25-.01-.12-.11-.21-.22-.2,0,0-.01,0-.02,0-.11,.01-.19,.13-.18,.25Z"/><path class="cls-43" d="M2.06,9.08c.01,.12,.11,.21,.22,.2,.1-.02,.17-.13,.16-.25-.01-.12-.11-.21-.22-.2-.1,.02-.17,.13-.16,.25Z"/></g><path class="cls-45" d="M14.48,3.35c-.55,.3-1.41,.93-2.04,2.17-.97,1.95-.02,6.29-1.58,5.62-1.55-.67-1.16-2.38-3.36-2.08-2.21,.3-1.19,2.2-2.46,2.43-1.28,.23-2.22,.12-2.59,1.16-.38,1.04,.95,2.6,.89,3.75,0,.04,0,.09,0,.13-.21-.16-.41-.33-.61-.52C1.37,14.73,.43,13.03,.11,11.12c.43-.49,2.13-2.11,5.5-2.17,3.97-.07,5.15-.88,5.94-2.79,.6-1.44,1.97-2.62,2.6-3.11,.03,.02,.05,.04,.07,.06,.09,.07,.17,.14,.25,.22Z"/><path class="cls-47" d="M17.28,9.71c0,4.77-3.87,8.64-8.64,8.64-1.39,0-2.7-.33-3.86-.91,.16-.71,.55-1.51,1.52-1.67,1.81-.3,3.73,1.5,3.65,0-.07-1.5-2.84-2.74-1.69-3.73,1.69-1.45,.82,2.58,2.48,3.26,1.65,.68,3.74-1.05,3.62-1.95-.12-.9-1.32-1-.73-1.84s1.9-.8,1.95-1.74c.05-.94-1.15-2.14-.37-2.82,.64-.56,1.28-.41,1.5-.34,.37,.96,.57,2,.57,3.08Z"/><path class="cls-47" d="M14.77,8.71c-.35-.48,.37-2.16-.35-2.39-.72-.23-.32,.93-.37,1.51s-.82,1.42-.64,1.81,.7-.38,1.06,0c.36,.38,1.01,.03,.29-.93Z"/><path class="cls-70" d="M13.52,2.58c-.22,.16-.88,.57-1.5,.48-.77-.11-.99-.95-1.96-.86-.97,.09-.49,2.02-2.14,2.16-1.65,.14-3.92-1.62-4-.38-.09,1.24,1.99,3.19,.2,2.31-1.22-.6-2.64-.25-3.41,.03C2.01,3.23,5.08,1.07,8.64,1.07c1.81,0,3.49,.56,4.88,1.51Z"/><path class="cls-48" d="M5.09,4.57c-.29,.31,.48,.66,.59,1.54,.12,.88-.07,1.53,.73,1.65,.8,.12,.57-.78,1.02-1.35s1.54-.65,1.68-1.29c.14-.64-1.32-.08-2.09-.18-.78-.09-1.57-.77-1.93-.38Z"/><path class="cls-47" d="M5.45,15.37c-.29,.49,.63-.29,1.9,.06,1.27,.35,1.52,.59,1.91,.38,.39-.22-.11-1.02-.9-1.8s-.43-1.62-.7-1.79-.27,.44-.47,1.41-1.49,1.32-1.74,1.75Z"/><path class="cls-43" d="M12.82,13.24c-.11,.08-.18,.24-.08,.46,.1,.22-.37,.49-.3,.7,.07,.21,.43-.11,.72-.23,.28-.12,.61-.11,.4-.43-.21-.32-.5-.67-.73-.5Z"/><path class="cls-43" d="M10.39,2.52c-.66-.02-.51,.85,.05,1.02,.56,.17,.28-1.01-.05-1.02Z"/><path class="cls-43" d="M10.31,12.85c-.66-.02-.51,.85,.05,1.02,.56,.17,.28-1.01-.05-1.02Z"/><path class="cls-43" d="M3.93,6.56c-.03,.2,.5,.34,.69,.13,.18-.2-.64-.41-.69-.13Z"/><path class="cls-43" d="M7.92,3.79c-.26,.14-.57-.64-.17-.79s.5,.61,.17,.79Z"/><path class="cls-43" d="M7.76,14.63c-.26,.14-.57-.64-.17-.79s.5,.61,.17,.79Z"/><path class="cls-43" d="M14.09,12.25c-.26,.14-.57-.64-.17-.79,.4-.14,.5,.61,.17,.79Z"/><path class="cls-43" d="M14.4,9.37c-.26,.14-.57-.64-.17-.79s.5,.61,.17,.79Z"/><path class="cls-43" d="M14.55,12.27c-.05,.03-.12-.13-.04-.16,.08-.03,.1,.12,.04,.16Z"/><path class="cls-43" d="M8.83,12.93c-.05,.03-.12-.13-.04-.16,.08-.03,.1,.12,.04,.16Z"/><path class="cls-43" d="M7.56,3.97c0-.11,.43-.07,.45,.07,.02,.14-.46,.13-.45-.07Z"/><path class="cls-43" d="M8.59,13.14c0-.11,.43-.07,.45,.07,.02,.14-.46,.13-.45-.07Z"/><path class="cls-43" d="M10.98,16.82c-.75-.02-.74-1.14-.23-1.11,.51,.02,.6,.52,1.27,.4,.67-.12,.72-.91,1.01-.68,.29,.23-.47,1.43-2.05,1.39Z"/><path class="cls-44" d="M14.79,4.84c-.39-.08-.67,.94-.07,1.02,.6,.08,.49-.94,.07-1.02Z"/><path class="cls-43" d="M6.54,3.75c-.1,.18,.54,.21,.66-.06,.12-.28-.54-.16-.66,.06Z"/><g class="cls-36"><g class="cls-59"><path class="cls-42" d="M14.64,13.04c.16,2.57-1.96,4.69-4.53,4.53-2.12-.13-3.84-1.85-3.97-3.97-.16-2.57,1.96-4.69,4.53-4.53,2.12,.13,3.84,1.85,3.97,3.97Z"/></g></g><g class="cls-61"><g class="cls-64"><path class="cls-40" d="M6.58,6.46c.09,1.37-1.04,2.49-2.41,2.41-1.13-.07-2.04-.99-2.11-2.11-.09-1.37,1.04-2.49,2.41-2.41,1.13,.07,2.04,.99,2.11,2.11Z"/></g></g><g class="cls-65"><g class="cls-30"><path class="cls-41" d="M17.45,8.77c.12,1.9-1.44,3.46-3.34,3.34-1.57-.1-2.84-1.37-2.93-2.93-.12-1.9,1.44-3.46,3.34-3.34,1.57,.1,2.84,1.37,2.93,2.93Z"/></g></g><g class="cls-25"><g class="cls-22"><path class="cls-37" d="M13.24,2.94c.12,1.9-1.44,3.46-3.34,3.34-1.57-.1-2.84-1.37-2.93-2.93C6.84,1.45,8.41-.11,10.31,0c1.57,.1,2.84,1.37,2.93,2.93Z"/></g></g><g class="cls-29"><g class="cls-21"><path class="cls-39" d="M15.28,15.8c.15,2.38-1.81,4.33-4.18,4.18-1.96-.12-3.55-1.71-3.67-3.67-.15-2.38,1.81-4.33,4.18-4.18,1.96,.12,3.55,1.71,3.67,3.67Z"/></g></g><g class="cls-26"><g class="cls-15"><path class="cls-38" d="M11.61,13.98c.15,2.38-1.81,4.33-4.18,4.18-1.96-.12-3.55-1.71-3.67-3.67-.15-2.38,1.81-4.33,4.18-4.18,1.96,.12,3.55,1.71,3.67,3.67Z"/></g></g><path class="cls-71" d="M17.28,9.71c0,4.77-3.87,8.64-8.64,8.64-1.39,0-2.7-.33-3.86-.91-.34-.17-.66-.36-.97-.57-.17-.11-.33-.23-.48-.36-.21-.16-.41-.33-.61-.52-1.14-1.07-1.98-2.44-2.41-3.99,1.88,.36,5.61,.85,9.84-.74,3.78-1.42,5.29-4.14,5.97-5.9,.23,.4,.44,.82,.6,1.25,.37,.96,.57,2,.57,3.08Z"/><g class="cls-17"><path class="cls-55" d="M14.09,3.01c1.62,1.57,2.63,3.77,2.63,6.21,0,4.77-3.87,8.64-8.64,8.64-2.06,0-3.96-.72-5.44-1.93,1.55,1.51,3.67,2.43,6.01,2.43,4.77,0,8.64-3.87,8.64-8.64,0-2.71-1.25-5.12-3.2-6.71Z"/></g><g class="cls-32"><path class="cls-54" d="M11.74,2.69c.82,1.6-.84,4.1-3.72,5.59-2.88,1.48-5.88,1.39-6.71-.22-.83-1.6,.84-4.1,3.72-5.59,2.88-1.48,5.88-1.39,6.71,.22Z"/></g><path class="cls-69" d="M8.57,2.22c.18,.34-.74,1.17-2.05,1.84s-2.51,.94-2.69,.6c-.18-.34,.74-1.17,2.05-1.84s2.51-.94,2.69-.6Z"/><path class="cls-69" d="M3.47,5.11c.12,.24,.03,.54-.21,.66-.24,.12-.54,.03-.66-.21-.12-.24-.03-.54,.21-.66,.24-.12,.54-.03,.66,.21Z"/></g></g></g></svg>