<?xml version="1.0" encoding="UTF-8"?><svg id="Layer_2" xmlns="http://www.w3.org/2000/svg" xmlns:xlink="http://www.w3.org/1999/xlink" viewBox="0 0 17.84 17.84"><defs><style>.cls-1{fill:url(#_ÂÁ_Ï_ÌÌ_È_ËÂÌÚ_20);}.cls-2{mask:url(#mask);}.cls-3{fill:#fff;}.cls-4{fill:#009a29;}.cls-5{fill:#441f00;}.cls-6{fill:#53cf29;}.cls-7{fill:#601f22;}.cls-8{fill:url(#_ÂÁ_Ï_ÌÌ_È_ËÂÌÚ_20-2);opacity:.6;}.cls-9{opacity:.2;}.cls-9,.cls-10,.cls-11,.cls-12{fill:#fffffb;}.cls-13{fill:#250080;opacity:.32;}.cls-10{opacity:.17;}.cls-14{fill:url(#_ÂÁ_Ï_ÌÌ_È_ËÂÌÚ_100);}.cls-15{mask:url(#mask-3);}.cls-16{mask:url(#mask-2);}.cls-17{mask:url(#mask-1);}.cls-11{opacity:.26;}.cls-12{opacity:.38;}.cls-18{fill:url(#_ÂÁ_Ï_ÌÌ_È_ËÂÌÚ_161);}.cls-18,.cls-19{mix-blend-mode:multiply;}.cls-19{fill:url(#_ÂÁ_Ï_ÌÌ_È_ËÂÌÚ_160);}</style><linearGradient id="_ÂÁ_Ï_ÌÌ_È_ËÂÌÚ_100" x1="1.27" y1="4.33" x2="16.57" y2="13.51" gradientUnits="userSpaceOnUse"><stop offset="0" stop-color="#00ffd0"/><stop offset="1" stop-color="#002177"/></linearGradient><filter id="luminosity-noclip-2" x="8185.96" y="-8201.67" width="-32766" height="32766" color-interpolation-filters="sRGB" filterUnits="userSpaceOnUse"><feFlood flood-color="#fff" result="bg"/><feBlend in="SourceGraphic" in2="bg"/></filter><mask id="mask-1" x="8185.96" y="-8201.67" width="-32766" height="32766" maskUnits="userSpaceOnUse"/><linearGradient id="_ÂÁ_Ï_ÌÌ_È_ËÂÌÚ_161" x1="31.37" y1="-143.95" x2="32.06" y2="-138.9" gradientTransform="translate(62.29 192.8) rotate(-27.25) scale(1.15 1.36)" gradientUnits="userSpaceOnUse"><stop offset="0" stop-color="#fff"/><stop offset="1" stop-color="#333"/></linearGradient><mask id="mask" x=".94" y=".49" width="11.2" height="8.16" maskUnits="userSpaceOnUse"><g class="cls-17"><path class="cls-18" d="M11.92,1.8c.85,1.65-.87,4.24-3.84,5.77-2.97,1.53-6.07,1.43-6.92-.22S2.02,3.11,4.99,1.58C7.97,.05,11.07,.15,11.92,1.8Z"/></g></mask><linearGradient id="_ÂÁ_Ï_ÌÌ_È_ËÂÌÚ_20" x1="31.37" y1="-143.95" x2="32.06" y2="-138.9" gradientTransform="translate(62.29 192.8) rotate(-27.25) scale(1.15 1.36)" gradientUnits="userSpaceOnUse"><stop offset="0" stop-color="#fff"/><stop offset="1" stop-color="#fff"/></linearGradient><filter id="luminosity-noclip-3" x="8185.96" y="-8201.67" width="-32766" height="32766" color-interpolation-filters="sRGB" filterUnits="userSpaceOnUse"><feFlood flood-color="#fff" result="bg"/><feBlend in="SourceGraphic" in2="bg"/></filter><mask id="mask-3" x="8185.96" y="-8201.67" width="-32766" height="32766" maskUnits="userSpaceOnUse"/><linearGradient id="_ÂÁ_Ï_ÌÌ_È_ËÂÌÚ_160" x1="14.45" y1="15.92" x2="7.73" y2="7.32" gradientUnits="userSpaceOnUse"><stop offset="0" stop-color="#fff"/><stop offset="1" stop-color="#000"/></linearGradient><mask id="mask-2" x="2.72" y="2" width="15.12" height="15.84" maskUnits="userSpaceOnUse"><g class="cls-15"><path class="cls-19" d="M14.54,2c1.68,1.62,2.72,3.89,2.72,6.41,0,4.93-3.99,8.92-8.92,8.92-2.13,0-4.09-.75-5.62-2,1.61,1.55,3.79,2.51,6.2,2.51,4.93,0,8.92-3.99,8.92-8.92,0-2.8-1.29-5.29-3.3-6.92Z"/></g></mask><linearGradient id="_ÂÁ_Ï_ÌÌ_È_ËÂÌÚ_20-2" x1="14.45" y1="15.92" x2="7.73" y2="7.32" gradientTransform="matrix(1, 0, 0, 1, 0, 0)" xlink:href="#_ÂÁ_Ï_ÌÌ_È_ËÂÌÚ_20"/></defs><g id="solar_system"><path class="cls-14" d="M17.84,8.92c0,.16,0,.31-.01,.46,0,.04,0,.07,0,.11,0,.07,0,.15-.02,.22,0,.09-.02,.17-.03,.26-.01,.09-.02,.19-.04,.28,0,0,0,0,0,.01-.01,.09-.03,.18-.05,.28-.18,.98-.52,1.9-.99,2.74-.11,.2-.23,.39-.36,.58-.91,1.37-2.19,2.47-3.7,3.16h0c-.19,.09-.38,.17-.58,.24-.46,.17-.93,.31-1.42,.4-.55,.11-1.13,.17-1.72,.17-.27,0-.54-.01-.81-.04-1.13-.1-2.2-.42-3.17-.9-.3-.15-.59-.31-.86-.49-.05-.03-.09-.06-.14-.09-.17-.12-.34-.24-.5-.37-.22-.17-.43-.35-.63-.53-1.17-1.1-2.05-2.52-2.49-4.12-.08-.3-.15-.61-.2-.92-.08-.47-.12-.96-.12-1.45,0-.06,0-.11,0-.17,0-.25,.02-.5,.05-.75C.31,5.41,1.68,3.16,3.67,1.71c1.47-1.07,3.28-1.71,5.25-1.71,2.09,0,4.02,.72,5.54,1.93,.05,.04,.1,.08,.16,.13,.03,.02,.05,.04,.07,.06,.09,.07,.17,.15,.26,.23,.11,.1,.21,.2,.31,.3,.03,.03,.05,.05,.08,.08,.12,.12,.23,.24,.34,.37l.02,.02c.14,.16,.27,.33,.4,.5,.2,.26,.38,.54,.54,.82,.05,.08,.09,.16,.14,.24,.04,.07,.08,.15,.12,.23,0,.02,.02,.04,.03,.05,.03,.07,.07,.14,.1,.2,.01,.02,.02,.04,.03,.07,.03,.08,.07,.15,.1,.23,.04,.09,.07,.18,.11,.27,.38,.99,.59,2.06,.59,3.18Z"/><path class="cls-7" d="M15.25,2.65c-.46,.54-1.24,1.22-2.07,.96-1.31-.4-2.21-1.93-3.85-.75-1.64,1.19-2.89,4.53-4.28,3.02-1.17-1.26-1.35-3.48-1.38-4.18,.2-.14,.4-.28,.61-.41,1.35-.83,2.94-1.3,4.64-1.3,2.09,0,4.02,.72,5.54,1.93,.05,.04,.1,.08,.16,.13,.03,.02,.05,.04,.07,.06,.08,.07,.16,.14,.24,.21,0,0,.01,.01,.02,.02,.11,.1,.21,.2,.31,.3Z"/><path class="cls-7" d="M2.59,5.31c-.6-.58-.64,1.33-.21,2.91,.43,1.58,1.69,2.16,2.12,3.67,.43,1.51,.29,3.99,1.08,4.31s.85-2.26,2.01-3.63,2.69-2.08,2.84-3.31-1.18-2.75-3.27-2.56-3.54-.39-4.57-1.39Z"/><path class="cls-7" d="M17.84,8.92c0,.16,0,.31-.01,.46,0,.04,0,.07,0,.11,0,.07,0,.15-.02,.22,0,.09-.02,.17-.03,.26-.01,.09-.02,.19-.04,.28,0,0,0,0,0,.01-.01,.09-.03,.18-.05,.28-.37-.11-.79-.27-1.06-.5-.56-.47,.13-1.72-.73-2.21-.86-.49-2.01-.19-1.69-1.13,.32-.94,2.42-2.26,2.42-2.26,.05,.08,.09,.16,.14,.24,.04,.07,.08,.15,.12,.23,0,.02,.02,.04,.03,.05,.03,.07,.07,.14,.1,.2,.01,.02,.02,.04,.03,.07,.03,.08,.07,.15,.1,.23,.04,.09,.07,.18,.11,.27,.38,.99,.59,2.06,.59,3.18Z"/><path class="cls-7" d="M16.7,13.28c-1.02,1.82-2.67,3.24-4.64,3.99,0,0-1.19-1.12-.87-2.5,.32-1.38,1.64-.23,2.66-.73,1.01-.5,1.08-1.44,1.84-1.47,.39-.02,.76,.36,1.02,.72Z"/><path class="cls-4" d="M16.34,13.86c-.91,1.37-2.19,2.47-3.7,3.16h0s-1.39-2.3-.56-2.55c.83-.25,2.2-.23,3.03-.68,.55-.3,1-.09,1.24,.07Z"/><path class="cls-4" d="M17.84,8.92c0,.16,0,.31-.01,.46,0,.04,0,.07,0,.11,0,.07,0,.15-.02,.22,0,.09-.02,.17-.03,.26-.41-.02-.93-.11-1.08-.43-.25-.56,.13-1.59-.17-2.06-.3-.46-1.65-.47-1.86-.99-.16-.38,1.44-1.38,2.11-1.82,.04,.07,.08,.15,.12,.23,0,.02,.02,.04,.03,.05,.03,.07,.07,.14,.1,.2,.01,.02,.02,.04,.03,.07,.03,.08,.07,.15,.1,.23,.04,.09,.07,.18,.11,.27,.38,.99,.59,2.06,.59,3.18Z"/><path class="cls-4" d="M2.89,6.27c-.85-.13-.72,1.56,1.2,3.3,1.92,1.74,.47,5.7,1.2,5.9,.74,.2,1.06-2.65,2.73-3.98,2.18-1.73,2.25-3.61,1.04-4.31-1.2-.7-2.04,.12-4.03-.05-1.2-.11-1.15-.7-2.16-.86Z"/><path class="cls-4" d="M14.93,2.33c-.33,.37-.74,1.29-1.4,1.26-1.08-.05-1.95-1.96-3.67-1.7-1.73,.26-3.71,4.37-4.72,3.84-.75-.39-.8-3.39-.85-4.43,1.35-.83,2.94-1.3,4.64-1.3,2.09,0,4.02,.72,5.54,1.93,.05,.04,.1,.08,.16,.13,.03,.02,.05,.04,.07,.06,.08,.07,.16,.14,.24,.21Z"/><path class="cls-7" d="M8.37,6.36c-.02,.17,.31,.09,.72,.38,.33,.22,.38,.5,.77,.42,.33-.06,.44-.53,.39-.63-.18-.35-.74-.12-.89-.3-.15-.19-.25-.44-.58-.36-.33,.08-.4,.36-.41,.49Z"/><path class="cls-7" d="M10.41,7.33c-.3-.03-.06,.43,0,.48,.06,.05,.32-.11,.36-.13,.04-.02-.23-.35-.36-.36Z"/><path class="cls-7" d="M14.47,8.48c-.15-.01-.03,.21,0,.24,.03,.03,.16-.05,.18-.06,.02,0-.12-.17-.18-.18Z"/><path class="cls-7" d="M14.87,8.33c-.15-.01-.03,.21,0,.24,.03,.03,.16-.05,.18-.06,.02,0-.12-.17-.18-.18Z"/><path class="cls-7" d="M16.07,9.85c-.15-.01-.03,.21,0,.24,.03,.03,.16-.05,.18-.06,.02,0-.12-.17-.18-.18Z"/><path class="cls-7" d="M15.59,8.27c-.36,.12-.25,.79-.11,.99,.14,.2,.6,0,.67-.17,.07-.17-.42-.87-.57-.82Z"/><path class="cls-7" d="M17.41,10.59c-.12-.31-.93,.03-.88,.19,.05,.16,.31,.58,.52,.61,.22,.03,.43-.64,.36-.8Z"/><path class="cls-7" d="M1.58,7.18c-.3,0,.08,.95,.19,1.44,.1,.5,.37,.86,.53,.86s.03-.38-.16-.93c-.19-.55-.35-1.38-.55-1.38Z"/><path class="cls-7" d="M2.65,9.67c-.3,.06,.16,.71,.4,.71s.24-.31,.13-.47c-.11-.16-.41-.26-.53-.24Z"/><path class="cls-7" d="M9.35,5.5c-.3,.06,.16,.71,.4,.71s.24-.31,.13-.47c-.11-.16-.41-.26-.53-.24Z"/><path class="cls-5" d="M3.52,4.84c-.23,.05,.2,.8,.5,.96,.3,.16,.49-.6,.4-.69-.1-.1-.73-.3-.9-.26Z"/><path class="cls-7" d="M7.34,13.5c-.37,.15,.22,.6,.49,.46,.28-.14-.09-.62-.49-.46Z"/><path class="cls-7" d="M6.47,15.78c-.43,.22,.18,.85,.53,.78s.24-.98,0-.98-.31,.1-.53,.2Z"/><path class="cls-7" d="M11.75,13.73c.04,.25,.54,.39,.8,.15,.26-.24,.04-.8-.23-.81s-.61,.41-.58,.67Z"/><path class="cls-7" d="M12.9,13.64c-.21,.09,.1,.4,.29,.36,.2-.04,.31-.31,.29-.39-.02-.08-.52,0-.58,.03Z"/><path class="cls-7" d="M7.73,13.16c-.21,.09,.1,.4,.29,.36,.2-.04,.31-.31,.29-.39-.02-.08-.52,0-.58,.03Z"/><path class="cls-7" d="M16.17,4.44c-.16-.26-1.9,.96-1.9,1.22s.4-.3,.83-.47c.43-.17,1.23-.51,1.07-.76Z"/><path class="cls-7" d="M14.15,5.92c-.19-.11-.51,.7-.26,.71,.25,.01,.46-.6,.26-.71Z"/><path class="cls-7" d="M7.93,4.85c-.19-.11-.51,.7-.26,.71s.46-.6,.26-.71Z"/><path class="cls-7" d="M16.28,10.19c-.19-.11-.51,.7-.26,.71,.25,.01,.46-.6,.26-.71Z"/><path class="cls-7" d="M10.61,6.79c-.19,.09-.2,.42-.07,.44,.14,.02,.37-.32,.32-.36-.04-.04-.16-.13-.26-.08Z"/><path class="cls-5" d="M7.49,6.13c-.09,0-.23,.36-.1,.42s.55,.06,.6,0-.3-.43-.49-.42Z"/><path class="cls-6" d="M3.16,6.7c-.5,.15,.91,1.01,1.28,1.63s.89,1.43,2.24,1.34,2.19-.99,2.23-1.54c.04-.55-.84-1.13-1.77-.95-.92,.18-1.89,.52-2.71,.15s-.92-.74-1.28-.63Z"/><path class="cls-6" d="M5.36,3.71c-.61,.14-1.04-1.88-.68-2.4,.36-.52,3.21-1.44,5.44-.84,2.23,.6,3.91,2,3.69,2.25-.22,.25-1.61-1.2-3.54-1.73-1.92-.53-2.79,2.23-4.91,2.71Z"/><path class="cls-6" d="M16.62,5.23c-.68-.05-.3,.91,.26,1.52,.56,.61-.43,2.78,.3,3s.17-2.57,0-3.23-.31-1.27-.56-1.29Z"/><path class="cls-6" d="M12.88,16.22c-.56,.23-.78-1.02-.16-1.38,.54-.31,2.16-.95,2.74-.86,.59,.09,.18,.28-1.05,.76-1.23,.48-.65,1.12-1.53,1.48Z"/><path class="cls-9" d="M15.14,3.13s-.53,.63-1.32,.8c-.8,.17-1.85-1.09-3.16-1.24-1.31-.15-2.98,2.31-2.87,2.38,.11,.07,1.12-1.39,1.33-1.39s-.9,1.02-.72,1.15,1.25-1.46,2.11-1.57c.86-.11,2.05,1.04,3.07,.96,1.02-.08,1.75-1.05,1.55-1.1Z"/><path class="cls-10" d="M11.51,17.35s-1.43-1.46-1.34-2.76c.08-1.29,1.29-1.63,1.34-1.75,.05-.12-1.5,.32-1.74,1.75s1.3,2.95,1.74,2.76Z"/><path class="cls-9" d="M14.31,5.07s-.9,1.16-.97,1.98c-.07,.83,1.34,.81,1.89,.87s.65,.24,.65,.24c0,0-.5-.24-1.47-.1-.97,.14-1.72-.48-1.28-1.4s1.18-1.6,1.18-1.6Z"/><path class="cls-9" d="M10.52,8.06s.57,1.16-.25,2.14c-.82,.98-1.8,1.48-2.6,2.53-.54,.71-.77,1.64-.77,1.64,0,0,.58-1.49,1.91-2.47,1.33-.98,1.96-1.47,2.18-2.24,.22-.77-.46-1.61-.46-1.61Z"/><path class="cls-6" d="M8.87,9.48c-.28-.16-.25,.69-1.44,1.74s-1.25,1.13-1.7,1.96c-.46,.83-.3,1.51-.08,1.5,.22-.02,.12-1.1,.73-1.98s1.58-1.62,2.13-2.2c.55-.58,.48-.95,.36-1.02Z"/><path class="cls-6" d="M8.95,8.65c-.24,0-.24,.76,.13,.69,.37-.07,.03-.69-.13-.69Z"/><path class="cls-6" d="M14.25,14.99c-.45,.2-.08,.66,.4,.4s.03-.58-.4-.4Z"/><path class="cls-6" d="M15.85,5.45c-.23,.06-.35,.43-.13,.51,.21,.07,.45-.21,.43-.37-.01-.09-.06-.2-.29-.14Z"/><path class="cls-6" d="M5.68,3.74c-.23,.06-.35,.43-.13,.51s.45-.21,.43-.37c-.01-.09-.06-.2-.29-.14Z"/><path class="cls-11" d="M14.15,4.88c-.1-.02-1.03,.94-.86,.93,.17,0,1.03-.9,.86-.93Z"/><path class="cls-11" d="M15.35,4.44c-.08-.07-1,.61-.92,.66,.09,.05,.99-.58,.92-.66Z"/><path class="cls-11" d="M15.76,4.19c-.11-.13-.32,.19-.25,.21,.07,.02,.31-.15,.25-.21Z"/><path class="cls-9" d="M3.39,10.48s.51,.49,.81,1.75c.3,1.27,.33,2.68,.33,2.68,0,0-.45-1.92-.7-2.74-.25-.82-.44-1.7-.44-1.7Z"/><path class="cls-9" d="M2.29,10.02c-.17,.03,.78,1.53,1.02,1.52,.24-.01-.66-1.57-1.02-1.52Z"/><path class="cls-10" d="M7.33,14.66c0,.09-.07,.16-.16,.16s-.16-.07-.16-.16,.07-.16,.16-.16,.16,.07,.16,.16Z"/><path class="cls-10" d="M12.03,12.84c0,.08-.06,.14-.14,.14s-.14-.06-.14-.14,.06-.14,.14-.14,.14,.06,.14,.14Z"/><path class="cls-10" d="M10.77,14.3c0,.12-.07,.21-.16,.21s-.16-.09-.16-.21,.07-.21,.16-.21,.16,.09,.16,.21Z"/><path class="cls-10" d="M14.65,12.39s-.03,.06-.06,.06-.06-.03-.06-.06,.03-.06,.06-.06,.06,.03,.06,.06Z"/><path class="cls-11" d="M13.62,4.99c0,.06-.05,.11-.11,.11s-.11-.05-.11-.11,.05-.11,.11-.11,.11,.05,.11,.11Z"/><circle class="cls-10" cx="8.87" cy="5.02" r=".18"/><path class="cls-10" d="M8.14,5.3s-.03,.07-.07,.07-.07-.03-.07-.07,.03-.07,.07-.07,.07,.03,.07,.07Z"/><path class="cls-11" d="M15.6,3.78c0,.07-.06,.13-.13,.13s-.13-.06-.13-.13,.06-.13,.13-.13,.13,.06,.13,.13Z"/><path class="cls-9" d="M2.2,9.89c0,.12-.1,.22-.22,.22s-.22-.1-.22-.22,.1-.22,.22-.22,.22,.1,.22,.22Z"/><path class="cls-7" d="M3.35,10.61c0,.05-.04,.09-.09,.09s-.09-.04-.09-.09,.04-.1,.09-.1,.09,.04,.09,.1Z"/><circle class="cls-7" cx="8.46" cy="4.19" r=".09"/><circle class="cls-7" cx="14.02" cy="7.1" r=".09"/><path class="cls-7" d="M3.8,10.55c0,.12-.1,.23-.23,.23s-.23-.1-.23-.23,.1-.23,.23-.23,.23,.1,.23,.23Z"/><path class="cls-7" d="M8.36,4.52c0,.12-.1,.23-.23,.23s-.23-.1-.23-.23,.1-.23,.23-.23,.23,.1,.23,.23Z"/><path class="cls-7" d="M8.11,12.33c0,.12-.1,.23-.23,.23s-.23-.1-.23-.23,.1-.23,.23-.23,.23,.1,.23,.23Z"/><path class="cls-7" d="M13.71,8.48c0,.12-.1,.23-.23,.23s-.23-.1-.23-.23,.1-.23,.23-.23,.23,.1,.23,.23Z"/><path class="cls-10" d="M12.21,11.64c-1.79,.26-2.95,2.08-2.75,3.83,.11,.98,.69,1.73,1.17,2.2-.55,.11-1.13,.17-1.72,.17-.27,0-.54-.01-.81-.04-.13-.59-.62-3.3,.76-4.98,1.56-1.9,2.65-2.17,3.48-3.07,.83-.89-2.77-3.7-2.21-4.77,.55-1.06,2.61-1.44,2.54,.44-.07,1.88-.18,3.36,.32,3.91,.5,.55,2.69,.58,2.88,2.06,.19,1.47-1.87-.02-3.66,.24Z"/><path class="cls-12" d="M4.07,16.41s-.09-.06-.14-.09c-.17-.12-.34-.24-.5-.37-.22-.17-.43-.35-.63-.53-1.17-1.1-2.05-2.52-2.49-4.12-.08-.3-.15-.61-.2-.92-.08-.47-.12-.96-.12-1.45,0-.06,0-.11,0-.17,.22-.02,.44,.03,.62,.17,.97,.74,.7,1.67,1.47,2.91,.77,1.24,1.92,2.21,1.98,3.64,.02,.41,.01,.72,0,.94Z"/><g class="cls-2"><path class="cls-1" d="M11.92,1.8c.85,1.65-.87,4.24-3.84,5.77-2.97,1.53-6.07,1.43-6.92-.22S2.02,3.11,4.99,1.58C7.97,.05,11.07,.15,11.92,1.8Z"/></g><path class="cls-3" d="M8.66,1.32c.18,.35-.76,1.2-2.11,1.9-1.35,.69-2.59,.97-2.77,.62-.18-.35,.76-1.2,2.11-1.9,1.35-.69,2.59-.97,2.77-.62Z"/><path class="cls-3" d="M3.39,4.29c.13,.25,.03,.55-.22,.68-.25,.13-.55,.03-.68-.22-.13-.25-.03-.55,.22-.68,.25-.13,.55-.03,.68,.22Z"/><path class="cls-13" d="M17.84,8.92c0,4.93-3.99,8.92-8.92,8.92-1.43,0-2.78-.34-3.98-.94-.35-.17-.69-.37-1.01-.59-.17-.12-.34-.24-.5-.37-.22-.17-.43-.35-.63-.53-1.17-1.1-2.05-2.52-2.49-4.12,1.94,.37,5.79,.88,10.15-.76,3.91-1.46,5.46-4.27,6.16-6.09,.24,.41,.45,.84,.62,1.3,.38,.99,.59,2.06,.59,3.18Z"/><g class="cls-16"><path class="cls-8" d="M14.54,2c1.68,1.62,2.72,3.89,2.72,6.41,0,4.93-3.99,8.92-8.92,8.92-2.13,0-4.09-.75-5.62-2,1.61,1.55,3.79,2.51,6.2,2.51,4.93,0,8.92-3.99,8.92-8.92,0-2.8-1.29-5.29-3.3-6.92Z"/></g></g></svg>