<?xml version="1.0" encoding="UTF-8"?><svg id="Layer_2" xmlns="http://www.w3.org/2000/svg" xmlns:xlink="http://www.w3.org/1999/xlink" viewBox="0 0 16.68 16.68"><defs><style>.cls-1{fill:url(#_ÂÁ_Ï_ÌÌ_È_ËÂÌÚ_20);}.cls-2{fill:url(#_ÂÁ_Ï_ÌÌ_È_ËÂÌÚ_47);}.cls-3{mask:url(#mask);}.cls-4{fill:#fff;}.cls-5,.cls-6,.cls-7,.cls-8{fill:#ad0000;}.cls-9,.cls-10,.cls-11,.cls-12{fill:#700000;}.cls-13{fill:url(#_ÂÁ_Ï_ÌÌ_È_ËÂÌÚ_20-2);opacity:.6;}.cls-14{mask:url(#mask-3);}.cls-15{mask:url(#mask-2);}.cls-16{mask:url(#mask-1);}.cls-10,.cls-6{opacity:.58;}.cls-17{fill:#900000;opacity:.26;}.cls-18{fill:#ffd800;}.cls-18,.cls-7{opacity:.45;}.cls-11{opacity:.44;}.cls-12,.cls-8{opacity:.4;}.cls-19{fill:url(#_ÂÁ_Ï_ÌÌ_È_ËÂÌÚ_157);}.cls-19,.cls-20{mix-blend-mode:multiply;}.cls-20{fill:url(#_ÂÁ_Ï_ÌÌ_È_ËÂÌÚ_156);}</style><linearGradient id="_ÂÁ_Ï_ÌÌ_È_ËÂÌÚ_47" x1="1.19" y1="4.04" x2="15.49" y2="12.63" gradientUnits="userSpaceOnUse"><stop offset=".02" stop-color="#ffad00"/><stop offset="1" stop-color="#f65b00"/></linearGradient><filter id="luminosity-noclip-2" x="8198.32" y="-8192.91" width="-32766" height="32766" color-interpolation-filters="sRGB" filterUnits="userSpaceOnUse"><feFlood flood-color="#fff" result="bg"/><feBlend in="SourceGraphic" in2="bg"/></filter><mask id="mask-1" x="8198.32" y="-8192.91" width="-32766" height="32766" maskUnits="userSpaceOnUse"/><linearGradient id="_ÂÁ_Ï_ÌÌ_È_ËÂÌÚ_157" x1="30.78" y1="-151.4" x2="31.41" y2="-146.74" gradientTransform="translate(67.43 201.19) rotate(-27.25) scale(1.15 1.36)" gradientUnits="userSpaceOnUse"><stop offset="0" stop-color="#fff"/><stop offset="1" stop-color="#333"/></linearGradient><mask id="mask" x="1.1" y=".25" width="10.35" height="7.54" maskUnits="userSpaceOnUse"><g class="cls-16"><path class="cls-19" d="M11.25,1.46c.79,1.53-.8,3.91-3.55,5.33s-5.61,1.32-6.4-.21c-.79-1.53,.8-3.91,3.55-5.33s5.61-1.32,6.4,.21Z"/></g></mask><linearGradient id="_ÂÁ_Ï_ÌÌ_È_ËÂÌÚ_20" x1="30.78" y1="-151.4" x2="31.41" y2="-146.74" gradientTransform="translate(67.43 201.19) rotate(-27.25) scale(1.15 1.36)" gradientUnits="userSpaceOnUse"><stop offset="0" stop-color="#fff"/><stop offset="1" stop-color="#fff"/></linearGradient><filter id="luminosity-noclip-3" x="8198.32" y="-8192.91" width="-32766" height="32766" color-interpolation-filters="sRGB" filterUnits="userSpaceOnUse"><feFlood flood-color="#fff" result="bg"/><feBlend in="SourceGraphic" in2="bg"/></filter><mask id="mask-3" x="8198.32" y="-8192.91" width="-32766" height="32766" maskUnits="userSpaceOnUse"/><linearGradient id="_ÂÁ_Ï_ÌÌ_È_ËÂÌÚ_156" x1="13.5" y1="14.88" x2="7.21" y2="6.84" gradientUnits="userSpaceOnUse"><stop offset="0" stop-color="#fff"/><stop offset="1" stop-color="#000"/></linearGradient><mask id="mask-2" x="2.53" y="1.87" width="14.13" height="14.81" maskUnits="userSpaceOnUse"><g class="cls-14"><path class="cls-20" d="M13.59,1.87c1.57,1.52,2.54,3.64,2.54,5.99,0,4.6-3.73,8.34-8.34,8.34-1.99,0-3.82-.7-5.25-1.87,1.5,1.45,3.54,2.35,5.8,2.35,4.6,0,8.34-3.73,8.34-8.34,0-2.61-1.2-4.94-3.08-6.47Z"/></g></mask><linearGradient id="_ÂÁ_Ï_ÌÌ_È_ËÂÌÚ_20-2" x1="13.5" y1="14.88" x2="7.21" y2="6.84" gradientTransform="matrix(1, 0, 0, 1, 0, 0)" xlink:href="#_ÂÁ_Ï_ÌÌ_È_ËÂÌÚ_20"/></defs><g id="solar_system"><path class="cls-2" d="M16.68,8.34c0,.12,0,.24,0,.36,0,.14-.01,.28-.03,.42-.08,.83-.27,1.62-.57,2.36-.13,.31-.27,.61-.43,.9-.14,.25-.29,.49-.45,.72-.23,.33-.48,.64-.75,.93-.61,.65-1.32,1.2-2.1,1.64-1.19,.65-2.55,1.02-4,1.02-1.34,0-2.6-.31-3.72-.88-.33-.16-.64-.35-.94-.55-.16-.11-.32-.22-.47-.34-.2-.16-.4-.32-.58-.5-.23-.21-.44-.44-.64-.68-.6-.7-1.08-1.5-1.42-2.37-.1-.26-.19-.53-.27-.81-.08-.28-.14-.57-.19-.86,0-.03-.01-.07-.01-.1-.06-.41-.1-.83-.1-1.26,0-.29,.01-.58,.04-.86,.03-.27,.07-.53,.12-.79,.27-1.34,.86-2.57,1.69-3.6,.12-.15,.24-.29,.37-.42l.02-.02c.54-.58,1.17-1.09,1.86-1.5,.61-.36,1.26-.64,1.96-.84,.73-.21,1.49-.32,2.28-.32,1.96,0,3.75,.67,5.18,1.8,.05,.04,.1,.08,.15,.12,.02,.02,.05,.04,.07,.06,.08,.07,.16,.14,.24,.21,.13,.12,.25,.24,.37,.36,.11,.11,.22,.23,.32,.35v.02c.14,.15,.27,.31,.39,.47,.18,.25,.35,.5,.51,.77,.08,.13,.15,.26,.22,.4,.14,.26,.26,.53,.36,.81,.1,.25,.18,.5,.25,.76,.2,.71,.3,1.45,.3,2.22Z"/><path class="cls-8" d="M16.38,6.12c-.83,.51-1.93,.95-2.71,.43-1.41-.94-1.18-4.57-1.98-3.9-.8,.67-.11,4.03-2.03,4.03-1.91,0-1-3.3-2.42-5.15-.38-.49-.79-.9-1.18-1.22,.47-.13,.95-.23,1.45-.27,.27-.03,.55-.04,.83-.04,1.96,0,3.75,.67,5.18,1.8,.05,.04,.1,.08,.15,.12,.02,.02,.05,.04,.07,.06,.08,.07,.16,.14,.24,.21,.13,.12,.25,.24,.37,.36,.11,.11,.22,.23,.32,.35v.02c.14,.15,.27,.31,.39,.47,.09,.12,.18,.25,.26,.37,.09,.13,.17,.26,.24,.39,.23,.38,.42,.79,.58,1.21,.1,.25,.18,.5,.25,.76Z"/><path class="cls-6" d="M5.12,3.14c-.29,.48-2.28,.15-3.26-.04,.62-.77,1.39-1.43,2.24-1.94,.64,.5,1.43,1.3,1.02,1.98Z"/><path class="cls-7" d="M14.44,14.02c-.82,.88-1.82,1.58-2.95,2.04-.97,.4-2.04,.62-3.15,.62-.63,0-1.25-.07-1.83-.2-.66-.15-1.3-.38-1.89-.67-.33-.16-.64-.35-.94-.55-.16-.11-.32-.22-.47-.34-.2-.16-.4-.32-.58-.5-.23-.21-.44-.44-.64-.68,.29-1.27,.82-2.88,1.56-2.8,1.22,.13,.95,2.24,1.37,3.27,.42,1.03,1.19-1.26,1.97-1.43,.78-.18,2.77,1.65,4.88,1.72,1.26,.05,2.16-.24,2.67-.47Z"/><path class="cls-12" d="M15.3,3.76c-.56,.23-1.45,.49-1.81-.06-.54-.83-1.48-2.53-2.28-2.32-.8,.22-1.78,1.06-2.42,0C8.27,.53,7.71,.16,7.5,.04c.27-.03,.55-.04,.83-.04,1.96,0,3.75,.67,5.18,1.8,.05,.04,.1,.08,.15,.12,.02,.02,.05,.04,.07,.06,.08,.07,.16,.14,.24,.21,.13,.12,.25,.24,.37,.36,.11,.11,.22,.23,.32,.35v.02c.14,.15,.27,.31,.39,.47,.09,.12,.18,.25,.26,.37Z"/><path class="cls-9" d="M11.49,16.06c-.97,.4-2.04,.62-3.15,.62-.63,0-1.25-.07-1.83-.2,.22-.54,.62-1.33,1.18-1.62,.69-.37,2.87,.71,3.8,1.21Z"/><path class="cls-18" d="M16.07,11.47c-.13,.31-.27,.61-.43,.9-.35-.14-.78-.35-1.2-.64-.93-.64-2.16-3.09-2.42-3.18-.26-.09-1.88,1.75-3.15,1.76-1.26,.01-2.33-3.57-2.92-3.28-.59,.29-.57,3.01-1.67,3.08-1.1,.07-1.39-2.19-2.13-2.27-.52-.06-1.52,1.09-2.05,1.76-.06-.41-.1-.83-.1-1.26,0,0,1.92-1.39,2.88-1.15s.63,1.41,1.28,1.7c.65,.29,1.09-2.26,1.9-2.53,.81-.27,1.46,2.29,2.67,2.82s2.6-1.01,3.29-.94c.69,.07,1.66,2.06,3.16,2.85,.36,.19,.66,.31,.89,.38Z"/><path class="cls-11" d="M15.18,13.1c-.23,.33-.48,.64-.75,.93-.61,.65-1.32,1.2-2.1,1.64-.14-.49-.55-1.73-1.26-1.96-.89-.3-3.02-.67-2.74-1.04,.29-.37,1.58,.04,2.69,.61,1.28,.66,1.92-.02,1.29-.54-.62-.52-3.12-1.21-2.4-1.36,.72-.15,1.88,.86,3.59,1.44,.61,.21,1.19,.28,1.67,.29Z"/><path class="cls-10" d="M3.28,5.06c-1.43-.23-1.55,1.04-.55,1.18,.99,.13,2.13,.24,2.3,.76,.17,.52-1.34-.28-2.37-.44-.83-.14-2.06,.06-2.5,.14,.27-1.34,.86-2.57,1.69-3.6,.12-.15,.24-.29,.37-.42l.02-.02s-.16,.53,.58,1.58c.74,1.04,2.97,.87,3.07,1.18,.1,.3-1.18-.12-2.6-.35Z"/><path class="cls-11" d="M16.67,8.69c0,.14-.01,.28-.03,.42-.75-.17-4.44-1.06-4.17-1.48,.26-.4,3.29,.72,4.2,1.07Z"/><g><path class="cls-9" d="M12.48,6.49c0,.38-.17,.68-.38,.68-.02,0-.03,0-.05,0-.19-.04-.33-.33-.33-.68s.14-.63,.33-.68c.02,0,.03,0,.05,0,.21,0,.38,.31,.38,.68Z"/><path class="cls-5" d="M12.38,6.49c0,.35-.14,.63-.33,.68-.19-.04-.33-.33-.33-.68s.14-.63,.33-.68c.19,.04,.33,.33,.33,.68Z"/></g><g><path class="cls-9" d="M6.87,5.81c0,.13-.06,.23-.13,.23,0,0-.01,0-.02,0-.06-.01-.11-.11-.11-.23s.05-.22,.11-.23c0,0,.01,0,.02,0,.07,0,.13,.1,.13,.23Z"/><path class="cls-5" d="M6.84,5.81c0,.12-.05,.22-.11,.23-.06-.01-.11-.11-.11-.23s.05-.22,.11-.23c.06,.02,.11,.11,.11,.23Z"/></g><g><path class="cls-9" d="M10.95,4.52c0,.38-.17,.68-.38,.68-.02,0-.03,0-.05,0-.19-.04-.33-.33-.33-.68s.14-.63,.33-.68c.02,0,.03,0,.05,0,.21,0,.38,.31,.38,.68Z"/><path class="cls-5" d="M10.85,4.52c0,.35-.14,.63-.33,.68-.19-.04-.33-.33-.33-.68s.14-.63,.33-.68c.19,.04,.33,.33,.33,.68Z"/></g><g><path class="cls-9" d="M15.82,5.34c.02,.28-.09,.52-.25,.54-.01,0-.03,0-.04,0-.14-.02-.27-.23-.29-.49-.02-.26,.07-.49,.21-.53,.01,0,.02,0,.04,0,.16-.01,.31,.21,.33,.49Z"/><path class="cls-5" d="M15.75,5.35c.02,.26-.07,.48-.21,.53-.14-.02-.27-.23-.29-.49-.02-.26,.07-.49,.21-.53,.14,.02,.27,.23,.29,.49Z"/></g><g><path class="cls-9" d="M14.64,3.18c.13,.2,.14,.42,.03,.49,0,0-.02,.01-.03,.01-.11,.04-.29-.06-.4-.25-.12-.18-.14-.39-.05-.47,0,0,.01-.01,.02-.02,.11-.07,.3,.03,.43,.24Z"/><path class="cls-5" d="M14.59,3.22c.12,.18,.13,.38,.05,.47-.11,.04-.29-.06-.4-.25-.12-.18-.14-.39-.05-.47,.11-.04,.29,.06,.4,.25Z"/></g><g><path class="cls-9" d="M15.96,10.1c-.08,.37-.31,.63-.52,.58-.02,0-.03,0-.05-.02-.17-.08-.25-.39-.18-.73,.07-.34,.28-.59,.47-.59,.02,0,.03,0,.05,0,.21,.05,.31,.38,.23,.75Z"/><path class="cls-5" d="M15.86,10.08c-.07,.34-.28,.59-.47,.59-.17-.08-.25-.39-.18-.73,.07-.34,.28-.59,.47-.59,.17,.08,.25,.39,.18,.73Z"/></g><g><path class="cls-9" d="M.98,9.92c.08,.5,.37,.87,.65,.83,.02,0,.04,0,.06-.02,.24-.1,.37-.51,.3-.97-.07-.46-.32-.81-.58-.83-.02,0-.04,0-.07,0-.28,.04-.44,.48-.36,.99Z"/><path class="cls-5" d="M1.12,9.9c.07,.46,.32,.81,.58,.83,.24-.1,.37-.51,.3-.97-.07-.46-.32-.81-.58-.83-.24,.1-.37,.51-.3,.97Z"/></g><g><path class="cls-9" d="M5.02,13.12c-.02,.24,.08,.43,.21,.44,.01,0,.02,0,.03,0,.12-.02,.22-.19,.24-.41,.02-.22-.06-.4-.18-.44,0,0-.02,0-.03,0-.13,0-.25,.17-.27,.41Z"/><path class="cls-5" d="M5.08,13.12c-.02,.22,.06,.4,.18,.44,.12-.02,.22-.19,.24-.41,.02-.22-.06-.4-.18-.44-.12,.02-.22,.19-.24,.41Z"/></g><g><path class="cls-9" d="M4.38,11.16c.07,.41,.32,.71,.55,.67,.02,0,.04,0,.05-.02,.2-.08,.3-.42,.23-.8-.07-.38-.28-.67-.49-.68-.02,0-.04,0-.06,0-.23,.04-.36,.41-.29,.82Z"/><path class="cls-5" d="M4.49,11.14c.07,.38,.28,.66,.49,.68,.2-.08,.3-.42,.23-.8-.07-.38-.28-.67-.49-.68-.2,.08-.3,.42-.23,.8Z"/></g><g><path class="cls-9" d="M3.07,13.77c.19,.47,.56,.76,.83,.65,.02,0,.04-.02,.06-.03,.21-.15,.24-.58,.06-1.01-.18-.43-.51-.71-.76-.67-.02,0-.04,0-.07,.02-.26,.11-.32,.58-.12,1.04Z"/><path class="cls-5" d="M3.2,13.72c.18,.43,.5,.71,.76,.67,.21-.15,.24-.58,.06-1.01-.18-.43-.51-.71-.76-.67-.21,.15-.24,.58-.06,1.01Z"/></g><g><path class="cls-9" d="M2.25,10.52c.04,.25,.18,.43,.32,.41,.01,0,.02,0,.03,0,.12-.05,.18-.25,.15-.48-.04-.23-.16-.4-.29-.41-.01,0-.02,0-.03,0-.14,.02-.22,.24-.18,.49Z"/><path class="cls-5" d="M2.32,10.51c.04,.23,.16,.4,.29,.41,.12-.05,.18-.25,.15-.48-.04-.23-.16-.4-.29-.41-.12,.05-.18,.25-.15,.48Z"/></g><g><path class="cls-9" d="M11.69,7.29c0,.14-.06,.26-.14,.26,0,0-.01,0-.02,0-.07-.02-.12-.12-.12-.25s.05-.24,.12-.25c0,0,.01,0,.02,0,.08,0,.14,.11,.14,.26Z"/><path class="cls-5" d="M11.65,7.29c0,.13-.05,.24-.12,.25-.07-.02-.12-.12-.12-.25s.05-.24,.12-.25c.07,.02,.12,.12,.12,.25Z"/></g><g><path class="cls-9" d="M16.13,7.55c0,.14-.06,.26-.14,.26,0,0-.01,0-.02,0-.07-.02-.12-.12-.12-.25s.05-.24,.12-.25c0,0,.01,0,.02,0,.08,0,.14,.11,.14,.26Z"/><path class="cls-5" d="M16.09,7.55c0,.13-.05,.24-.12,.25-.07-.02-.12-.12-.12-.25s.05-.24,.12-.25c.07,.02,.12,.12,.12,.25Z"/></g><path class="cls-18" d="M6.41,7.96c-.32,.12,1.08,1.87,1.12,2.27s-1.25-1.59-1.53-1.43,.86,2.09,2.04,2.4c1.18,.31,3.63-1.01,3.68-1.27,.05-.26-1.88,.94-2.09,.73-.2-.21,2.02-.87,1.92-1.07-.1-.2-2.23,1.09-3.09,.88-.86-.21-1.78-2.62-2.05-2.51Z"/><path class="cls-18" d="M12.93,8.44c-.11,.07,1.49,2.1,1.63,2,.14-.1-1.33-2.2-1.63-2Z"/><g class="cls-3"><path class="cls-1" d="M11.25,1.46c.79,1.53-.8,3.91-3.55,5.33s-5.61,1.32-6.4-.21c-.79-1.53,.8-3.91,3.55-5.33s5.61-1.32,6.4,.21Z"/></g><path class="cls-4" d="M7.85,1.32c.15,.3-.64,1.01-1.77,1.59-1.13,.58-2.17,.81-2.33,.52-.15-.3,.64-1.01,1.77-1.59,1.13-.58,2.17-.81,2.33-.52Z"/><path class="cls-4" d="M3.43,3.82c.11,.21,.03,.46-.18,.57-.21,.11-.46,.03-.57-.18-.11-.21-.03-.46,.18-.57s.46-.03,.57,.18Z"/><path class="cls-17" d="M16.68,8.34c0,.12,0,.24,0,.36,0,.14-.01,.28-.03,.42-.08,.83-.27,1.62-.57,2.36-.13,.31-.27,.61-.43,.9-.14,.25-.29,.49-.45,.72-.23,.33-.48,.64-.75,.93-.61,.65-1.32,1.2-2.1,1.64-1.19,.65-2.55,1.02-4,1.02-1.34,0-2.6-.31-3.72-.88-.33-.16-.64-.35-.94-.55-.16-.11-.32-.22-.47-.34-.2-.16-.4-.32-.58-.5-.23-.21-.44-.44-.64-.68-.6-.7-1.08-1.5-1.42-2.37,1.26,.2,4.52,.49,8.64-.94,3.94-1.37,5.84-4.39,6.56-5.87,.14,.26,.26,.53,.36,.81,.1,.25,.18,.5,.25,.76,.2,.71,.3,1.45,.3,2.22Z"/><g class="cls-15"><path class="cls-13" d="M13.59,1.87c1.57,1.52,2.54,3.64,2.54,5.99,0,4.6-3.73,8.34-8.34,8.34-1.99,0-3.82-.7-5.25-1.87,1.5,1.45,3.54,2.35,5.8,2.35,4.6,0,8.34-3.73,8.34-8.34,0-2.61-1.2-4.94-3.08-6.47Z"/></g></g></svg>