<?xml version="1.0" encoding="UTF-8"?><svg id="Layer_2" xmlns="http://www.w3.org/2000/svg" xmlns:xlink="http://www.w3.org/1999/xlink" viewBox="0 0 31.03 31.06"><defs><style>.cls-1{fill:url(#_ÂÁ_Ï_ÌÌ_È_ËÂÌÚ_156-2);}.cls-1,.cls-2{mix-blend-mode:multiply;}.cls-3{fill:url(#_ÂÁ_Ï_ÌÌ_È_ËÂÌÚ_102-2);}.cls-4{mask:url(#mask);}.cls-5{fill:#fff;}.cls-6{fill:url(#_ÂÁ_Ï_ÌÌ_È_ËÂÌÚ_102);opacity:.67;}.cls-7{fill:url(#_ÂÁ_Ï_ÌÌ_È_ËÂÌÚ_297);}.cls-8{mask:url(#mask-3);}.cls-9{mask:url(#mask-2);}.cls-10{mask:url(#mask-1);}.cls-11{fill:#6b0000;opacity:.31;}.cls-12{fill:#9f3600;}.cls-12,.cls-13,.cls-14{opacity:.66;}.cls-13{fill:#fffc86;}.cls-14{fill:#7a1b00;}.cls-2{fill:url(#_ÂÁ_Ï_ÌÌ_È_ËÂÌÚ_156);}</style><radialGradient id="_ÂÁ_Ï_ÌÌ_È_ËÂÌÚ_297" cx="-24.18" cy="-12.51" fx="-24.18" fy="-12.51" r="23.78" gradientTransform="translate(37.31 20.15) rotate(-10.45)" gradientUnits="userSpaceOnUse"><stop offset=".33" stop-color="#ffed46"/><stop offset="1" stop-color="#ca0a00"/></radialGradient><filter id="luminosity-noclip-2" x="8172.07" y="-8009.58" width="-32766" height="32766" color-interpolation-filters="sRGB" filterUnits="userSpaceOnUse"><feFlood flood-color="#fff" result="bg"/><feBlend in="SourceGraphic" in2="bg"/></filter><mask id="mask-1" x="8172.07" y="-8009.58" width="-32766" height="32766" maskUnits="userSpaceOnUse"/><linearGradient id="_ÂÁ_Ï_ÌÌ_È_ËÂÌÚ_156" x1="-9.08" y1="1.91" x2="-22.35" y2="-10.04" gradientTransform="translate(37.31 20.15) rotate(-10.45)" gradientUnits="userSpaceOnUse"><stop offset="0" stop-color="#fff"/><stop offset="1" stop-color="#000"/></linearGradient><mask id="mask" x="5.5" y="2.94" width="25.53" height="28.11" maskUnits="userSpaceOnUse"><g class="cls-10"><path class="cls-2" d="M30.65,12.13c-.07-.32-.15-.64-.25-.95,0,0,0-.01,0-.01-.26-.9-.6-1.76-1.01-2.57-.24-.48-.51-.95-.79-1.4-.19-.3-.39-.59-.6-.88-.12-.16-.24-.32-.37-.48h0c-.19-.24-.39-.47-.59-.69l-.2-.21h0c-.23-.25-.48-.49-.73-.73-.07-.07-.14-.13-.21-.2-.2-.18-.41-.36-.62-.53l-.03-.02c-.22-.18-.45-.35-.68-.52,.13,.11,.26,.22,.38,.33,.07,.07,.14,.13,.21,.2,.25,.23,.49,.48,.73,.72h0s.2,.22,.2,.22c.2,.22,.4,.45,.59,.69h0c.13,.16,.25,.32,.37,.48,.21,.28,.41,.58,.6,.88,.29,.45,.55,.91,.79,1.4,.41,.81,.75,1.67,1.01,2.57,0,0,0,0,0,.01,.09,.31,.17,.63,.25,.95,.04,.2,.09,.4,.12,.6,.04,.22,.07,.43,.1,.65,.15,1.04,.19,2.08,.13,3.09-.06,1.02-.22,2.02-.48,2.99-.25,.95-.59,1.87-1.01,2.75-.04,.1-.09,.19-.14,.29-.04,.08-.08,.17-.13,.25l-.1,.18c-.16,.3-.33,.59-.52,.88-.38,.6-.79,1.18-1.25,1.72-.16,.19-.33,.38-.5,.57-.47,.51-.98,.99-1.53,1.44-.07,.06-.14,.12-.21,.17-.1,.09-.21,.17-.32,.25-1.86,1.4-4.06,2.4-6.5,2.84-2.69,.5-5.34,.26-7.76-.56-.15-.05-.31-.1-.46-.16-.15-.05-.3-.11-.45-.17-.11-.05-.23-.09-.34-.14-.29-.13-.58-.26-.86-.42-.46-.23-.91-.49-1.35-.77-.22-.14-.44-.3-.66-.45,.05,.04,.09,.08,.14,.12,.47,.39,.96,.75,1.47,1.08,.44,.28,.88,.54,1.35,.77,.28,.15,.57,.29,.86,.42,.11,.05,.23,.1,.34,.14,.15,.06,.3,.12,.45,.17,.15,.06,.31,.11,.46,.16,2.42,.82,5.07,1.05,7.76,.56,2.44-.45,4.64-1.45,6.5-2.84,.11-.08,.22-.16,.32-.25,.07-.05,.14-.11,.21-.17,.54-.45,1.05-.93,1.53-1.44,.17-.18,.34-.37,.5-.57,.46-.54,.88-1.12,1.25-1.72,.18-.29,.36-.58,.52-.88l.1-.18c.04-.08,.09-.17,.13-.25,.05-.1,.1-.19,.14-.29,.42-.88,.76-1.8,1.01-2.75,.25-.97,.41-1.97,.48-2.99,.06-1.02,.02-2.05-.13-3.09-.03-.22-.06-.43-.1-.65-.04-.2-.08-.4-.12-.6Z"/></g></mask><linearGradient id="_ÂÁ_Ï_ÌÌ_È_ËÂÌÚ_102" x1="-9.08" y1="1.91" x2="-22.35" y2="-10.04" gradientTransform="translate(37.31 20.15) rotate(-10.45)" gradientUnits="userSpaceOnUse"><stop offset="0" stop-color="#fff"/><stop offset="1" stop-color="#fff"/></linearGradient><filter id="luminosity-noclip-3" x="8172.07" y="-8009.58" width="-32766" height="32766" color-interpolation-filters="sRGB" filterUnits="userSpaceOnUse"><feFlood flood-color="#fff" result="bg"/><feBlend in="SourceGraphic" in2="bg"/></filter><mask id="mask-3" x="8172.07" y="-8009.58" width="-32766" height="32766" maskUnits="userSpaceOnUse"/><linearGradient id="_ÂÁ_Ï_ÌÌ_È_ËÂÌÚ_156-2" x1="-64.26" y1="-232.94" x2="-63.07" y2="-224.25" gradientTransform="translate(258.82 210.1) rotate(-37.69) scale(1.15 1.36)" xlink:href="#_ÂÁ_Ï_ÌÌ_È_ËÂÌÚ_156"/><mask id="mask-2" x="1.06" y=".52" width="17.93" height="15.69" maskUnits="userSpaceOnUse"><g class="cls-8"><path class="cls-1" d="M18.26,2c1.96,2.53-.15,7.43-4.69,10.95-4.55,3.51-9.82,4.31-11.78,1.78C-.17,12.19,1.94,7.29,6.48,3.78,11.03,.26,16.31-.53,18.26,2Z"/></g></mask><linearGradient id="_ÂÁ_Ï_ÌÌ_È_ËÂÌÚ_102-2" x1="-64.26" y1="-232.94" x2="-63.07" y2="-224.25" gradientTransform="translate(258.82 210.1) rotate(-37.69) scale(1.15 1.36)" xlink:href="#_ÂÁ_Ï_ÌÌ_È_ËÂÌÚ_102"/></defs><g id="solar_system"><path class="cls-7" d="M30.77,12.7c.04,.22,.08,.45,.11,.67,.03,.19,.05,.37,.07,.56,.06,.53,.08,1.06,.09,1.58,0,.87-.07,1.73-.21,2.57-.04,.22-.08,.44-.12,.65-.04,.21-.09,.41-.14,.62-.08,.32-.17,.63-.27,.94-.2,.62-.44,1.23-.72,1.82-.09,.2-.19,.4-.3,.6,0,0,0,0,0,0-.23,.43-.47,.85-.73,1.26-.4,.62-.85,1.21-1.34,1.77-.49,.56-1.02,1.09-1.59,1.57-2.01,1.72-4.48,2.94-7.26,3.46-3.16,.58-6.27,.16-9.01-1.04-.08-.04-.16-.07-.24-.11-.48-.22-.95-.46-1.4-.73-.19-.11-.38-.22-.56-.35-.13-.09-.27-.17-.39-.27-.2-.14-.4-.28-.6-.43-.42-.32-.82-.66-1.2-1.02-.4-.38-.79-.78-1.15-1.19-.1-.11-.19-.22-.29-.34-.17-.21-.33-.41-.49-.63-.15-.2-.3-.41-.44-.63-.37-.56-.71-1.16-1.01-1.77-.17-.34-.32-.7-.47-1.06-.18-.46-.34-.93-.48-1.41-.02-.08-.05-.16-.07-.24-.06-.22-.11-.44-.16-.66-.05-.19-.08-.39-.12-.58-.05-.27-.09-.55-.13-.82-.06-.48-.1-.95-.12-1.42-.02-.44-.02-.87,0-1.31,.01-.26,.03-.51,.05-.76,.04-.4,.09-.79,.16-1.17,.1-.57,.23-1.13,.4-1.68,.3-1.02,.7-2.01,1.2-2.94,.65-1.22,1.47-2.35,2.42-3.36,.48-.51,1-.99,1.55-1.43,.95-.76,1.99-1.42,3.12-1.95,.68-.32,1.39-.59,2.12-.81,.54-.16,1.09-.3,1.66-.4,2.28-.42,4.54-.32,6.64,.22,.48,.12,.95,.27,1.41,.44,.86,.31,1.68,.69,2.47,1.15,.15,.09,.3,.18,.45,.27,.29,.18,.57,.37,.85,.57,.08,.06,.17,.12,.25,.18,.16,.11,.31,.23,.46,.35l.03,.02c.28,.23,.57,.48,.84,.73,.29,.27,.57,.55,.84,.85,.26,.28,.51,.58,.75,.88,.23,.29,.45,.59,.66,.9,.34,.49,.64,1.01,.92,1.55,.25,.48,.48,.98,.67,1.49,.15,.39,.29,.79,.41,1.19,.09,.28,.16,.57,.23,.86,.06,.26,.12,.52,.17,.79Z"/><path class="cls-13" d="M30.28,20.28c-.2,.62-.44,1.23-.72,1.82-.35,.12-.92,.32-1.64,.54-.11,.04-.23,.07-.35,.1-1.22,.36-2.77,.75-4.29,.95-1.65,.22-3.35,.14-4.63-.06-.19-.03-.36-.06-.53-.09-.28-.06-.54-.12-.76-.18-.18-.06-.34-.11-.47-.17-.22-.1-.35-.2-.37-.29-.05-.34,1.74-1.63,4.1-2.52,.11-.04,.23-.09,.35-.13,.76-.27,1.56-.48,2.38-.61,.15-.02,.29-.04,.44-.06,.14-.02,.27-.03,.41-.04,.86-.06,1.67-.05,2.39,0,.12,0,.23,.02,.35,.03,.33,.03,.64,.07,.93,.12,.18,.03,.36,.06,.53,.09,.85,.16,1.49,.36,1.86,.5Z"/><path class="cls-12" d="M30.77,12.7c.04,.22,.08,.45,.11,.67,.03,.19,.05,.37,.07,.56-2.77,.77-8.56,2.27-15.01,3.32-6.6,1.07-12.63,1.94-15.39,2.32-.06-.22-.11-.44-.16-.66-.05-.19-.08-.39-.12-.58-.05-.27-.09-.55-.13-.82-.06-.48-.1-.95-.12-1.42,.35,0,.8,0,1.34,0,.06,0,.12,0,.19,0,.37,0,.78-.01,1.22-.03,.06,0,.12,0,.19,0,1.23-.04,2.71-.11,4.39-.23h0s.08,0,.13-.01t0,0c2.44-.18,5.28-.46,8.34-.92,7.21-1.08,12.51-3.01,14.56-3.83,.09,.28,.16,.57,.23,.86,.06,.26,.12,.52,.17,.79Z"/><path class="cls-12" d="M31.03,15.5c0,.87-.07,1.73-.21,2.57-2.37-.44-6.7-.83-12.76,.22-.15,.02-.29,.05-.43,.08l-.27,.05c-.53,.1-1.04,.21-1.55,.32-.09,.02-.18,.04-.27,.06-8.03,1.85-12.85,5.16-12.97,5.25-.37-.56-.71-1.16-1.01-1.77,3.25-1.17,10.15-3.54,15.93-4.74,5.44-1.13,10.76-1.75,13.54-2.03Z"/><path class="cls-14" d="M19.64,21.89c-.18-.77,6.15-2.27,7.17-.94,1.02,1.33-6.76,2.66-7.17,.94Z"/><path class="cls-12" d="M30.69,18.72c-.04,.21-.09,.41-.14,.62-.94-.32-2.94-.77-6-.37-4.42,.58-12.48,4.89-16.08,6.54-1.65,.75-2.8,1.13-3.56,1.32-.4-.38-.79-.78-1.15-1.19,.62-.12,1.35-.27,2.17-.47,.06-.01,.12-.03,.18-.04,.38-.09,.78-.2,1.2-.31,.06-.02,.12-.03,.18-.05,1.42-.39,3-.9,4.6-1.55,5.36-2.17,8.49-3.91,12.12-4.71,2.71-.6,5.32-.08,6.48,.22Z"/><path class="cls-12" d="M29.26,22.7c-.23,.43-.47,.85-.73,1.26-.79,.33-1.86,.68-3.2,.91-3.28,.56-7.48-.23-10.48,.15-2.82,.36-7.57,2.95-8.13,3.26-.2-.14-.4-.28-.6-.43,1.84-.83,5.81-2.55,8.7-3.1,3.87-.74,7.5-.34,10.33-.7,1.68-.22,3.18-.86,4.12-1.35Z"/><path class="cls-12" d="M28.36,6.81c-2.36,.99-7.1,2.8-12.98,4.14-5.96,1.37-12.05,1.76-15.15,1.88,.1-.57,.23-1.13,.4-1.68,2.9,.15,9,.26,14.62-.93,5.34-1.13,10.06-3.17,12.45-4.31,.23,.29,.45,.59,.66,.9Z"/><path class="cls-13" d="M29.96,9.85c-2.17,.66-7.26,2.13-13.64,3.43C9.62,14.66,2.68,14.79,.02,14.78c.01-.26,.03-.51,.05-.76,2.18,.01,8.35-.09,16.33-1.46,7.15-1.23,11.17-3.17,12.89-4.19,.25,.48,.48,.98,.67,1.49Z"/><path class="cls-13" d="M26.95,5.03c-2.15,1.48-6.66,4.11-12.14,4.51-2.54,.18-5.07,.03-7.32-.26-.55-.07-1.08-.15-1.6-.23-1.6-.26-3-.57-4.07-.84,.65-1.22,1.47-2.35,2.42-3.36,2.46,1.04,6.96,2.65,10.96,2.41,3.85-.24,7.51-2.59,9.57-4.18,.16,.11,.31,.23,.46,.35l.03,.02c.28,.23,.57,.48,.84,.73,.29,.27,.57,.55,.84,.85Z"/><path class="cls-13" d="M23.69,2.33c-1.11,.98-3.2,2.24-6.86,2.64-4.46,.48-8.87-.79-11.02-1.55,.95-.76,1.99-1.42,3.12-1.95,1.52,.78,4.43,1.98,7.11,1.49,2.01-.37,3.64-1.27,4.73-2.05,.86,.31,1.68,.69,2.47,1.15,.15,.09,.3,.18,.45,.27Z"/><path class="cls-13" d="M27.18,25.73c-.49,.56-1.02,1.09-1.59,1.57-2.35-.26-6.7-.64-9.67-.27-2.81,.36-5.41,1.71-6.84,2.58-.48-.22-.95-.46-1.4-.73,2.1-.8,5.82-2.02,9.61-2.34,4.23-.36,8.14-.67,9.9-.81Z"/><path class="cls-13" d="M13.31,17.89c.19,.14-5.13,1.41-7.98,2.22-1.7,.48-3.26,.87-4.24,1.1-.18-.46-.34-.93-.48-1.41,1.77-.2,5.16-.59,7.42-.93,3.17-.49,5.1-1.12,5.29-.97Z"/><path class="cls-13" d="M16.47,23.37c.04,.22-.11,.43-.33,.47s-.43-.11-.47-.33c-.04-.22,.11-.43,.33-.47,.22-.04,.43,.11,.47,.33Z"/><path class="cls-13" d="M8.78,22.39c.04,.22-.11,.43-.33,.47-.22,.04-.43-.11-.47-.33-.04-.22,.11-.43,.33-.47,.22-.04,.43,.11,.47,.33Z"/><path class="cls-13" d="M28.36,15.18c.04,.22-.11,.43-.33,.47-.22,.04-.43-.11-.47-.33-.04-.22,.11-.43,.33-.47,.22-.04,.43,.11,.47,.33Z"/><path class="cls-13" d="M25.93,12.03c.04,.22-.11,.43-.33,.47-.22,.04-.43-.11-.47-.33-.04-.22,.11-.43,.33-.47,.22-.04,.43,.11,.47,.33Z"/><path class="cls-13" d="M16.73,1.62c.04,.22-.11,.43-.33,.47-.22,.04-.43-.11-.47-.33-.04-.22,.11-.43,.33-.47,.22-.04,.43,.11,.47,.33Z"/><path class="cls-13" d="M11.71,5.81c.04,.22-.11,.43-.33,.47-.22,.04-.43-.11-.47-.33-.04-.22,.11-.43,.33-.47,.22-.04,.43,.11,.47,.33Z"/><path class="cls-13" d="M27.09,8.29c.04,.22-.11,.43-.33,.47-.22,.04-.43-.11-.47-.33-.04-.22,.11-.43,.33-.47,.22-.04,.43,.11,.47,.33Z"/><path class="cls-13" d="M24.94,5.89c.04,.22-.11,.43-.33,.47-.22,.04-.43-.11-.47-.33-.04-.22,.11-.43,.33-.47,.22-.04,.43,.11,.47,.33Z"/><path class="cls-13" d="M24.54,9.74c.04,.22-.11,.43-.33,.47s-.43-.11-.47-.33c-.04-.22,.11-.43,.33-.47,.22-.04,.43,.11,.47,.33Z"/><path class="cls-13" d="M22.67,4.08c.04,.22-.11,.43-.33,.47-.22,.04-.43-.11-.47-.33-.04-.22,.11-.43,.33-.47,.22-.04,.43,.11,.47,.33Z"/><path class="cls-13" d="M17.45,11.46c.04,.22-.11,.43-.33,.47-.22,.04-.43-.11-.47-.33-.04-.22,.11-.43,.33-.47,.22-.04,.43,.11,.47,.33Z"/><path class="cls-13" d="M10.5,12.74c.04,.22-.11,.43-.33,.47-.22,.04-.43-.11-.47-.33-.04-.22,.11-.43,.33-.47,.22-.04,.43,.11,.47,.33Z"/><path class="cls-13" d="M7.78,15.33c.04,.22-.11,.43-.33,.47-.22,.04-.43-.11-.47-.33-.04-.22,.11-.43,.33-.47s.43,.11,.47,.33Z"/><path class="cls-13" d="M6.35,23.25c.04,.22-.11,.43-.33,.47-.22,.04-.43-.11-.47-.33-.04-.22,.11-.43,.33-.47,.22-.04,.43,.11,.47,.33Z"/><path class="cls-13" d="M13.53,1.8c.04,.22-.11,.43-.33,.47-.22,.04-.43-.11-.47-.33-.04-.22,.11-.43,.33-.47,.22-.04,.43,.11,.47,.33Z"/><path class="cls-13" d="M14.92,6.23c.04,.22-.11,.43-.33,.47-.22,.04-.43-.11-.47-.33-.04-.22,.11-.43,.33-.47,.22-.04,.43,.11,.47,.33Z"/><path class="cls-12" d="M17.73,18.68c.11,.6-.29,1.18-.89,1.29-.6,.11-1.18-.29-1.29-.89-.11-.6,.29-1.18,.89-1.29,.6-.11,1.18,.29,1.29,.89Z"/><path class="cls-13" d="M17.47,18.73c.09,.46-.22,.91-.68,.99-.46,.09-.91-.22-.99-.68s.22-.91,.68-.99c.46-.09,.91,.22,.99,.68Z"/><path class="cls-12" d="M7.53,24.87c.08,.44-.21,.86-.65,.94-.44,.08-.86-.21-.94-.65-.08-.44,.21-.86,.65-.94,.44-.08,.86,.21,.94,.65Z"/><path class="cls-13" d="M7.34,24.91c.06,.34-.16,.66-.5,.72-.34,.06-.66-.16-.72-.5-.06-.34,.16-.66,.5-.72,.34-.06,.66,.16,.72,.5Z"/><path class="cls-12" d="M2.95,16.01c.08,.44-.21,.86-.65,.94-.44,.08-.86-.21-.94-.65-.08-.44,.21-.86,.65-.94,.44-.08,.86,.21,.94,.65Z"/><path class="cls-13" d="M2.76,16.04c.06,.34-.16,.66-.5,.72-.34,.06-.66-.16-.72-.5-.06-.34,.16-.66,.5-.72,.34-.06,.66,.16,.72,.5Z"/><path class="cls-13" d="M5.05,9.86c.08,.45-.21,.88-.66,.96-.45,.08-.88-.21-.96-.66s.21-.88,.66-.96,.88,.21,.96,.66Z"/><path class="cls-13" d="M7.53,8.84c.08,.45-.21,.88-.66,.96s-.88-.21-.96-.66,.21-.88,.66-.96,.88,.21,.96,.66Z"/><path class="cls-13" d="M9.54,23.2c.02,.11-.05,.22-.16,.24-.11,.02-.22-.05-.24-.16-.02-.11,.05-.22,.16-.24,.11-.02,.22,.05,.24,.16Z"/><path class="cls-13" d="M14.85,26.21c.02,.11-.05,.22-.16,.24-.11,.02-.22-.05-.24-.16s.05-.22,.16-.24c.11-.02,.22,.05,.24,.16Z"/><path class="cls-13" d="M11.26,28.99c.02,.11-.05,.22-.16,.24-.11,.02-.22-.05-.24-.16-.02-.11,.05-.22,.16-.24,.11-.02,.22,.05,.24,.16Z"/><path class="cls-13" d="M29.52,14.94c.02,.11-.05,.22-.16,.24-.11,.02-.22-.05-.24-.16-.02-.11,.05-.22,.16-.24,.11-.02,.22,.05,.24,.16Z"/><path class="cls-13" d="M23.21,12.66c.02,.11-.05,.22-.16,.24-.11,.02-.22-.05-.24-.16-.02-.11,.05-.22,.16-.24,.11-.02,.22,.05,.24,.16Z"/><path class="cls-13" d="M17.47,23.88c.03,.15-.07,.29-.22,.32-.15,.03-.29-.07-.32-.22s.07-.29,.22-.32c.15-.03,.29,.07,.32,.22Z"/><path class="cls-13" d="M18.65,23.6c.03,.15-.07,.29-.22,.32-.15,.03-.29-.07-.32-.22-.03-.15,.07-.29,.22-.32,.15-.03,.29,.07,.32,.22Z"/><path class="cls-13" d="M19.01,28.71c.03,.15-.07,.29-.22,.32-.15,.03-.29-.07-.32-.22-.03-.15,.07-.29,.22-.32s.29,.07,.32,.22Z"/><path class="cls-13" d="M15.59,29.85c.03,.15-.07,.29-.22,.32-.15,.03-.29-.07-.32-.22-.03-.15,.07-.29,.22-.32,.15-.03,.29,.07,.32,.22Z"/><path class="cls-13" d="M17.37,23.34c.03,.15-.07,.29-.22,.32-.15,.03-.29-.07-.32-.22-.03-.15,.07-.29,.22-.32,.15-.03,.29,.07,.32,.22Z"/><path class="cls-13" d="M23.83,19.4c.03,.15-.07,.29-.22,.32-.15,.03-.29-.07-.32-.22-.03-.15,.07-.29,.22-.32,.15-.03,.29,.07,.32,.22Z"/><path class="cls-13" d="M27.07,19.29c.03,.15-.07,.29-.22,.32-.15,.03-.29-.07-.32-.22-.03-.15,.07-.29,.22-.32,.15-.03,.29,.07,.32,.22Z"/><path class="cls-13" d="M28.43,19.62c.03,.15-.07,.29-.22,.32-.15,.03-.29-.07-.32-.22-.03-.15,.07-.29,.22-.32,.15-.03,.29,.07,.32,.22Z"/><path class="cls-13" d="M28.07,22.84c.03,.15-.07,.29-.22,.32-.15,.03-.29-.07-.32-.22-.03-.15,.07-.29,.22-.32,.15-.03,.29,.07,.32,.22Z"/><path class="cls-13" d="M21.61,28.51c.07,.4-.19,.79-.6,.87-.4,.07-.79-.19-.87-.6-.07-.4,.19-.79,.6-.87s.79,.19,.87,.6Z"/><path class="cls-13" d="M16.32,22.56c.02,.11-.05,.22-.16,.24-.11,.02-.22-.05-.24-.16-.02-.11,.05-.22,.16-.24,.11-.02,.22,.05,.24,.16Z"/><path class="cls-13" d="M20.98,20.21c.02,.11-.05,.22-.16,.24-.11,.02-.22-.05-.24-.16-.02-.11,.05-.22,.16-.24,.11-.02,.22,.05,.24,.16Z"/><path class="cls-13" d="M9.97,20.86c.02,.11-.05,.22-.16,.24-.11,.02-.22-.05-.24-.16-.02-.11,.05-.22,.16-.24,.11-.02,.22,.05,.24,.16Z"/><path class="cls-13" d="M20.22,25.63c.02,.11-.05,.22-.16,.24-.11,.02-.22-.05-.24-.16-.02-.11,.05-.22,.16-.24,.11-.02,.22,.05,.24,.16Z"/><path class="cls-13" d="M17.13,22.01c.01,.06-.03,.12-.09,.13s-.12-.03-.13-.09c-.01-.06,.03-.12,.09-.13s.12,.03,.13,.09Z"/><path class="cls-13" d="M19.03,29.74c.01,.06-.03,.12-.09,.13-.06,.01-.12-.03-.13-.09-.01-.06,.03-.12,.09-.13,.06-.01,.12,.03,.13,.09Z"/><path class="cls-13" d="M20.14,19.19c.01,.06-.03,.12-.09,.13-.06,.01-.12-.03-.13-.09-.01-.06,.03-.12,.09-.13s.12,.03,.13,.09Z"/><path class="cls-13" d="M8.91,23.11c.01,.06-.03,.12-.09,.13-.06,.01-.12-.03-.13-.09-.01-.06,.03-.12,.09-.13,.06-.01,.12,.03,.13,.09Z"/><path class="cls-13" d="M29.04,15.17c.01,.06-.03,.12-.09,.13s-.12-.03-.13-.09c-.01-.06,.03-.12,.09-.13,.06-.01,.12,.03,.13,.09Z"/><path class="cls-13" d="M14.56,23.52c.02,.11-.05,.22-.16,.24-.11,.02-.22-.05-.24-.16-.02-.11,.05-.22,.16-.24,.11-.02,.22,.05,.24,.16Z"/><path class="cls-13" d="M15.74,22.78c.02,.11-.05,.22-.16,.24-.11,.02-.22-.05-.24-.16-.02-.11,.05-.22,.16-.24,.11-.02,.22,.05,.24,.16Z"/><path class="cls-13" d="M17.35,29.29c.02,.11-.05,.22-.16,.24-.11,.02-.22-.05-.24-.16-.02-.11,.05-.22,.16-.24,.11-.02,.22,.05,.24,.16Z"/><path class="cls-13" d="M5.72,24.3c.02,.11-.05,.22-.16,.24-.11,.02-.22-.05-.24-.16-.02-.11,.05-.22,.16-.24,.11-.02,.22,.05,.24,.16Z"/><path class="cls-13" d="M13.27,14.31c.02,.11-.05,.22-.16,.24-.11,.02-.22-.05-.24-.16-.02-.11,.05-.22,.16-.24,.11-.02,.22,.05,.24,.16Z"/><path class="cls-13" d="M26.95,11.71c.02,.11-.05,.22-.16,.24-.11,.02-.22-.05-.24-.16-.02-.11,.05-.22,.16-.24,.11-.02,.22,.05,.24,.16Z"/><path class="cls-13" d="M29.82,19.65c.02,.11-.05,.22-.16,.24-.11,.02-.22-.05-.24-.16-.02-.11,.05-.22,.16-.24,.11-.02,.22,.05,.24,.16Z"/><path class="cls-13" d="M8.17,23.37c.02,.11-.05,.22-.16,.24-.11,.02-.22-.05-.24-.16-.02-.11,.05-.22,.16-.24,.11-.02,.22,.05,.24,.16Z"/><path class="cls-13" d="M12.08,28.58c.02,.11-.05,.22-.16,.24-.11,.02-.22-.05-.24-.16s.05-.22,.16-.24c.11-.02,.22,.05,.24,.16Z"/><path class="cls-13" d="M21.33,13.36c.02,.11-.05,.22-.16,.24s-.22-.05-.24-.16c-.02-.11,.05-.22,.16-.24,.11-.02,.22,.05,.24,.16Z"/><path class="cls-13" d="M16.11,13.79c.02,.11-.05,.22-.16,.24-.11,.02-.22-.05-.24-.16-.02-.11,.05-.22,.16-.24,.11-.02,.22,.05,.24,.16Z"/><path class="cls-13" d="M30.31,14.93c.02,.11-.05,.22-.16,.24-.11,.02-.22-.05-.24-.16-.02-.11,.05-.22,.16-.24,.11-.02,.22,.05,.24,.16Z"/><path class="cls-13" d="M17.66,5.93c.02,.11-.05,.22-.16,.24-.11,.02-.22-.05-.24-.16-.02-.11,.05-.22,.16-.24,.11-.02,.22,.05,.24,.16Z"/><path class="cls-13" d="M20.85,5.14c.02,.11-.05,.22-.16,.24-.11,.02-.22-.05-.24-.16-.02-.11,.05-.22,.16-.24,.11-.02,.22,.05,.24,.16Z"/><path class="cls-14" d="M30.77,12.7c.04,.22,.08,.45,.11,.67-2.66,.82-7.91,2.32-13.78,3.31-6.1,1.02-13.23,1.85-16.71,2.23-.05-.19-.08-.39-.12-.58-.05-.27-.09-.55-.13-.82,3.92-.24,11.81-.84,17.65-1.98,5.87-1.15,10.65-2.8,12.82-3.61,.06,.26,.12,.52,.17,.79Z"/><path class="cls-12" d="M19.35,.48c-.56,.43-1.51,1.05-2.64,1.35-.22,.06-.45,.11-.68,.14-.37,.05-.76,.05-1.15,0-.48-.06-.95-.17-1.39-.29-.18-.05-.36-.11-.52-.17-.76-.26-1.42-.58-1.92-.85,.54-.16,1.09-.3,1.66-.4,2.28-.42,4.54-.32,6.64,.22Z"/><path class="cls-11" d="M30.76,12.73c.04,.22,.07,.43,.1,.65,.15,1.04,.19,2.07,.13,3.09-.06,1.02-.22,2.02-.48,2.99-.25,.95-.59,1.87-1.01,2.75-.04,.1-.09,.19-.14,.29-.04,.08-.08,.17-.13,.25l-.1,.18c-.16,.3-.33,.59-.52,.88-.38,.6-.79,1.18-1.25,1.72-.16,.19-.33,.38-.5,.57-.47,.51-.98,.99-1.53,1.44-.07,.06-.14,.12-.21,.17-.1,.09-.21,.17-.32,.25-1.86,1.4-4.06,2.4-6.5,2.84-2.69,.5-5.34,.26-7.76-.56-.15-.05-.31-.1-.46-.16-.15-.05-.3-.11-.45-.17-.11-.05-.23-.09-.34-.14-.29-.13-.58-.26-.86-.42-.46-.23-.91-.49-1.35-.77-.51-.33-1-.69-1.47-1.08-.2-.17-.4-.34-.59-.51-.29-.26-.57-.54-.83-.82-.25-.26-.48-.53-.7-.8-.46-.56-.88-1.16-1.26-1.78,2.93-.17,8.87-.84,15.71-3.51,7.29-2.85,9.83-9.64,10.64-12.86,.29,.45,.55,.91,.79,1.4,.41,.81,.75,1.67,1.01,2.57,0,0,0,0,0,.01,.09,.31,.17,.63,.25,.95,.04,.2,.09,.4,.12,.6Z"/><g class="cls-4"><path class="cls-6" d="M30.65,12.13c-.07-.32-.15-.64-.25-.95,0,0,0-.01,0-.01-.26-.9-.6-1.76-1.01-2.57-.24-.48-.51-.95-.79-1.4-.19-.3-.39-.59-.6-.88-.12-.16-.24-.32-.37-.48h0c-.19-.24-.39-.47-.59-.69l-.2-.21h0c-.23-.25-.48-.49-.73-.73-.07-.07-.14-.13-.21-.2-.2-.18-.41-.36-.62-.53l-.03-.02c-.22-.18-.45-.35-.68-.52,.13,.11,.26,.22,.38,.33,.07,.07,.14,.13,.21,.2,.25,.23,.49,.48,.73,.72h0s.2,.22,.2,.22c.2,.22,.4,.45,.59,.69h0c.13,.16,.25,.32,.37,.48,.21,.28,.41,.58,.6,.88,.29,.45,.55,.91,.79,1.4,.41,.81,.75,1.67,1.01,2.57,0,0,0,0,0,.01,.09,.31,.17,.63,.25,.95,.04,.2,.09,.4,.12,.6,.04,.22,.07,.43,.1,.65,.15,1.04,.19,2.08,.13,3.09-.06,1.02-.22,2.02-.48,2.99-.25,.95-.59,1.87-1.01,2.75-.04,.1-.09,.19-.14,.29-.04,.08-.08,.17-.13,.25l-.1,.18c-.16,.3-.33,.59-.52,.88-.38,.6-.79,1.18-1.25,1.72-.16,.19-.33,.38-.5,.57-.47,.51-.98,.99-1.53,1.44-.07,.06-.14,.12-.21,.17-.1,.09-.21,.17-.32,.25-1.86,1.4-4.06,2.4-6.5,2.84-2.69,.5-5.34,.26-7.76-.56-.15-.05-.31-.1-.46-.16-.15-.05-.3-.11-.45-.17-.11-.05-.23-.09-.34-.14-.29-.13-.58-.26-.86-.42-.46-.23-.91-.49-1.35-.77-.22-.14-.44-.3-.66-.45,.05,.04,.09,.08,.14,.12,.47,.39,.96,.75,1.47,1.08,.44,.28,.88,.54,1.35,.77,.28,.15,.57,.29,.86,.42,.11,.05,.23,.1,.34,.14,.15,.06,.3,.12,.45,.17,.15,.06,.31,.11,.46,.16,2.42,.82,5.07,1.05,7.76,.56,2.44-.45,4.64-1.45,6.5-2.84,.11-.08,.22-.16,.32-.25,.07-.05,.14-.11,.21-.17,.54-.45,1.05-.93,1.53-1.44,.17-.18,.34-.37,.5-.57,.46-.54,.88-1.12,1.25-1.72,.18-.29,.36-.58,.52-.88l.1-.18c.04-.08,.09-.17,.13-.25,.05-.1,.1-.19,.14-.29,.42-.88,.76-1.8,1.01-2.75,.25-.97,.41-1.97,.48-2.99,.06-1.02,.02-2.05-.13-3.09-.03-.22-.06-.43-.1-.65-.04-.2-.08-.4-.12-.6Z"/></g><g class="cls-9"><path class="cls-3" d="M18.26,2c1.96,2.53-.15,7.43-4.69,10.95-4.55,3.51-9.82,4.31-11.78,1.78C-.17,12.19,1.94,7.29,6.48,3.78,11.03,.26,16.31-.53,18.26,2Z"/></g><path class="cls-5" d="M11.99,2.89c.38,.49-.83,2.06-2.7,3.51s-3.7,2.22-4.08,1.73c-.38-.49,.83-2.06,2.7-3.51,1.87-1.45,3.7-2.22,4.08-1.73Z"/><path class="cls-5" d="M4.76,8.94c.27,.34,.2,.84-.14,1.11-.34,.27-.84,.2-1.11-.14-.27-.34-.2-.84,.14-1.11,.34-.27,.84-.2,1.11,.14Z"/></g></svg>