<?xml version="1.0" encoding="UTF-8"?><svg id="Layer_2" xmlns="http://www.w3.org/2000/svg" xmlns:xlink="http://www.w3.org/1999/xlink" viewBox="0 0 41 39.67"><defs><style>.cls-1{fill:url(#_ÂÁ_Ï_ÌÌ_È_ËÂÌÚ_156-2);}.cls-1,.cls-2{mix-blend-mode:multiply;}.cls-3{fill:url(#_ÂÁ_Ï_ÌÌ_È_ËÂÌÚ_354-2);}.cls-4{mask:url(#mask);}.cls-5{fill:#fff;}.cls-6{fill:url(#_ÂÁ_Ï_ÌÌ_È_ËÂÌÚ_102-2);opacity:.67;}.cls-7{fill:#8c0000;opacity:.2;}.cls-8{fill:url(#_ÂÁ_Ï_ÌÌ_È_ËÂÌÚ_354);}.cls-9{fill:url(#_ÂÁ_Ï_ÌÌ_È_ËÂÌÚ_349);}.cls-10{fill:url(#_ÂÁ_Ï_ÌÌ_È_ËÂÌÚ_102);}.cls-11{mask:url(#mask-3);}.cls-12{mask:url(#mask-2);}.cls-13{mask:url(#mask-1);}.cls-14{fill:#fffc86;opacity:.53;}.cls-15{fill:#b00000;opacity:.25;}.cls-2{fill:url(#_ÂÁ_Ï_ÌÌ_È_ËÂÌÚ_156);}</style><radialGradient id="_ÂÁ_Ï_ÌÌ_È_ËÂÌÚ_349" cx="-277.41" cy="-26.69" fx="-277.41" fy="-26.69" r="19.31" gradientTransform="translate(236.74 -150.73) rotate(-42.65)" gradientUnits="userSpaceOnUse"><stop offset=".33" stop-color="#ffd10b"/><stop offset="1" stop-color="#c23700"/></radialGradient><filter id="luminosity-noclip-2" x="7986.53" y="-7969.44" width="-32766" height="32766" color-interpolation-filters="sRGB" filterUnits="userSpaceOnUse"><feFlood flood-color="#fff" result="bg"/><feBlend in="SourceGraphic" in2="bg"/></filter><mask id="mask-1" x="7986.53" y="-7969.44" width="-32766" height="32766" maskUnits="userSpaceOnUse"/><linearGradient id="_ÂÁ_Ï_ÌÌ_È_ËÂÌÚ_156" x1="-269.5" y1="-198.46" x2="-268.63" y2="-192.07" gradientTransform="translate(403.32 -108.02) rotate(-57.9) scale(1.15 1.36)" gradientUnits="userSpaceOnUse"><stop offset="0" stop-color="#fff"/><stop offset="1" stop-color="#000"/></linearGradient><mask id="mask" x="7.21" y="6.79" width="10.89" height="13.76" maskUnits="userSpaceOnUse"><g class="cls-13"><path class="cls-2" d="M16.73,7.17c2,1.25,1.79,5.17-.46,8.76-2.25,3.59-5.69,5.48-7.69,4.23-2-1.25-1.79-5.17,.46-8.76,2.25-3.59,5.69-5.48,7.69-4.23Z"/></g></mask><linearGradient id="_ÂÁ_Ï_ÌÌ_È_ËÂÌÚ_102" x1="-269.5" y1="-198.46" x2="-268.63" y2="-192.07" gradientTransform="translate(403.32 -108.02) rotate(-57.9) scale(1.15 1.36)" gradientUnits="userSpaceOnUse"><stop offset="0" stop-color="#fff"/><stop offset="1" stop-color="#fff"/></linearGradient><filter id="luminosity-noclip-3" x="7986.53" y="-7969.44" width="-32766" height="32766" color-interpolation-filters="sRGB" filterUnits="userSpaceOnUse"><feFlood flood-color="#fff" result="bg"/><feBlend in="SourceGraphic" in2="bg"/></filter><mask id="mask-3" x="7986.53" y="-7969.44" width="-32766" height="32766" maskUnits="userSpaceOnUse"/><linearGradient id="_ÂÁ_Ï_ÌÌ_È_ËÂÌÚ_156-2" x1="-265.19" y1="-14.98" x2="-275.96" y2="-24.69" gradientTransform="translate(236.74 -150.73) rotate(-42.65)" xlink:href="#_ÂÁ_Ï_ÌÌ_È_ËÂÌÚ_156"/><mask id="mask-2" x="17.19" y="5.49" width="14.36" height="25.16" maskUnits="userSpaceOnUse"><g class="cls-11"><path class="cls-1" d="M27.87,9.17c-.19-.19-.38-.37-.58-.55,0,0,0,0,0,0-.57-.5-1.17-.95-1.8-1.33-.38-.23-.76-.43-1.15-.62-.26-.12-.53-.24-.79-.34-.15-.06-.31-.11-.46-.17h0c-.23-.08-.47-.15-.7-.22l-.23-.06h0c-.27-.07-.54-.13-.81-.18-.08-.01-.15-.03-.23-.04-.22-.04-.44-.07-.66-.1h-.03c-.23-.03-.46-.05-.69-.06,.14,.02,.27,.04,.4,.06,.08,.01,.15,.03,.23,.04,.27,.05,.55,.11,.81,.18h0s.23,.06,.23,.06c.23,.07,.47,.14,.7,.22h0c.15,.06,.31,.11,.46,.17,.27,.1,.53,.22,.79,.34,.39,.18,.78,.39,1.15,.62,.63,.38,1.24,.83,1.8,1.33,0,0,0,0,0,0,.2,.17,.39,.36,.58,.55,.12,.12,.23,.24,.34,.36,.12,.13,.24,.26,.35,.4,.55,.65,1.03,1.34,1.43,2.07,.4,.73,.72,1.49,.97,2.26,.24,.76,.41,1.54,.5,2.33,.01,.09,.02,.17,.03,.26,0,.08,.02,.15,.02,.23v.16c.03,.28,.04,.55,.04,.83,0,.58-.04,1.15-.12,1.73-.03,.2-.06,.41-.1,.61-.1,.56-.25,1.11-.43,1.65-.02,.07-.05,.14-.07,.21-.03,.1-.07,.21-.11,.31-.67,1.76-1.75,3.4-3.23,4.77-1.63,1.5-3.56,2.49-5.57,2.98-.13,.03-.26,.06-.39,.09-.13,.03-.25,.05-.38,.07-.1,.02-.2,.03-.29,.05-.26,.04-.51,.07-.77,.09-.42,.04-.84,.06-1.26,.05-.22,0-.43-.01-.65-.03,.05,0,.1,.02,.15,.02,.49,.06,.98,.1,1.48,.1,.42,0,.84-.01,1.26-.05,.26-.02,.51-.05,.77-.09,.1-.02,.2-.03,.29-.05,.13-.02,.26-.05,.38-.07,.13-.02,.26-.05,.39-.09,2.02-.48,3.94-1.47,5.57-2.98,1.48-1.36,2.56-3,3.23-4.77,.04-.1,.08-.21,.11-.31,.03-.07,.05-.14,.07-.21,.18-.54,.32-1.09,.43-1.65,.04-.2,.07-.4,.1-.61,.08-.57,.12-1.15,.12-1.73,0-.28,0-.55-.03-.83v-.16c-.02-.07-.02-.15-.03-.23,0-.09-.02-.17-.03-.26-.09-.79-.26-1.56-.5-2.33-.25-.78-.57-1.53-.97-2.26-.4-.72-.87-1.41-1.43-2.07-.11-.14-.23-.27-.35-.4-.11-.12-.23-.24-.34-.36Z"/></g></mask><linearGradient id="_ÂÁ_Ï_ÌÌ_È_ËÂÌÚ_102-2" x1="-265.19" y1="-14.98" x2="-275.96" y2="-24.69" gradientTransform="translate(236.74 -150.73) rotate(-42.65)" xlink:href="#_ÂÁ_Ï_ÌÌ_È_ËÂÌÚ_102"/><radialGradient id="_ÂÁ_Ï_ÌÌ_È_ËÂÌÚ_354" cx="-184.64" cy="46.71" fx="-184.64" fy="46.71" r="20.17" gradientTransform="translate(150.84 -117.99) rotate(-30.66)" gradientUnits="userSpaceOnUse"><stop offset=".33" stop-color="#ff1c00"/><stop offset="1" stop-color="#780000"/></radialGradient><radialGradient id="_ÂÁ_Ï_ÌÌ_È_ËÂÌÚ_354-2" cx="-182.46" cy="51.9" fx="-182.46" fy="51.9" r="16.74" xlink:href="#_ÂÁ_Ï_ÌÌ_È_ËÂÌÚ_354"/></defs><g id="solar_system"><path class="cls-9" d="M28.22,9.49c.05,.05,.1,.11,.15,.16,.07,.08,.14,.17,.21,.25,.1,.12,.19,.23,.29,.35,.18,.23,.35,.46,.51,.69,.08,.12,.16,.24,.24,.36,.18,.28,.35,.57,.5,.87,.17,.32,.32,.64,.45,.96,0,0,0,.02,.01,.03,.07,.17,.14,.33,.2,.5,.06,.16,.12,.32,.17,.49,.08,.25,.15,.51,.22,.76,.08,.32,.15,.64,.2,.96,.03,.2,.07,.4,.09,.6,.02,.18,.04,.36,.06,.55,0,0,0,0,0,0,.03,.39,.05,.79,.04,1.18,0,.21-.01,.42-.03,.63h0c-.01,.28-.04,.56-.08,.83-.01,.11-.03,.23-.05,.34-.09,.6-.23,1.19-.41,1.77-.64,2.05-1.8,3.96-3.49,5.52-1.92,1.77-4.24,2.83-6.64,3.19-.07,0-.14,.02-.21,.03-.2,.03-.41,.05-.61,.07-.22,.02-.44,.03-.67,.04h0c-.18,0-.36,0-.53,0-.13,0-.26,0-.39-.01-.2,0-.4-.02-.59-.04-.42-.04-.85-.1-1.27-.18-.44-.08-.88-.19-1.3-.33-.03,0-.06-.02-.09-.03-.09-.02-.17-.05-.26-.08-.21-.07-.41-.14-.61-.22-.19-.07-.38-.15-.57-.24-.3-.13-.59-.28-.88-.44-.2-.11-.39-.22-.58-.34-.13-.08-.26-.16-.39-.25-.13-.09-.26-.18-.39-.28-.15-.11-.3-.23-.45-.35-.17-.13-.33-.27-.49-.42-.05-.04-.1-.09-.15-.13-.14-.12-.27-.25-.4-.38,0,0-.02-.02-.03-.03-.1-.1-.21-.21-.31-.32-.15-.17-.3-.34-.44-.51-.15-.18-.29-.36-.42-.54-.1-.13-.19-.26-.28-.39-.2-.29-.39-.59-.56-.9-.1-.18-.2-.36-.29-.55-.04-.08-.08-.16-.11-.23-.1-.21-.2-.43-.28-.64-.07-.18-.14-.36-.21-.55-.09-.26-.18-.52-.25-.78-.13-.47-.24-.94-.32-1.42-.02-.14-.04-.27-.06-.41-.03-.24-.05-.47-.07-.71-.08-1.12-.01-2.25,.21-3.36,0-.03,.01-.05,.02-.08,.11-.53,.25-1.06,.43-1.58,.15-.44,.33-.87,.53-1.29,.22-.48,.48-.94,.77-1.39,.33-.51,.7-1.01,1.11-1.48,.3-.34,.62-.68,.97-.99,1.39-1.28,2.98-2.18,4.66-2.73,0,0,.01,0,.02,0,.38-.12,.76-.22,1.14-.31,.56-.12,1.12-.21,1.69-.25,.17-.01,.34-.02,.5-.03,.14,0,.29,0,.43,0,.27,0,.55,0,.83,.02,.08,0,.17,0,.25,.02,.16,.01,.31,.03,.47,.04h.03c.19,.03,.38,.05,.57,.09,.11,.02,.22,.04,.32,.06,.18,.03,.35,.07,.52,.11,.14,.03,.28,.07,.42,.11,.3,.08,.6,.17,.9,.28,.06,.02,.12,.04,.18,.07,.22,.08,.44,.17,.66,.26,.39,.17,.77,.36,1.15,.58,.05,.03,.11,.06,.16,.09,.38,.22,.75,.47,1.11,.73,.26,.19,.5,.39,.74,.6,.02,.02,.04,.03,.05,.05,.18,.16,.36,.32,.53,.49,.15,.15,.31,.31,.46,.47Z"/><path class="cls-7" d="M28.22,9.49c.05,.05,.1,.11,.15,.16-1.17,1.34-4.43,4.97-8.58,8.79-3.77,3.47-7.82,6.83-9.79,8.44-.1-.1-.21-.21-.31-.32-.15-.17-.3-.34-.44-.51-.15-.18-.29-.36-.42-.54,2.37-1.55,7.25-4.84,10.35-7.69,3.9-3.59,6.9-7.74,8-9.34,.02,.02,.04,.03,.05,.05,.18,.16,.36,.32,.53,.49,.15,.15,.31,.31,.46,.47Z"/><path class="cls-7" d="M30.57,13.13s0,.02,.01,.03c.07,.17,.14,.33,.2,.5,.06,.16,.12,.32,.17,.49,.08,.25,.15,.51,.22,.76,.08,.32,.15,.64,.2,.96-1.78,1.11-5.18,3.35-8.63,6.2-3.41,2.82-6.16,6.14-7.56,7.97-.09-.02-.17-.05-.26-.08-.21-.07-.41-.14-.61-.22-.19-.07-.38-.15-.57-.24-.3-.13-.59-.28-.88-.44,1.37-1.23,4.27-3.87,9.01-8.33,4.47-4.2,7.25-6.49,8.68-7.6Z"/><path class="cls-14" d="M25.17,7.06c-.96,1.39-3.49,4.74-8.06,8.95-3.56,3.28-7.16,5.86-9.52,7.43-.1-.21-.2-.43-.28-.64-.07-.18-.14-.36-.21-.55,2.33-1.4,5.88-3.79,9.26-7.06,3.78-3.67,5.97-7.09,7.01-8.97,.22,.08,.44,.17,.66,.26,.39,.17,.77,.36,1.15,.58Z"/><path class="cls-14" d="M21.86,5.77c-.79,1.23-2.92,4.21-6.98,7.77-3.37,2.96-6.49,5.24-8.35,6.52-.02-.14-.04-.27-.06-.41,1.58-1.04,4.57-3.17,8.08-6.41,3.71-3.41,5.65-6.28,6.46-7.64,.11,.02,.22,.04,.32,.06,.18,.03,.35,.07,.52,.11Z"/><path class="cls-14" d="M31.53,18.83c-.01,.28-.04,.55-.08,.83-1.2,.79-3.41,2.35-5.98,4.67-2.67,2.42-4.54,4.92-5.44,6.25-.22,.02-.44,.03-.67,.04h0c1.17-1.55,3.28-4.17,5.94-6.65,2.81-2.62,5.07-4.31,6.23-5.12Z"/><path class="cls-14" d="M29.38,10.94c.08,.12,.16,.24,.24,.36,.18,.28,.35,.57,.5,.87-1.55,1.3-5.04,4.24-9.56,8.2-4.53,3.97-7.42,6.84-8.65,8.09-.13-.09-.26-.18-.39-.28-.15-.11-.3-.23-.45-.35,1.32-1.24,3.93-3.69,8.8-8.21,5.63-5.23,8.35-7.66,9.52-8.68Z"/><path class="cls-7" d="M20.57,5.53c-1.01,.85-2.97,2.39-5.84,4.1-2.87,1.7-5.71,2.8-7.31,3.36,.22-.5,.47-.99,.75-1.45,.24-.4,.5-.78,.78-1.16,1.15-.35,2.75-.95,4.7-1.96,1.88-.97,3.18-2.04,4.03-2.93,.39-.04,.79-.06,1.18-.06,.57,0,1.14,.03,1.71,.1Z"/><path class="cls-15" d="M29.81,11.62c.09,.15,.18,.31,.26,.46,.41,.75,.73,1.53,.97,2.32,.24,.79,.4,1.6,.48,2.41,.08,.8,.08,1.59,0,2.38,0,.09-.01,.17-.02,.26,0,.08-.02,.15-.03,.23l-.02,.16c-.04,.27-.09,.55-.15,.82-.12,.56-.28,1.12-.47,1.66-.07,.19-.14,.38-.22,.57-.22,.52-.47,1.03-.76,1.52-.04,.06-.07,.13-.12,.19-.06,.09-.11,.19-.17,.28-1.02,1.59-2.42,2.96-4.15,3.99-1.91,1.13-4,1.7-6.07,1.75-.13,0-.26,0-.4,0-.13,0-.26,0-.39,0-.1,0-.2,0-.3-.01-.26-.02-.51-.04-.77-.08-.42-.05-.83-.12-1.24-.21-.48-.11-.96-.24-1.42-.41-.2-.07-.4-.14-.6-.22-.29-.12-.58-.25-.87-.39-.26-.13-.51-.27-.76-.41-.51-.3-1-.63-1.46-1.01,2.18-.95,6.52-3.13,10.98-7.08,4.76-4.22,4.79-10.1,4.5-12.79,.35,.26,.68,.54,1,.84,.54,.51,1.04,1.07,1.49,1.68,0,0,0,0,0,.01,.16,.21,.31,.43,.45,.65,.09,.14,.18,.28,.26,.42Z"/><g class="cls-4"><path class="cls-10" d="M16.73,7.17c2,1.25,1.79,5.17-.46,8.76-2.25,3.59-5.69,5.48-7.69,4.23-2-1.25-1.79-5.17,.46-8.76,2.25-3.59,5.69-5.48,7.69-4.23Z"/></g><path class="cls-5" d="M12.85,8.76c.43,.27-.05,1.81-1.08,3.43-1.02,1.63-2.2,2.73-2.62,2.46-.43-.27,.05-1.81,1.08-3.43,1.02-1.63,2.2-2.73,2.62-2.46Z"/><path class="cls-5" d="M9.04,15.4c.3,.19,.39,.58,.2,.88-.19,.3-.58,.39-.88,.2-.3-.19-.39-.58-.2-.88,.19-.3,.58-.39,.88-.2Z"/><g class="cls-12"><path class="cls-6" d="M27.87,9.17c-.19-.19-.38-.37-.58-.55,0,0,0,0,0,0-.57-.5-1.17-.95-1.8-1.33-.38-.23-.76-.43-1.15-.62-.26-.12-.53-.24-.79-.34-.15-.06-.31-.11-.46-.17h0c-.23-.08-.47-.15-.7-.22l-.23-.06h0c-.27-.07-.54-.13-.81-.18-.08-.01-.15-.03-.23-.04-.22-.04-.44-.07-.66-.1h-.03c-.23-.03-.46-.05-.69-.06,.14,.02,.27,.04,.4,.06,.08,.01,.15,.03,.23,.04,.27,.05,.55,.11,.81,.18h0s.23,.06,.23,.06c.23,.07,.47,.14,.7,.22h0c.15,.06,.31,.11,.46,.17,.27,.1,.53,.22,.79,.34,.39,.18,.78,.39,1.15,.62,.63,.38,1.24,.83,1.8,1.33,0,0,0,0,0,0,.2,.17,.39,.36,.58,.55,.12,.12,.23,.24,.34,.36,.12,.13,.24,.26,.35,.4,.55,.65,1.03,1.34,1.43,2.07,.4,.73,.72,1.49,.97,2.26,.24,.76,.41,1.54,.5,2.33,.01,.09,.02,.17,.03,.26,0,.08,.02,.15,.02,.23v.16c.03,.28,.04,.55,.04,.83,0,.58-.04,1.15-.12,1.73-.03,.2-.06,.41-.1,.61-.1,.56-.25,1.11-.43,1.65-.02,.07-.05,.14-.07,.21-.03,.1-.07,.21-.11,.31-.67,1.76-1.75,3.4-3.23,4.77-1.63,1.5-3.56,2.49-5.57,2.98-.13,.03-.26,.06-.39,.09-.13,.03-.25,.05-.38,.07-.1,.02-.2,.03-.29,.05-.26,.04-.51,.07-.77,.09-.42,.04-.84,.06-1.26,.05-.22,0-.43-.01-.65-.03,.05,0,.1,.02,.15,.02,.49,.06,.98,.1,1.48,.1,.42,0,.84-.01,1.26-.05,.26-.02,.51-.05,.77-.09,.1-.02,.2-.03,.29-.05,.13-.02,.26-.05,.38-.07,.13-.02,.26-.05,.39-.09,2.02-.48,3.94-1.47,5.57-2.98,1.48-1.36,2.56-3,3.23-4.77,.04-.1,.08-.21,.11-.31,.03-.07,.05-.14,.07-.21,.18-.54,.32-1.09,.43-1.65,.04-.2,.07-.4,.1-.61,.08-.57,.12-1.15,.12-1.73,0-.28,0-.55-.03-.83v-.16c-.02-.07-.02-.15-.03-.23,0-.09-.02-.17-.03-.26-.09-.79-.26-1.56-.5-2.33-.25-.78-.57-1.53-.97-2.26-.4-.72-.87-1.41-1.43-2.07-.11-.14-.23-.27-.35-.4-.11-.12-.23-.24-.34-.36Z"/></g><path class="cls-8" d="M40.84,.18c-.99-1.03-6.41,2.49-13.48,8.49l.42,.39c5.43-4.54,9.46-7.14,10.19-6.39,1.12,1.15-5.86,9.71-15.59,19.12C12.65,31.18,3.86,37.87,2.74,36.71c-.74-.77,2.09-4.8,6.92-10.18l-.38-.43C2.95,33.06-.84,38.45,.16,39.49c1.4,1.45,11.65-6.17,22.88-17.03C34.27,11.61,42.24,1.63,40.84,.18Z"/><path class="cls-3" d="M37.28,3.33c-.64-.66-4.3,1.75-9.29,5.93l.3,.31c3.62-2.97,6.17-4.62,6.63-4.15,.8,.82-5.12,7.83-13.21,15.66-8.1,7.82-15.3,13.49-16.1,12.67-.46-.48,1.36-3.07,4.57-6.7l-.3-.3c-4.46,4.96-7.08,8.62-6.43,9.29,1,1.04,9.39-5.45,18.73-14.48C31.52,12.53,38.28,4.37,37.28,3.33Z"/></g></svg>