<?xml version="1.0" encoding="UTF-8"?><svg id="Layer_2" xmlns="http://www.w3.org/2000/svg" xmlns:xlink="http://www.w3.org/1999/xlink" viewBox="0 0 18.33 18.33"><defs><style>.cls-1{fill:url(#_ÂÁ_Ï_ÌÌ_È_ËÂÌÚ_156-2);}.cls-1,.cls-2{mix-blend-mode:multiply;}.cls-3{fill:url(#_ÂÁ_Ï_ÌÌ_È_ËÂÌÚ_102-2);}.cls-4{filter:url(#luminosity-noclip-3);}.cls-5{mask:url(#mask);}.cls-6{fill:url(#_ÂÁ_Ï_ÌÌ_È_ËÂÌÚ_102-3);}.cls-6,.cls-7{opacity:.13;}.cls-8{fill:url(#_ÂÁ_Ï_ÌÌ_È_ËÂÌÚ_102-5);opacity:.6;}.cls-9{fill:url(#_ÂÁ_Ï_ÌÌ_È_ËÂÌÚ_102-4);opacity:.94;}.cls-10{fill:navy;opacity:.2;}.cls-7{fill:url(#_ÂÁ_Ï_ÌÌ_È_ËÂÌÚ_102);}.cls-11{opacity:.25;}.cls-12{fill:url(#_ÂÁ_Ï_ÌÌ_È_ËÂÌÚ_489);}.cls-13{mask:url(#mask-3);}.cls-14{mask:url(#mask-2);}.cls-15{mask:url(#mask-1);}.cls-16{fill:#fff;opacity:.8;}.cls-2{fill:url(#_ÂÁ_Ï_ÌÌ_È_ËÂÌÚ_156);}</style><radialGradient id="_ÂÁ_Ï_ÌÌ_È_ËÂÌÚ_489" cx="5.72" cy="4.68" fx="5.72" fy="4.68" r="9.16" gradientUnits="userSpaceOnUse"><stop offset=".17" stop-color="#01ffe2"/><stop offset="1" stop-color="#0095a6"/></radialGradient><linearGradient id="_ÂÁ_Ï_ÌÌ_È_ËÂÌÚ_102" x1="5" y1="2.78" x2="12.98" y2="14.69" gradientUnits="userSpaceOnUse"><stop offset="0" stop-color="#fff"/><stop offset="1" stop-color="#fff"/></linearGradient><linearGradient id="_ÂÁ_Ï_ÌÌ_È_ËÂÌÚ_102-2" x1="6.73" y1="9.31" x2="12.52" y2="17.95" xlink:href="#_ÂÁ_Ï_ÌÌ_È_ËÂÌÚ_102"/><linearGradient id="_ÂÁ_Ï_ÌÌ_È_ËÂÌÚ_102-3" x1="6.75" y1="-.25" x2="10.96" y2="6.02" xlink:href="#_ÂÁ_Ï_ÌÌ_È_ËÂÌÚ_102"/><filter id="luminosity-noclip-2" x="7859.01" y="-7962.69" width="-32766" height="32766" color-interpolation-filters="sRGB" filterUnits="userSpaceOnUse"><feFlood flood-color="#fff" result="bg"/><feBlend in="SourceGraphic" in2="bg"/></filter><mask id="mask-1" x="7859.01" y="-7962.69" width="-32766" height="32766" maskUnits="userSpaceOnUse"/><linearGradient id="_ÂÁ_Ï_ÌÌ_È_ËÂÌÚ_156" x1="-138.33" y1="-117.56" x2="-137.7" y2="-112.91" gradientTransform="translate(220.18 70.74) rotate(-27.25) scale(1.15 1.36)" gradientUnits="userSpaceOnUse"><stop offset="0" stop-color="#fff"/><stop offset="1" stop-color="#000"/></linearGradient><mask id="mask" x="1.39" y=".22" width="10.32" height="7.52" maskUnits="userSpaceOnUse"><g class="cls-15"><path class="cls-2" d="M11.51,1.43c.78,1.52-.8,3.9-3.54,5.31-2.74,1.41-5.59,1.32-6.38-.21-.78-1.52,.8-3.9,3.54-5.31C7.87-.19,10.72-.1,11.51,1.43Z"/></g></mask><linearGradient id="_ÂÁ_Ï_ÌÌ_È_ËÂÌÚ_102-4" x1="-138.33" y1="-117.56" x2="-137.7" y2="-112.91" gradientTransform="translate(220.18 70.74) rotate(-27.25) scale(1.15 1.36)" xlink:href="#_ÂÁ_Ï_ÌÌ_È_ËÂÌÚ_102"/><filter id="luminosity-noclip-3" x="4.08" y="1.14" width="14.25" height="17.15" color-interpolation-filters="sRGB" filterUnits="userSpaceOnUse"><feFlood flood-color="#fff" result="bg"/><feBlend in="SourceGraphic" in2="bg"/></filter><filter id="luminosity-noclip-4" x="7859.01" y="-7962.69" width="-32766" height="32766" color-interpolation-filters="sRGB" filterUnits="userSpaceOnUse"><feFlood flood-color="#fff" result="bg"/><feBlend in="SourceGraphic" in2="bg"/></filter><mask id="mask-3" x="7859.01" y="-7962.69" width="-32766" height="32766" maskUnits="userSpaceOnUse"/><linearGradient id="_ÂÁ_Ï_ÌÌ_È_ËÂÌÚ_156-2" x1="16.58" y1="14.52" x2="8.3" y2="8.5" gradientTransform="matrix(1, 0, 0, 1, 0, 0)" xlink:href="#_ÂÁ_Ï_ÌÌ_È_ËÂÌÚ_156"/><mask id="mask-2" x="4.08" y="1.14" width="14.25" height="17.15" maskUnits="userSpaceOnUse"><g class="cls-4"><g class="cls-13"><path class="cls-1" d="M18.33,9.13c0,.08,0,.16,0,.24,0,.07,0,.13,0,.2,0,.08,0,.16-.01,.24,0,.04,0,.07-.01,.11,0,.05,0,.11-.01,.16,0,.05-.01,.11-.02,.16,0,.04,0,.08-.01,.11,0,.03,0,.06-.01,.1-.12,.83-.35,1.62-.68,2.36h0c-.08,.18-.16,.36-.25,.53-.06,.11-.11,.21-.17,.32-.05,.09-.1,.17-.15,.26-.2,.32-.41,.63-.65,.92-.12,.15-.24,.29-.36,.43-.32,.35-.66,.68-1.03,.98-.34,.28-.7,.53-1.08,.76-.46,.27-.95,.51-1.45,.7-.1,.04-.19,.07-.29,.1-.1,.04-.2,.07-.31,.1-.05,.02-.1,.03-.15,.04-.79,.22-1.62,.34-2.48,.34-1.01,0-1.97-.16-2.88-.46-.19-.06-.39-.13-.58-.21-.3-.12-.6-.26-.89-.42-.08-.04-.17-.09-.25-.14-.01,0-.03-.01-.04-.03,0,0-.02,0-.03-.01-.04-.03-.08-.05-.13-.08-.1-.06-.2-.12-.3-.19,.06,.04,.12,.07,.19,.1,.14,.08,.29,.15,.44,.22,.15,.07,.3,.14,.45,.2,.19,.08,.38,.15,.58,.21,.91,.3,1.87,.46,2.88,.46,.51,0,1-.04,1.48-.12,.34-.05,.67-.13,1-.22,.15-.04,.31-.09,.46-.14,.1-.03,.19-.07,.29-.1,.19-.07,.37-.15,.55-.23h0c.58-.27,1.13-.59,1.64-.97h0c.34-.25,.66-.52,.96-.81h0c.14-.14,.28-.28,.42-.43,.22-.25,.43-.5,.62-.77,.19-.26,.37-.54,.53-.83,.06-.1,.12-.21,.17-.32,0,0,0-.01,0-.01,.38-.73,.66-1.52,.83-2.35,.01-.05,.02-.1,.03-.15,.03-.17,.06-.35,.08-.53,0-.02,0-.04,0-.06,.01-.1,.02-.21,.03-.32,.02-.18,.03-.37,.03-.56,0-.05,0-.1,0-.16,0-.03,0-.05,0-.08,0-.03,0-.07,0-.1,0-.08,0-.16,0-.24h0c0-.07,0-.13-.01-.2,0-.16-.02-.31-.04-.47,0-.09-.02-.17-.03-.26-.02-.15-.04-.3-.07-.45,0-.03,0-.05-.01-.08,0-.03-.01-.06-.02-.09-.1-.49-.24-.96-.42-1.42-.02-.05-.04-.1-.06-.16-.04-.1-.09-.21-.13-.31-.05-.12-.11-.24-.17-.36-.07-.13-.14-.26-.21-.39-.05-.1-.11-.19-.17-.29-.04-.07-.09-.15-.14-.22,0,0,0,0,0,0-.02-.04-.05-.07-.07-.1-.03-.04-.05-.07-.08-.11-.03-.05-.07-.09-.1-.14-.02-.02-.03-.05-.05-.07-.01-.02-.03-.03-.04-.05-.11-.14-.22-.28-.33-.42-.01-.01-.03-.03-.04-.05v-.02c-.13-.13-.25-.26-.37-.39-.02-.02-.04-.04-.06-.06h0c-.17-.17-.34-.34-.52-.49-.03-.02-.05-.05-.08-.07-.04-.03-.08-.06-.12-.1-.07-.06-.15-.12-.22-.18-.02-.02-.04-.03-.06-.05h0s-.07-.05-.11-.08c0,0,0,0,0,0-.06-.05-.12-.09-.18-.13,0,0,0,0-.01,0-.06-.04-.12-.08-.18-.12,.32,.18,.63,.38,.93,.6,0,0,0,0,0,0,.04,.03,.07,.05,.11,.08h0s.04,.03,.06,.05c.07,.06,.15,.12,.22,.18,.04,.03,.08,.07,.12,.1,.03,.02,.05,.05,.08,.07,.18,.16,.35,.32,.52,.49h0s.04,.04,.06,.07c.03,.03,.06,.06,.08,.09,.09,.1,.18,.19,.27,.3v.02c.12,.12,.22,.25,.32,.37,.03,.03,.05,.06,.07,.09,.01,.02,.03,.03,.04,.05,.02,.02,.03,.05,.05,.07,.05,.07,.1,.13,.14,.2,.01,.02,.02,.03,.04,.05,.02,.04,.05,.07,.07,.1,0,0,0,0,0,0,.03,.05,.06,.09,.09,.14,.08,.12,.15,.25,.22,.37,.06,.11,.12,.22,.18,.33,.07,.14,.14,.28,.2,.42,.04,.1,.09,.2,.13,.3,.17,.43,.32,.87,.43,1.33,.02,.08,.04,.16,.05,.24,0,.03,.01,.06,.02,.09,0,.03,.01,.06,.02,.09,.04,.23,.08,.45,.1,.69,.01,.09,.02,.18,.03,.28,0,.06,.01,.13,.01,.19,0,.07,0,.13,.01,.2v.02s0,.02,0,.03c0,.06,0,.13,0,.19,0,.03,0,.07,0,.1Z"/></g></g></mask><linearGradient id="_ÂÁ_Ï_ÌÌ_È_ËÂÌÚ_102-5" x1="16.58" y1="14.52" x2="8.3" y2="8.5" xlink:href="#_ÂÁ_Ï_ÌÌ_È_ËÂÌÚ_102"/></defs><g id="solar_system"><path class="cls-12" d="M18.33,9.15c0,.08,0,.16,0,.24,0,.07,0,.13,0,.2,0,.08,0,.16-.01,.24,0,.04,0,.07,0,.11,0,.05,0,.11-.01,.16,0,.06-.01,.12-.02,.18,0,.03,0,.06-.01,.09,0,.03,0,.06-.01,.1-.04,.27-.09,.55-.16,.81-.12,.53-.29,1.04-.51,1.52h0s0,.02-.01,.03c-.08,.19-.17,.37-.26,.55-.06,.11-.11,.21-.17,.32-.05,.08-.09,.16-.14,.23-.2,.32-.41,.63-.64,.92-.1,.13-.21,.25-.31,.37-.02,.02-.03,.04-.05,.06-.27,.3-.55,.58-.86,.83-.06,.05-.12,.1-.17,.15-.34,.27-.69,.52-1.07,.75h0c-.47,.28-.97,.53-1.49,.72-.1,.04-.19,.07-.29,.1-.08,.03-.17,.06-.25,.08-.07,.02-.14,.04-.21,.06-.79,.22-1.62,.34-2.48,.34-.61,0-1.21-.06-1.79-.17-.37-.07-.74-.17-1.09-.29-.19-.06-.39-.13-.58-.21-.14-.05-.27-.11-.4-.18-.16-.08-.32-.16-.48-.24-.08-.04-.17-.09-.25-.14-.02-.01-.05-.03-.07-.04-.01,0-.02-.01-.03-.02h0s-.06-.04-.09-.06c-.12-.07-.23-.14-.34-.22,0,0,0,0-.01,0-.05-.04-.11-.07-.16-.11h0c-.35-.25-.67-.52-.98-.81-.3-.28-.58-.58-.84-.9-.03-.03-.05-.06-.08-.1-.14-.18-.27-.36-.4-.55,0-.01-.01-.02-.02-.03-.14-.2-.26-.41-.38-.62-.04-.06-.07-.13-.1-.19-.02-.03-.03-.06-.05-.09,0,0,0-.02-.01-.02-.01-.03-.03-.05-.04-.08,0-.02-.02-.04-.03-.06-.06-.11-.11-.23-.16-.35-.06-.15-.13-.29-.18-.44-.24-.64-.41-1.31-.51-2.01-.01-.11-.03-.21-.04-.32-.01-.12-.02-.25-.03-.37,0-.04,0-.08,0-.12,0-.05,0-.1,0-.14,0-.09,0-.18,0-.28,0-.05,0-.11,0-.16,0-.03,0-.05,0-.08,0-.16,.01-.31,.02-.46,0-.07,.01-.13,.02-.19,0-.09,.02-.18,.03-.27H.07c.01-.09,.02-.18,.04-.26,0-.04,.01-.07,.02-.1,.02-.09,.03-.19,.05-.28H.18c.01-.06,.02-.11,.04-.16,.03-.14,.07-.29,.1-.43H.32s.01-.05,.02-.08c.01-.04,.02-.08,.03-.12,.03-.11,.07-.22,.1-.32,.07-.2,.14-.39,.22-.58,0-.01,.01-.02,.01-.04H.71c.08-.18,.16-.36,.25-.54,0,0,0-.01,0-.02,.03-.06,.06-.12,.09-.18,0,0,0,0,0,0,.02-.03,.03-.06,.05-.1,.3-.54,.64-1.05,1.04-1.52,.29-.34,.59-.66,.93-.95,.1-.09,.2-.17,.3-.25,.22-.18,.46-.36,.7-.52,.45-.3,.93-.57,1.43-.78,0,0,.01,0,.02,0,.01,0,.02,0,.03-.01,1.11-.48,2.33-.74,3.62-.74,.04,0,.07,0,.11,0,1.38,.01,2.68,.33,3.84,.89,.09,.04,.18,.09,.27,.13,0,0,0,0,0,0,.15,.08,.29,.16,.44,.25,0,0,0,0,.01,0,.25,.15,.5,.31,.74,.49,0,0,0,0,0,0,.04,.03,.07,.05,.11,.08h0s.04,.03,.06,.05c.07,.06,.15,.12,.22,.18,.04,.03,.08,.06,.12,.1,.03,.02,.05,.05,.08,.07,.18,.16,.35,.32,.52,.49h0s.04,.04,.06,.07h0s.04,.05,.06,.07c.06,.07,.13,.14,.19,.21l.14,.17c.09,.1,.17,.2,.25,.31,.03,.04,.06,.07,.08,.11,.01,.02,.03,.03,.04,.05,.02,.02,.03,.05,.05,.07,.04,.06,.09,.12,.13,.19,.01,.02,.03,.04,.05,.07,.02,.04,.05,.07,.07,.1,0,0,0,0,0,0,.02,.03,.04,.06,.06,.09,0,.01,.01,.02,.02,.03,.08,.12,.15,.25,.22,.37,.01,.02,.03,.04,.04,.07,.03,.05,.05,.09,.08,.14,.02,.04,.04,.08,.06,.12,.02,.04,.04,.08,.06,.12,0,.01,.01,.03,.02,.04,.04,.08,.08,.16,.11,.23,0,.01,.01,.02,.01,.03,.02,.04,.04,.08,.05,.12,.03,.06,.05,.13,.08,.19,.11,.26,.2,.53,.28,.8,.03,.08,.05,.17,.07,.25,.02,.09,.05,.18,.07,.27,0,.02,.01,.04,.01,.06,.01,.06,.03,.13,.04,.19,0,.03,.01,.06,.02,.09,0,.03,.01,.05,.01,.08,0,.03,.01,.05,.01,.08,.04,.21,.07,.41,.09,.62,.01,.09,.02,.17,.03,.26,0,.07,.01,.14,.01,.21,0,.07,0,.13,.01,.2v.03c0,.06,0,.13,0,.19,0,.03,0,.07,0,.1Z"/><path class="cls-7" d="M18.32,9.04c0-.06,0-.13,0-.19v-.03c0-.07,0-.13-.01-.2,0-.07,0-.14-.01-.21,0-.09-.01-.17-.03-.26-.02-.21-.05-.42-.09-.62-1.22-.05-2.93-.04-4.57,.23-3,.49-4.55,2.22-8,2.48-3.45,.26-4.41-1.73-3.49-2.48,.91-.74,5.24-1.32,9.67-1.37,3.02-.03,5.12,.06,6.15,.12-.08-.27-.18-.54-.28-.8-.03-.06-.05-.13-.08-.19-.02-.04-.04-.08-.05-.12,0-.01-.01-.02-.01-.03-.04-.09-.09-.19-.13-.28-.02-.04-.04-.08-.06-.12-.02-.04-.04-.08-.06-.12-1.69,.37-5.02,.97-9.18,.99-3.52,.01-5.95-.08-7.37-.16-.08,.19-.15,.39-.22,.58-.04,.11-.07,.21-.1,.32-.01,.04-.02,.08-.03,.12,0,.02-.01,.05-.02,.07H.32c-.04,.14-.07,.29-.1,.43-.01,.05-.03,.11-.04,.16H.18c-.02,.09-.04,.19-.05,.28,0,.04-.01,.07-.02,.1-.01,.09-.03,.17-.04,.26H.07c-.01,.09-.02,.18-.03,.27,0,.06-.01,.13-.02,.19-.01,.15-.02,.31-.02,.46,0,.03,0,.05,0,.08,0,.05,0,.11,0,.16,0,.09,0,.19,0,.28,0,.05,0,.1,0,.14,0,.04,0,.08,0,.12,0,.13,.02,.25,.03,.37,.01,.11,.02,.22,.04,.32,.09,.7,.27,1.37,.51,2.01,2.33-.31,8.39-1.1,11.24-1.33,2.11-.17,4.63,.03,6.25,.21,.06-.27,.12-.54,.16-.81,0-.03,0-.06,.01-.1,0-.03,0-.06,.01-.09,0-.06,.01-.12,.02-.18,0-.05,.01-.11,.01-.16,0-.04,0-.07,0-.11,0-.08,.01-.16,.01-.24,0-.07,0-.13,0-.2,0-.08,0-.16,0-.24,0-.03,0-.07,0-.1ZM1.84,6.12c.25,0,.44,.2,.44,.44s-.2,.44-.44,.44-.44-.2-.44-.44,.2-.44,.44-.44Zm-.14,5.16c-.32,0-.58-.26-.58-.58s.26-.58,.58-.58,.58,.26,.58,.58-.26,.58-.58,.58Zm10.63-1.68c-.25,0-.44-.2-.44-.44s.2-.44,.44-.44,.44,.2,.44,.44-.2,.44-.44,.44Zm.92,1.08c-.12,0-.22-.1-.22-.22s.1-.22,.22-.22,.22,.1,.22,.22-.1,.22-.22,.22Z"/><g class="cls-11"><path class="cls-3" d="M9.35,13.82c-3.83-.02-6.99-.42-8.41-.63,0,.02,.02,.04,.03,.06,.01,.03,.03,.05,.04,.08,0,0,0,.02,.01,.02,.01,.03,.03,.06,.05,.09,.03,.06,.07,.13,.1,.19,.12,.21,.25,.42,.38,.62,0,.01,.01,.02,.02,.03,.13,.19,.26,.37,.4,.55,.02,.03,.05,.07,.08,.1,.26,.32,.54,.62,.84,.9,.31,.29,.64,.56,.98,.81h0c.05,.04,.1,.08,.16,.11,0,0,0,0,.01,0,.11,.08,.23,.15,.34,.22,.03,.02,.06,.04,.09,.06h0s.02,.01,.03,.02c.02,.01,.04,.03,.07,.04,.08,.05,.16,.09,.25,.14,.16,.09,.32,.17,.48,.24,1.96-.13,3.7-.19,4.19-.08,.56,.13-.62,.44-2.12,.76,.58,.11,1.18,.17,1.79,.17,.86,0,1.69-.12,2.48-.34,.07-.02,.14-.04,.21-.06,.08-.03,.17-.05,.25-.08,.1-.03,.19-.07,.29-.1,.52-.2,1.02-.44,1.49-.72h0c.37-.22,.73-.48,1.07-.75,.06-.05,.12-.1,.17-.15-.48,.05-1.17,.12-2.16,.21-2.98,.27-7.9-.07-7.78-.43,.12-.36,3.05-.94,6.72-.83,1.72,.05,3.12,.11,4.13,.16,.11-.12,.21-.25,.31-.37,.23-.29,.45-.6,.64-.92,.05-.08,.09-.16,.14-.23,.06-.1,.12-.21,.17-.32,.09-.18,.18-.36,.26-.55,0,0,0-.02,.01-.03-1.47,.38-4.53,1.04-8.23,1.02Zm-5.09,1.21c-.86,0-1.55-.2-1.55-.44s.7-.44,1.55-.44,1.55,.2,1.55,.44-.7,.44-1.55,.44Z"/></g><path class="cls-6" d="M15.76,2.81c-1.34,.41-3.68,.95-6.6,.9-2.82-.04-5.41-.27-7.01-.44,.29-.34,.59-.66,.93-.95,1.54,.35,3.35,.69,4.82,.75,3.2,.12,6.47-.74,5.91-1.11-.57-.38-2.98,.15-6.01,0-1.37-.07-2.69-.24-3.72-.41,.45-.3,.93-.57,1.43-.78,0,0,.01,0,.02,0,.01,0,.02,0,.03-.01,1.17,.17,2.73,.29,4.76,.24,1.19-.03,2.1-.06,2.81-.09,.09,.04,.18,.09,.27,.13,0,0,0,0,0,0,.15,.08,.29,.16,.44,.25,0,0,0,0,.01,0,.25,.15,.5,.31,.74,.49,0,0,0,0,0,0,.04,.03,.07,.05,.11,.08h0s.04,.03,.06,.05c.07,.06,.15,.12,.22,.18,.04,.03,.08,.06,.12,.1,.03,.02,.05,.05,.08,.07,.18,.16,.35,.32,.52,.49h0s.04,.04,.06,.07h0Z"/><g class="cls-5"><path class="cls-9" d="M11.51,1.43c.78,1.52-.8,3.9-3.54,5.31-2.74,1.41-5.59,1.32-6.38-.21-.78-1.52,.8-3.9,3.54-5.31C7.87-.19,10.72-.1,11.51,1.43Z"/></g><path class="cls-16" d="M8.49,.98c.17,.33-.7,1.11-1.95,1.75-1.24,.64-2.39,.89-2.56,.57s.7-1.11,1.95-1.75c1.24-.64,2.39-.89,2.56-.57Z"/><path class="cls-16" d="M3.64,3.72c.12,.23,.03,.51-.2,.63s-.51,.03-.63-.2c-.12-.23-.03-.51,.2-.63s.51-.03,.63,.2Z"/><path class="cls-10" d="M18.33,9.15c0,.08,0,.16,0,.24,0,.07,0,.13,0,.2,0,.08,0,.16-.01,.24,0,.04,0,.07,0,.11,0,.05,0,.11-.01,.16,0,.06-.01,.12-.02,.18,0,.03,0,.06-.01,.09,0,.03,0,.06-.01,.1-.04,.27-.09,.55-.16,.81-.12,.53-.29,1.04-.51,1.52h0s0,.02-.01,.03c-.08,.19-.17,.37-.26,.55-.06,.11-.11,.21-.17,.32-.05,.08-.09,.16-.14,.23-.2,.32-.41,.63-.64,.92-.1,.13-.21,.25-.31,.37-.02,.02-.03,.04-.05,.06-.27,.3-.55,.58-.86,.83-.06,.05-.12,.1-.17,.15-.34,.27-.69,.52-1.07,.75h0c-.47,.28-.97,.53-1.49,.72-.1,.04-.19,.07-.29,.1-.08,.03-.17,.06-.25,.08-.07,.02-.14,.04-.21,.06-.79,.22-1.62,.34-2.48,.34-.61,0-1.21-.06-1.79-.17-.37-.07-.74-.17-1.09-.29-.19-.06-.39-.13-.58-.21-.14-.05-.27-.11-.4-.18-.16-.08-.32-.16-.48-.24-.08-.04-.17-.09-.25-.14-.02-.01-.05-.03-.07-.04-.01,0-.02-.01-.03-.02h0s-.06-.04-.09-.06c-.12-.07-.23-.14-.34-.22,0,0,0,0-.01,0-.05-.04-.11-.07-.16-.11h0c-.35-.25-.67-.52-.98-.81-.3-.28-.58-.58-.84-.9-.03-.03-.05-.06-.08-.1-.14-.18-.27-.36-.4-.55,0-.01-.01-.02-.02-.03-.14-.2-.26-.41-.38-.62-.04-.06-.07-.13-.1-.19-.02-.03-.03-.06-.05-.09,0,0,0-.02-.01-.02-.01-.03-.03-.05-.04-.08,0-.02-.02-.04-.03-.06-.06-.11-.11-.23-.16-.35,2.24,.04,6.2-.22,10.14-2.17,3.61-1.79,5.51-3.99,6.48-5.55,.04,.08,.08,.16,.11,.23,0,.01,.01,.02,.01,.03,.02,.04,.04,.08,.05,.12,.03,.06,.05,.13,.08,.19,.11,.26,.2,.53,.28,.8,.03,.08,.05,.17,.07,.25,.02,.09,.05,.18,.07,.27,0,.02,.01,.04,.01,.06,.01,.06,.03,.13,.04,.19,0,.03,.01,.06,.02,.09,0,.03,.01,.05,.01,.08,0,.03,.01,.05,.01,.08,.04,.21,.07,.41,.09,.62,.01,.09,.02,.17,.03,.26,0,.07,.01,.14,.01,.21,0,.07,0,.13,.01,.2v.03c0,.06,0,.13,0,.19,0,.03,0,.07,0,.1Z"/><g class="cls-14"><path class="cls-8" d="M18.33,9.13c0,.08,0,.16,0,.24,0,.07,0,.13,0,.2,0,.08,0,.16-.01,.24,0,.04,0,.07-.01,.11,0,.05,0,.11-.01,.16,0,.05-.01,.11-.02,.16,0,.04,0,.08-.01,.11,0,.03,0,.06-.01,.1-.12,.83-.35,1.62-.68,2.36h0c-.08,.18-.16,.36-.25,.53-.06,.11-.11,.21-.17,.32-.05,.09-.1,.17-.15,.26-.2,.32-.41,.63-.65,.92-.12,.15-.24,.29-.36,.43-.32,.35-.66,.68-1.03,.98-.34,.28-.7,.53-1.08,.76-.46,.27-.95,.51-1.45,.7-.1,.04-.19,.07-.29,.1-.1,.04-.2,.07-.31,.1-.05,.02-.1,.03-.15,.04-.79,.22-1.62,.34-2.48,.34-1.01,0-1.97-.16-2.88-.46-.19-.06-.39-.13-.58-.21-.3-.12-.6-.26-.89-.42-.08-.04-.17-.09-.25-.14-.01,0-.03-.01-.04-.03,0,0-.02,0-.03-.01-.04-.03-.08-.05-.13-.08-.1-.06-.2-.12-.3-.19,.06,.04,.12,.07,.19,.1,.14,.08,.29,.15,.44,.22,.15,.07,.3,.14,.45,.2,.19,.08,.38,.15,.58,.21,.91,.3,1.87,.46,2.88,.46,.51,0,1-.04,1.48-.12,.34-.05,.67-.13,1-.22,.15-.04,.31-.09,.46-.14,.1-.03,.19-.07,.29-.1,.19-.07,.37-.15,.55-.23h0c.58-.27,1.13-.59,1.64-.97h0c.34-.25,.66-.52,.96-.81h0c.14-.14,.28-.28,.42-.43,.22-.25,.43-.5,.62-.77,.19-.26,.37-.54,.53-.83,.06-.1,.12-.21,.17-.32,0,0,0-.01,0-.01,.38-.73,.66-1.52,.83-2.35,.01-.05,.02-.1,.03-.15,.03-.17,.06-.35,.08-.53,0-.02,0-.04,0-.06,.01-.1,.02-.21,.03-.32,.02-.18,.03-.37,.03-.56,0-.05,0-.1,0-.16,0-.03,0-.05,0-.08,0-.03,0-.07,0-.1,0-.08,0-.16,0-.24h0c0-.07,0-.13-.01-.2,0-.16-.02-.31-.04-.47,0-.09-.02-.17-.03-.26-.02-.15-.04-.3-.07-.45,0-.03,0-.05-.01-.08,0-.03-.01-.06-.02-.09-.1-.49-.24-.96-.42-1.42-.02-.05-.04-.1-.06-.16-.04-.1-.09-.21-.13-.31-.05-.12-.11-.24-.17-.36-.07-.13-.14-.26-.21-.39-.05-.1-.11-.19-.17-.29-.04-.07-.09-.15-.14-.22,0,0,0,0,0,0-.02-.04-.05-.07-.07-.1-.03-.04-.05-.07-.08-.11-.03-.05-.07-.09-.1-.14-.02-.02-.03-.05-.05-.07-.01-.02-.03-.03-.04-.05-.11-.14-.22-.28-.33-.42-.01-.01-.03-.03-.04-.05v-.02c-.13-.13-.25-.26-.37-.39-.02-.02-.04-.04-.06-.06h0c-.17-.17-.34-.34-.52-.49-.03-.02-.05-.05-.08-.07-.04-.03-.08-.06-.12-.1-.07-.06-.15-.12-.22-.18-.02-.02-.04-.03-.06-.05h0s-.07-.05-.11-.08c0,0,0,0,0,0-.06-.05-.12-.09-.18-.13,0,0,0,0-.01,0-.06-.04-.12-.08-.18-.12,.32,.18,.63,.38,.93,.6,0,0,0,0,0,0,.04,.03,.07,.05,.11,.08h0s.04,.03,.06,.05c.07,.06,.15,.12,.22,.18,.04,.03,.08,.07,.12,.1,.03,.02,.05,.05,.08,.07,.18,.16,.35,.32,.52,.49h0s.04,.04,.06,.07c.03,.03,.06,.06,.08,.09,.09,.1,.18,.19,.27,.3v.02c.12,.12,.22,.25,.32,.37,.03,.03,.05,.06,.07,.09,.01,.02,.03,.03,.04,.05,.02,.02,.03,.05,.05,.07,.05,.07,.1,.13,.14,.2,.01,.02,.02,.03,.04,.05,.02,.04,.05,.07,.07,.1,0,0,0,0,0,0,.03,.05,.06,.09,.09,.14,.08,.12,.15,.25,.22,.37,.06,.11,.12,.22,.18,.33,.07,.14,.14,.28,.2,.42,.04,.1,.09,.2,.13,.3,.17,.43,.32,.87,.43,1.33,.02,.08,.04,.16,.05,.24,0,.03,.01,.06,.02,.09,0,.03,.01,.06,.02,.09,.04,.23,.08,.45,.1,.69,.01,.09,.02,.18,.03,.28,0,.06,.01,.13,.01,.19,0,.07,0,.13,.01,.2v.02s0,.02,0,.03c0,.06,0,.13,0,.19,0,.03,0,.07,0,.1Z"/></g></g></svg>