<?xml version="1.0" encoding="UTF-8"?><svg id="Layer_2" xmlns="http://www.w3.org/2000/svg" xmlns:xlink="http://www.w3.org/1999/xlink" viewBox="0 0 19.38 19.38"><defs><style>.cls-1{fill:url(#_ÂÁ_Ï_ÌÌ_È_ËÂÌÚ_156-2);}.cls-1,.cls-2{mix-blend-mode:multiply;}.cls-3{filter:url(#luminosity-noclip-3);}.cls-4{mask:url(#mask);}.cls-5,.cls-6{fill:#00008a;}.cls-7{fill:url(#_ÂÁ_Ï_ÌÌ_È_ËÂÌÚ_102-4);}.cls-7,.cls-8,.cls-9,.cls-10,.cls-11,.cls-12,.cls-13,.cls-14,.cls-6,.cls-15,.cls-16,.cls-17,.cls-18,.cls-19,.cls-20,.cls-21,.cls-22,.cls-23,.cls-24,.cls-25,.cls-26,.cls-27,.cls-28,.cls-29,.cls-30,.cls-31,.cls-32,.cls-33,.cls-34,.cls-35,.cls-36,.cls-37{opacity:.2;}.cls-8{fill:url(#_ÂÁ_Ï_ÌÌ_È_ËÂÌÚ_102-3);}.cls-9{fill:url(#_ÂÁ_Ï_ÌÌ_È_ËÂÌÚ_102-2);}.cls-10{fill:url(#_ÂÁ_Ï_ÌÌ_È_ËÂÌÚ_102-9);}.cls-11{fill:url(#_ÂÁ_Ï_ÌÌ_È_ËÂÌÚ_102-8);}.cls-12{fill:url(#_ÂÁ_Ï_ÌÌ_È_ËÂÌÚ_102-5);}.cls-13{fill:url(#_ÂÁ_Ï_ÌÌ_È_ËÂÌÚ_102-7);}.cls-14{fill:url(#_ÂÁ_Ï_ÌÌ_È_ËÂÌÚ_102-6);}.cls-38{fill:url(#_ÂÁ_Ï_ÌÌ_È_ËÂÌÚ_102-28);}.cls-15{fill:url(#_ÂÁ_Ï_ÌÌ_È_ËÂÌÚ_102);}.cls-16{fill:url(#_ÂÁ_Ï_ÌÌ_È_ËÂÌÚ_102-11);}.cls-17{fill:url(#_ÂÁ_Ï_ÌÌ_È_ËÂÌÚ_102-17);}.cls-18{fill:url(#_ÂÁ_Ï_ÌÌ_È_ËÂÌÚ_102-12);}.cls-19{fill:url(#_ÂÁ_Ï_ÌÌ_È_ËÂÌÚ_102-14);}.cls-20{fill:url(#_ÂÁ_Ï_ÌÌ_È_ËÂÌÚ_102-16);}.cls-21{fill:url(#_ÂÁ_Ï_ÌÌ_È_ËÂÌÚ_102-13);}.cls-22{fill:url(#_ÂÁ_Ï_ÌÌ_È_ËÂÌÚ_102-19);}.cls-23{fill:url(#_ÂÁ_Ï_ÌÌ_È_ËÂÌÚ_102-18);}.cls-24{fill:url(#_ÂÁ_Ï_ÌÌ_È_ËÂÌÚ_102-15);}.cls-25{fill:url(#_ÂÁ_Ï_ÌÌ_È_ËÂÌÚ_102-32);}.cls-26{fill:url(#_ÂÁ_Ï_ÌÌ_È_ËÂÌÚ_102-33);}.cls-27{fill:url(#_ÂÁ_Ï_ÌÌ_È_ËÂÌÚ_102-20);}.cls-28{fill:url(#_ÂÁ_Ï_ÌÌ_È_ËÂÌÚ_102-21);}.cls-29{fill:url(#_ÂÁ_Ï_ÌÌ_È_ËÂÌÚ_102-30);}.cls-30{fill:url(#_ÂÁ_Ï_ÌÌ_È_ËÂÌÚ_102-27);}.cls-31{fill:url(#_ÂÁ_Ï_ÌÌ_È_ËÂÌÚ_102-31);}.cls-32{fill:url(#_ÂÁ_Ï_ÌÌ_È_ËÂÌÚ_102-22);}.cls-33{fill:url(#_ÂÁ_Ï_ÌÌ_È_ËÂÌÚ_102-24);}.cls-34{fill:url(#_ÂÁ_Ï_ÌÌ_È_ËÂÌÚ_102-29);}.cls-35{fill:url(#_ÂÁ_Ï_ÌÌ_È_ËÂÌÚ_102-26);}.cls-36{fill:url(#_ÂÁ_Ï_ÌÌ_È_ËÂÌÚ_102-25);}.cls-37{fill:url(#_ÂÁ_Ï_ÌÌ_È_ËÂÌÚ_102-23);}.cls-39{fill:url(#_ÂÁ_Ï_ÌÌ_È_ËÂÌÚ_102-10);opacity:.94;}.cls-40{fill:url(#_ÂÁ_Ï_ÌÌ_È_ËÂÌÚ_102-34);opacity:.6;}.cls-41{fill:url(#_ÂÁ_Ï_ÌÌ_È_ËÂÌÚ_408);}.cls-42{mask:url(#mask-3);}.cls-43{mask:url(#mask-2);}.cls-44{mask:url(#mask-1);}.cls-45{fill:navy;opacity:.59;}.cls-46{fill:#fff;opacity:.8;}.cls-2{fill:url(#_ÂÁ_Ï_ÌÌ_È_ËÂÌÚ_156);}</style><radialGradient id="_ÂÁ_Ï_ÌÌ_È_ËÂÌÚ_408" cx="6.05" cy="4.95" fx="6.05" fy="4.95" r="9.69" gradientUnits="userSpaceOnUse"><stop offset=".17" stop-color="#15d49f"/><stop offset="1" stop-color="#003aa6"/></radialGradient><linearGradient id="_ÂÁ_Ï_ÌÌ_È_ËÂÌÚ_102" x1="6.55" y1="5.88" x2="12.85" y2="15.29" gradientUnits="userSpaceOnUse"><stop offset="0" stop-color="#fff"/><stop offset="1" stop-color="#fff"/></linearGradient><linearGradient id="_ÂÁ_Ï_ÌÌ_È_ËÂÌÚ_102-2" x1="7.61" y1="12.71" x2="12.23" y2="19.6" xlink:href="#_ÂÁ_Ï_ÌÌ_È_ËÂÌÚ_102"/><linearGradient id="_ÂÁ_Ï_ÌÌ_È_ËÂÌÚ_102-3" x1="7.35" y1="11.25" x2="12.49" y2="18.92" xlink:href="#_ÂÁ_Ï_ÌÌ_È_ËÂÌÚ_102"/><linearGradient id="_ÂÁ_Ï_ÌÌ_È_ËÂÌÚ_102-4" x1="7.65" y1="15.21" x2="11.12" y2="20.38" xlink:href="#_ÂÁ_Ï_ÌÌ_È_ËÂÌÚ_102"/><linearGradient id="_ÂÁ_Ï_ÌÌ_È_ËÂÌÚ_102-5" x1="6.48" y1=".23" x2="12" y2="8.47" xlink:href="#_ÂÁ_Ï_ÌÌ_È_ËÂÌÚ_102"/><linearGradient id="_ÂÁ_Ï_ÌÌ_È_ËÂÌÚ_102-6" x1="6.96" y1="8.31" x2="10.74" y2="13.95" xlink:href="#_ÂÁ_Ï_ÌÌ_È_ËÂÌÚ_102"/><linearGradient id="_ÂÁ_Ï_ÌÌ_È_ËÂÌÚ_102-7" x1="6.34" y1="14.76" x2="8.91" y2="18.59" xlink:href="#_ÂÁ_Ï_ÌÌ_È_ËÂÌÚ_102"/><linearGradient id="_ÂÁ_Ï_ÌÌ_È_ËÂÌÚ_102-8" x1="9.67" y1="5.23" x2="14.37" y2="12.24" xlink:href="#_ÂÁ_Ï_ÌÌ_È_ËÂÌÚ_102"/><linearGradient id="_ÂÁ_Ï_ÌÌ_È_ËÂÌÚ_102-9" x1="6.26" y1="3.12" x2="12.09" y2="11.81" xlink:href="#_ÂÁ_Ï_ÌÌ_È_ËÂÌÚ_102"/><filter id="luminosity-noclip-2" x="7739.5" y="-7960.17" width="-32766" height="32766" color-interpolation-filters="sRGB" filterUnits="userSpaceOnUse"><feFlood flood-color="#fff" result="bg"/><feBlend in="SourceGraphic" in2="bg"/></filter><mask id="mask-1" x="7739.5" y="-7960.17" width="-32766" height="32766" maskUnits="userSpaceOnUse"/><linearGradient id="_ÂÁ_Ï_ÌÌ_È_ËÂÌÚ_156" x1="-166.58" y1="-78" x2="-165.91" y2="-73.08" gradientTransform="translate(224.91 8.09) rotate(-27.25) scale(1.15 1.36)" gradientUnits="userSpaceOnUse"><stop offset="0" stop-color="#fff"/><stop offset="1" stop-color="#000"/></linearGradient><mask id="mask" x="1.64" y=".42" width="10.91" height="7.95" maskUnits="userSpaceOnUse"><g class="cls-44"><path class="cls-2" d="M12.34,1.69c.83,1.61-.84,4.13-3.74,5.62-2.9,1.49-5.92,1.39-6.75-.22-.83-1.61,.84-4.13,3.74-5.62C8.49-.02,11.51,.08,12.34,1.69Z"/></g></mask><linearGradient id="_ÂÁ_Ï_ÌÌ_È_ËÂÌÚ_102-10" x1="-166.58" y1="-78" x2="-165.91" y2="-73.08" gradientTransform="translate(224.91 8.09) rotate(-27.25) scale(1.15 1.36)" xlink:href="#_ÂÁ_Ï_ÌÌ_È_ËÂÌÚ_102"/><linearGradient id="_ÂÁ_Ï_ÌÌ_È_ËÂÌÚ_102-11" x1="9.29" y1="15.65" x2="9.6" y2="16.12" xlink:href="#_ÂÁ_Ï_ÌÌ_È_ËÂÌÚ_102"/><linearGradient id="_ÂÁ_Ï_ÌÌ_È_ËÂÌÚ_102-12" x1="11.39" y1="8.02" x2="11.71" y2="8.49" xlink:href="#_ÂÁ_Ï_ÌÌ_È_ËÂÌÚ_102"/><linearGradient id="_ÂÁ_Ï_ÌÌ_È_ËÂÌÚ_102-13" x1="15.75" y1="7.64" x2="16.06" y2="8.11" xlink:href="#_ÂÁ_Ï_ÌÌ_È_ËÂÌÚ_102"/><linearGradient id="_ÂÁ_Ï_ÌÌ_È_ËÂÌÚ_102-14" x1="-251.5" y1="12.05" x2="-251.35" y2="12.28" gradientTransform="translate(181.51 -173.74) rotate(-45)" xlink:href="#_ÂÁ_Ï_ÌÌ_È_ËÂÌÚ_102"/><linearGradient id="_ÂÁ_Ï_ÌÌ_È_ËÂÌÚ_102-15" x1="17.31" y1="12.69" x2="17.62" y2="13.16" xlink:href="#_ÂÁ_Ï_ÌÌ_È_ËÂÌÚ_102"/><linearGradient id="_ÂÁ_Ï_ÌÌ_È_ËÂÌÚ_102-16" x1="9.46" y1="17.55" x2="9.77" y2="18.02" xlink:href="#_ÂÁ_Ï_ÌÌ_È_ËÂÌÚ_102"/><linearGradient id="_ÂÁ_Ï_ÌÌ_È_ËÂÌÚ_102-17" x1="1.48" y1="8.84" x2="1.79" y2="9.31" xlink:href="#_ÂÁ_Ï_ÌÌ_È_ËÂÌÚ_102"/><linearGradient id="_ÂÁ_Ï_ÌÌ_È_ËÂÌÚ_102-18" x1="5.54" y1="13.25" x2="5.85" y2="13.72" xlink:href="#_ÂÁ_Ï_ÌÌ_È_ËÂÌÚ_102"/><linearGradient id="_ÂÁ_Ï_ÌÌ_È_ËÂÌÚ_102-19" x1="13.65" y1="14.06" x2="13.96" y2="14.52" xlink:href="#_ÂÁ_Ï_ÌÌ_È_ËÂÌÚ_102"/><linearGradient id="_ÂÁ_Ï_ÌÌ_È_ËÂÌÚ_102-20" x1="13.19" y1="3.45" x2="13.76" y2="4.31" xlink:href="#_ÂÁ_Ï_ÌÌ_È_ËÂÌÚ_102"/><linearGradient id="_ÂÁ_Ï_ÌÌ_È_ËÂÌÚ_102-21" x1="11.56" y1=".79" x2="12.13" y2="1.65" xlink:href="#_ÂÁ_Ï_ÌÌ_È_ËÂÌÚ_102"/><linearGradient id="_ÂÁ_Ï_ÌÌ_È_ËÂÌÚ_102-22" x1="2.16" y1="12.89" x2="2.47" y2="13.35" xlink:href="#_ÂÁ_Ï_ÌÌ_È_ËÂÌÚ_102"/><linearGradient id="_ÂÁ_Ï_ÌÌ_È_ËÂÌÚ_102-23" x1="13.93" y1="7.64" x2="14.24" y2="8.11" xlink:href="#_ÂÁ_Ï_ÌÌ_È_ËÂÌÚ_102"/><linearGradient id="_ÂÁ_Ï_ÌÌ_È_ËÂÌÚ_102-24" x1="12.45" y1="16.99" x2="12.77" y2="17.46" xlink:href="#_ÂÁ_Ï_ÌÌ_È_ËÂÌÚ_102"/><linearGradient id="_ÂÁ_Ï_ÌÌ_È_ËÂÌÚ_102-25" x1="4.13" y1="12.17" x2="4.26" y2="12.37" xlink:href="#_ÂÁ_Ï_ÌÌ_È_ËÂÌÚ_102"/><linearGradient id="_ÂÁ_Ï_ÌÌ_È_ËÂÌÚ_102-26" x1="7.56" y1="9.73" x2="7.69" y2="9.93" xlink:href="#_ÂÁ_Ï_ÌÌ_È_ËÂÌÚ_102"/><linearGradient id="_ÂÁ_Ï_ÌÌ_È_ËÂÌÚ_102-27" x1="15.64" y1="3.17" x2="15.9" y2="3.55" xlink:href="#_ÂÁ_Ï_ÌÌ_È_ËÂÌÚ_102"/><linearGradient id="_ÂÁ_Ï_ÌÌ_È_ËÂÌÚ_102-28" x1="14.41" y1="10.51" x2="14.46" y2="10.58" xlink:href="#_ÂÁ_Ï_ÌÌ_È_ËÂÌÚ_102"/><linearGradient id="_ÂÁ_Ï_ÌÌ_È_ËÂÌÚ_102-29" x1="9.95" y1="14.59" x2="10.07" y2="14.78" xlink:href="#_ÂÁ_Ï_ÌÌ_È_ËÂÌÚ_102"/><linearGradient id="_ÂÁ_Ï_ÌÌ_È_ËÂÌÚ_102-30" x1="7.61" y1="17.41" x2="7.74" y2="17.6" xlink:href="#_ÂÁ_Ï_ÌÌ_È_ËÂÌÚ_102"/><linearGradient id="_ÂÁ_Ï_ÌÌ_È_ËÂÌÚ_102-31" x1="8.7" y1="17.69" x2="8.82" y2="17.88" xlink:href="#_ÂÁ_Ï_ÌÌ_È_ËÂÌÚ_102"/><linearGradient id="_ÂÁ_Ï_ÌÌ_È_ËÂÌÚ_102-32" x1="7.5" y1="15.19" x2="7.62" y2="15.38" xlink:href="#_ÂÁ_Ï_ÌÌ_È_ËÂÌÚ_102"/><linearGradient id="_ÂÁ_Ï_ÌÌ_È_ËÂÌÚ_102-33" x1="3.13" y1="15.51" x2="3.26" y2="15.7" xlink:href="#_ÂÁ_Ï_ÌÌ_È_ËÂÌÚ_102"/><filter id="luminosity-noclip-3" x="4.32" y="1.22" width="15.07" height="18.14" color-interpolation-filters="sRGB" filterUnits="userSpaceOnUse"><feFlood flood-color="#fff" result="bg"/><feBlend in="SourceGraphic" in2="bg"/></filter><filter id="luminosity-noclip-4" x="7739.5" y="-7960.17" width="-32766" height="32766" color-interpolation-filters="sRGB" filterUnits="userSpaceOnUse"><feFlood flood-color="#fff" result="bg"/><feBlend in="SourceGraphic" in2="bg"/></filter><mask id="mask-3" x="7739.5" y="-7960.17" width="-32766" height="32766" maskUnits="userSpaceOnUse"/><linearGradient id="_ÂÁ_Ï_ÌÌ_È_ËÂÌÚ_156-2" x1="17.53" y1="15.37" x2="8.78" y2="9.01" gradientTransform="matrix(1, 0, 0, 1, 0, 0)" xlink:href="#_ÂÁ_Ï_ÌÌ_È_ËÂÌÚ_156"/><mask id="mask-2" x="4.32" y="1.22" width="15.07" height="18.14" maskUnits="userSpaceOnUse"><g class="cls-3"><g class="cls-42"><path class="cls-1" d="M19.38,9.67c0,.08,0,.17,0,.25,0,.07,0,.14,0,.21,0,.09,0,.17-.02,.26,0,.04,0,.08-.01,.12,0,.06,0,.12-.01,.17,0,.06-.01,.11-.02,.17,0,.04,0,.08-.02,.12,0,.03,0,.07-.01,.1-.13,.88-.37,1.72-.72,2.5h0c-.08,.19-.17,.38-.27,.56-.06,.11-.12,.22-.18,.34-.05,.09-.11,.18-.16,.27-.21,.34-.44,.66-.68,.97-.12,.15-.25,.31-.39,.45-.34,.37-.7,.72-1.09,1.03-.36,.29-.74,.56-1.14,.8-.49,.29-1,.54-1.54,.74-.1,.04-.21,.08-.31,.11-.11,.04-.22,.07-.32,.1-.05,.02-.11,.03-.16,.05-.84,.24-1.72,.36-2.63,.36-1.06,0-2.09-.17-3.04-.49-.21-.07-.41-.14-.61-.22-.32-.13-.63-.28-.94-.44-.09-.05-.18-.1-.26-.15-.02,0-.03-.02-.05-.03,0,0-.02,0-.03-.02-.05-.03-.09-.05-.13-.08-.11-.06-.21-.13-.32-.2,.07,.04,.13,.08,.2,.11,.15,.08,.3,.16,.46,.23,.16,.07,.32,.14,.48,.21,.2,.08,.4,.16,.61,.22,.96,.32,1.98,.49,3.04,.49,.53,0,1.06-.04,1.57-.13,.36-.06,.71-.14,1.06-.23,.16-.05,.32-.1,.48-.15,.1-.03,.21-.07,.31-.11,.2-.07,.39-.15,.58-.24h0c.62-.28,1.2-.62,1.74-1.02h0c.36-.26,.69-.55,1.01-.86h0c.15-.15,.3-.3,.44-.46,.23-.26,.45-.53,.66-.81,.2-.28,.39-.57,.57-.87,.06-.11,.12-.22,.18-.34,0,0,0-.01,0-.02,.4-.77,.7-1.61,.88-2.49,.01-.05,.02-.11,.03-.16,.03-.18,.06-.37,.09-.56,0-.02,0-.04,0-.07,.01-.11,.02-.22,.03-.34,.02-.2,.03-.39,.03-.59,0-.05,0-.11,0-.16,0-.03,0-.06,0-.09,0-.04,0-.07,0-.11,0-.08,0-.17,0-.25h0c0-.08,0-.14-.01-.21,0-.17-.02-.33-.04-.5,0-.09-.02-.18-.03-.27-.02-.16-.05-.32-.08-.48,0-.03,0-.05-.02-.08,0-.03-.01-.06-.02-.09-.11-.52-.25-1.02-.44-1.5-.02-.06-.04-.11-.07-.17-.04-.11-.09-.22-.14-.32-.06-.13-.12-.26-.18-.38-.07-.14-.14-.28-.22-.41-.06-.1-.12-.2-.18-.3-.05-.08-.1-.15-.15-.23,0,0,0,0,0,0-.02-.04-.05-.07-.07-.11-.03-.04-.05-.08-.08-.12-.03-.05-.07-.1-.11-.15-.02-.03-.03-.05-.05-.07-.01-.02-.03-.03-.04-.05-.11-.15-.23-.3-.35-.44-.01-.02-.03-.03-.04-.05l-.02-.02c-.12-.14-.25-.27-.37-.41-.02-.03-.04-.05-.07-.07h0c-.18-.18-.36-.35-.55-.52-.03-.02-.06-.05-.09-.07-.04-.03-.08-.07-.12-.1-.08-.06-.15-.12-.23-.19-.02-.02-.04-.03-.06-.05h0s-.08-.06-.12-.09c0,0,0,0,0,0-.06-.05-.13-.09-.2-.14,0,0,0,0-.01,0-.06-.04-.12-.09-.19-.13,.34,.19,.67,.4,.98,.63,0,0,0,0,0,0,.04,.03,.08,.06,.12,.09h0s.04,.03,.06,.05c.08,.06,.16,.12,.23,.19,.04,.03,.08,.07,.12,.1,.03,.02,.06,.05,.09,.07,.19,.16,.37,.34,.55,.52h0s.04,.05,.07,.07c.03,.03,.06,.06,.09,.09,.1,.1,.19,.21,.28,.31l.02,.02c.11,.13,.22,.26,.32,.39,.03,.03,.05,.06,.07,.1,.01,.02,.03,.03,.04,.05,.02,.03,.04,.05,.05,.07,.05,.07,.1,.14,.15,.22,.01,.02,.02,.03,.04,.05,.02,.04,.05,.07,.07,.11,0,0,0,0,0,0,.03,.05,.07,.1,.1,.15,.08,.13,.16,.26,.24,.39,.06,.11,.13,.23,.19,.35,.07,.15,.15,.3,.22,.45,.05,.1,.09,.21,.14,.32,.18,.45,.34,.92,.45,1.41,.02,.08,.04,.17,.06,.26,0,.03,.01,.06,.02,.09,0,.03,.01,.07,.02,.1,.05,.24,.08,.48,.11,.73,.01,.1,.02,.2,.03,.3,0,.07,.01,.13,.01,.2,0,.07,0,.14,.01,.21v.02s0,.02,0,.03c0,.07,0,.14,0,.2,0,.04,0,.07,0,.11Z"/></g></g></mask><linearGradient id="_ÂÁ_Ï_ÌÌ_È_ËÂÌÚ_102-34" x1="17.53" y1="15.37" x2="8.78" y2="9.01" xlink:href="#_ÂÁ_Ï_ÌÌ_È_ËÂÌÚ_102"/></defs><g id="solar_system"><path class="cls-41" d="M19.38,9.67c0,.08,0,.17,0,.25,0,.07,0,.14,0,.21,0,.09,0,.17-.02,.26,0,.04,0,.08,0,.12,0,.06,0,.12-.02,.17,0,.06-.01,.13-.02,.19,0,.03,0,.07-.01,.1,0,.03,0,.07-.01,.1-.12,.88-.37,1.72-.71,2.5-.09,.2-.18,.39-.28,.58-.06,.11-.12,.22-.18,.34-.05,.08-.1,.17-.15,.25-.21,.34-.43,.66-.68,.97-.12,.15-.25,.31-.38,.45-.34,.37-.7,.72-1.09,1.04-.36,.29-.73,.55-1.13,.79h0c-.5,.3-1.02,.56-1.57,.76-.1,.04-.21,.08-.31,.11-.09,.03-.18,.06-.27,.09-.07,.02-.15,.04-.22,.06-.84,.24-1.72,.36-2.63,.36-1.06,0-2.09-.17-3.04-.49-.21-.07-.41-.14-.61-.22-.32-.13-.63-.28-.94-.44-.09-.05-.18-.1-.26-.15-.02-.01-.05-.03-.07-.04-.01,0-.02-.01-.04-.02h0s-.06-.04-.1-.06c-.12-.07-.24-.15-.36-.23,0,0,0,0-.01,0-.06-.04-.11-.08-.17-.12h0c-.37-.26-.71-.55-1.04-.85-.32-.3-.61-.62-.89-.95-.03-.03-.05-.07-.08-.1-.15-.19-.29-.38-.42-.58,0-.01-.02-.02-.02-.03-.14-.21-.28-.43-.41-.66-.04-.07-.08-.14-.11-.21-.02-.03-.03-.06-.05-.09,0,0,0-.02-.01-.03-.02-.03-.03-.05-.04-.08-.47-.93-.79-1.95-.93-3.02-.02-.11-.03-.23-.04-.34-.01-.13-.02-.26-.03-.39,0-.04,0-.08,0-.12,0-.05,0-.1,0-.15,0-.1,0-.2,0-.29,0-.06,0-.11,0-.17,0-.03,0-.05,0-.08,0-.16,.01-.33,.02-.49,0-.07,.01-.14,.02-.2,0-.09,.02-.19,.03-.28H.08c.01-.09,.02-.19,.04-.28,0-.04,.01-.07,.02-.11,.02-.1,.03-.2,.05-.3H.19c.01-.06,.02-.12,.04-.17,.03-.15,.07-.3,.11-.45H.34s.01-.05,.02-.08c.01-.04,.02-.08,.03-.12,.03-.11,.07-.23,.11-.34,.07-.22,.16-.44,.25-.66H.75c.08-.19,.17-.38,.26-.57,0,0,0-.01,0-.02,.03-.07,.06-.13,.1-.19,0,0,0,0,0,0,.02-.03,.04-.07,.06-.1,.6-1.11,1.42-2.09,2.39-2.88,.68-.56,1.44-1.02,2.25-1.38,0,0,.01,0,.02,0,1.18-.51,2.49-.8,3.85-.8,.04,0,.08,0,.11,0,1.57,.02,3.05,.41,4.35,1.08,0,0,0,0,0,0,.16,.08,.31,.17,.46,.26,0,0,0,0,.01,0,.27,.16,.53,.33,.78,.52,0,0,0,0,0,0,.04,.03,.08,.06,.12,.09h0s.04,.03,.06,.05c.08,.06,.16,.12,.23,.19,.04,.03,.08,.07,.12,.1,.03,.02,.06,.05,.09,.07,.19,.16,.37,.34,.55,.52h0s.04,.05,.07,.07c.02,.02,.05,.05,.07,.08,.07,.07,.14,.14,.2,.22l.15,.18c.09,.1,.18,.22,.26,.33,.03,.04,.06,.08,.09,.12,.01,.02,.03,.03,.04,.05,.02,.02,.04,.05,.05,.07,.05,.06,.09,.13,.14,.2,.02,.02,.03,.05,.05,.07,.02,.04,.05,.07,.07,.11,0,0,0,0,0,0,.02,.03,.04,.07,.06,.1,0,.01,.01,.02,.02,.03,.08,.13,.16,.26,.24,.39,.01,.02,.03,.05,.04,.07,.05,.09,.1,.18,.15,.28,.02,.04,.04,.08,.06,.12,.05,.1,.1,.19,.14,.29,0,.01,.01,.02,.02,.03,.02,.04,.04,.09,.06,.13,.03,.07,.06,.14,.09,.2,.15,.36,.27,.73,.37,1.11,.02,.09,.05,.19,.07,.28,0,.02,.01,.05,.02,.07,.02,.07,.03,.14,.05,.2,0,.03,.01,.06,.02,.09,0,.03,.01,.05,.02,.08,.05,.25,.09,.49,.11,.74,.01,.09,.02,.18,.03,.28,0,.07,.01,.15,.02,.22,0,.07,0,.14,.01,.21v.03c0,.07,0,.14,0,.2,0,.04,0,.07,0,.11Z"/><path class="cls-6" d="M19.28,11.07c-.12,.88-.37,1.72-.71,2.5,0,0,0,0,0,0h0c-.24,.06-.52,.12-.85,.19-1.69,.35-4.45,.8-8.03,.9-3.48,.1-6.61-.2-8.57-.45-.02-.04-.04-.08-.06-.12-.02-.03-.03-.05-.04-.08-.47-.93-.79-1.95-.93-3.02,1.98,.81,5.68,1.99,9.89,1.74,3.69-.21,6.73-.91,8.61-1.46,.25-.07,.48-.14,.68-.2,0,0,0,0,0,0Z"/><path class="cls-6" d="M19.38,9.67c0,.08,0,.17,0,.25,0,.07,0,.14,0,.21-.17,0-.37,.01-.61,.02-1.7,.06-5.03,.16-9.06,.13-4.24-.03-7.94-.11-9.68-.15,0-.05,0-.1,0-.15,0-.1,0-.2,0-.29,0-.06,0-.11,0-.17,2.04,.09,5.93,.23,9.69,.21,3.81-.01,7.33-.21,9.1-.33,.22-.02,.42-.03,.58-.04h0c0,.07,0,.14,0,.2,0,.04,0,.07,0,.11Z"/><path class="cls-15" d="M19.34,10.51c0,.06,0,.12-.02,.17,0,.06-.01,.13-.02,.19,0,.03,0,.07-.01,.1h0c-.16,.04-.38,.09-.67,.15-1.61,.33-5.17,.92-9.6,.83C3.88,11.83,.84,10.92,.05,10.65c-.01-.13-.02-.26-.03-.39,1.04,.13,4.15,.47,9.61,.51,4.81,.04,7.76-.11,9.08-.21,.28-.02,.49-.04,.63-.05h0Z"/><path class="cls-9" d="M16.9,16.17c-.34,.37-.7,.72-1.09,1.04,0,0-.01,0-.02,0-.29-.03-.6-.06-.94-.08-1.34-.09-3-.09-4.35,.26-2.76,.72-8.2-.05-7.39-1.57,.64-1.2,5.91,.11,8.64,.45,1.25,.15,2.8,.1,4.11,0,.36-.03,.71-.06,1.02-.09,0,0,.01,0,.02,0Z"/><path class="cls-5" d="M3.69,16.15c-.61,.81,5.39,1.2,5.91,.7,.52-.49-4.87-2.08-5.91-.7Z"/><path class="cls-8" d="M17.96,14.74c-.21,.34-.43,.66-.68,.97,0,0-.01,0-.02,0-.33,.04-.65,.07-.96,.09-2.59,.16-4.98-.31-8.74-.58-2.62-.19-4.42,.14-5.48,.47-.15-.19-.29-.38-.42-.58,0-.01-.02-.02-.02-.03,3.52-.55,7.69,.1,11.61,.28,1.27,.06,2.55-.11,3.71-.37,.34-.07,.67-.16,.99-.25,0,0,0,0,.01,0Z"/><path class="cls-7" d="M14.68,18c-.5,.3-1.02,.56-1.57,.76-.1,.04-.21,.08-.31,.11-.09,.03-.18,.06-.27,.09-.02,0-.04,0-.06,0-.54-.01-1.14-.04-1.8-.08-.78-.05-1.64-.12-2.54-.22-1.3-.15-2.35-.36-3.16-.58-.06-.02-.12-.03-.18-.05-.02,0-.04-.01-.06-.02h0s-.06-.04-.1-.06c-.12-.07-.24-.15-.36-.23,0,0,0,0-.01,0-.06-.04-.11-.08-.17-.12,1.07,.29,2.73,.59,5.04,.63,1.62,.03,2.95-.02,3.98-.09h0c.62-.04,1.13-.09,1.54-.14,.01,0,.02,0,.04,0Z"/><path class="cls-12" d="M17.9,4.52h-.01c-.1,0-.21,.02-.34,.03-1.73,.13-6.19,.45-10.48,.63-3.2,.13-4.97,.01-5.88-.1,.6-1.11,1.42-2.09,2.39-2.88,1.34-.04,3.12,.04,5.35,.43,3.59,.63,6.18,.57,7.59,.45,.08,0,.16-.01,.23-.02,0,0,.01,0,.02,0l.19,.22,.15,.18,.28,.33h-.01c-.09,0-.19,0-.3,.01-1,.03-2.51,.03-4.61-.12-4.35-.32-5.71-.76-7.49-.38-1.79,.38-2.64,1.47-2.64,1.47,0,0,.74,.28,5.76,.16,3.88-.1,7.74-.49,9.29-.66,.12-.01,.23-.03,.32-.04h.01s.02,.03,.04,.05c.02,.04,.05,.07,.07,.11,0,0,0,0,0,0,.03,.05,.07,.1,.1,.15Z"/><path class="cls-14" d="M3.03,10.94s3.48,.1,6.36,.14c2.89,.04,5.27,.24,5.27,.24,0,0-2.46,.69-6.01,.46-3.55-.23-5.62-.83-5.62-.83Z"/><path class="cls-13" d="M3.64,16.57s.74,.44,2.67,.65c1.92,.2,5.3-.44,5.3-.44,0,0-2.66,.9-5.24,.7-1.94-.15-2.72-.91-2.72-.91Z"/><path class="cls-11" d="M19.35,8.9h0c-.16,.02-.35,.03-.56,.05-1.04,.08-2.72,.17-5.15,.22-4.61,.1-9.45-.23-9.32-.35,.13-.12,4.36,.02,8.7-.22,2.67-.14,4.6-.43,5.69-.63,.2-.04,.37-.07,.51-.1t0,0c.05,.24,.08,.48,.11,.73,.01,.1,.02,.2,.03,.3Z"/><path class="cls-10" d="M19.04,7.15c-.61,.07-1.95,.14-4.92,.13-5.68-.02-10.47,.01-11.73,.6-1.27,.59,.37,1.32,2.36,1.48,1.99,.16,8.22,.32,8.22,.32,0,0-10.08,.03-12.97-.24,0-.16,.01-.33,.02-.49,0-.07,.01-.14,.02-.2,0-.09,.02-.19,.03-.28H.08c.01-.09,.02-.19,.04-.28,0-.04,.01-.07,.02-.11,.02-.1,.03-.2,.05-.3H.19c.01-.06,.02-.12,.04-.17,.03-.15,.07-.3,.11-.45H.34s.01-.05,.02-.08c1.71-.16,5.44-.46,8.81-.4,3.58,.06,7.78-.56,9.42-.84,.03,.07,.06,.14,.09,.2,.15,.36,.27,.73,.37,1.11Z"/><path class="cls-6" d="M18.51,5.67c-1.56,.24-6.03,.88-10.05,.85-3.27-.03-6.28,.04-7.96,.1,.07-.22,.16-.44,.25-.66H.75c.08-.19,.17-.38,.26-.57,1.42,.05,4.92,.13,8.45-.02,3.42-.14,6.87-.64,8.4-.88,0,.01,.01,.02,.02,.03,.08,.13,.16,.26,.24,.39,.01,.02,.03,.05,.04,.07-1.59,.18-5.63,.62-8.31,.74-3.4,.16-5.5,.16-5.64,.26-.14,.1,2.61,.37,7.03,.13,3.21-.17,5.9-.54,7.13-.73,.05,.1,.1,.19,.14,.29Z"/><g class="cls-4"><path class="cls-39" d="M12.34,1.69c.83,1.61-.84,4.13-3.74,5.62-2.9,1.49-5.92,1.39-6.75-.22-.83-1.61,.84-4.13,3.74-5.62C8.49-.02,11.51,.08,12.34,1.69Z"/></g><path class="cls-46" d="M9.14,1.22c.18,.35-.74,1.17-2.06,1.85-1.31,.68-2.52,.95-2.7,.6-.18-.35,.74-1.17,2.06-1.85,1.31-.68,2.52-.95,2.7-.6Z"/><path class="cls-46" d="M4.01,4.12c.12,.24,.03,.54-.21,.66-.24,.12-.54,.03-.66-.21-.12-.24-.03-.54,.21-.66,.24-.12,.54-.03,.66,.21Z"/><path class="cls-16" d="M9.73,15.88c0,.16-.13,.28-.28,.28s-.28-.13-.28-.28,.13-.28,.28-.28,.28,.13,.28,.28Z"/><path class="cls-18" d="M11.83,8.25c0,.16-.13,.28-.28,.28s-.28-.13-.28-.28,.13-.28,.28-.28,.28,.13,.28,.28Z"/><path class="cls-21" d="M16.19,7.88c0,.16-.13,.28-.28,.28s-.28-.13-.28-.28,.13-.28,.28-.28,.28,.13,.28,.28Z"/><path class="cls-19" d="M12.43,12.54c.06,.06,.06,.14,0,.2-.05,.06-.14,.06-.2,0-.06-.06-.06-.14,0-.2,.05-.06,.14-.06,.2,0Z"/><circle class="cls-24" cx="17.47" cy="12.92" r=".28"/><path class="cls-20" d="M9.9,17.78c0,.16-.13,.28-.28,.28s-.28-.13-.28-.28,.13-.28,.28-.28,.28,.13,.28,.28Z"/><path class="cls-17" d="M1.92,9.08c0,.16-.13,.28-.28,.28s-.28-.13-.28-.28,.13-.28,.28-.28,.28,.13,.28,.28Z"/><path class="cls-23" d="M5.97,13.49c0,.16-.13,.28-.28,.28s-.28-.13-.28-.28,.13-.28,.28-.28,.28,.13,.28,.28Z"/><path class="cls-22" d="M14.09,14.29c0,.16-.13,.28-.28,.28s-.28-.13-.28-.28,.13-.28,.28-.28,.28,.13,.28,.28Z"/><circle class="cls-27" cx="13.48" cy="3.88" r=".51"/><path class="cls-28" d="M12.36,1.22c0,.28-.23,.51-.51,.51s-.51-.23-.51-.51,.23-.51,.51-.51,.51,.23,.51,.51Z"/><path class="cls-32" d="M2.6,13.12c0,.16-.13,.28-.28,.28s-.28-.13-.28-.28,.13-.28,.28-.28,.28,.13,.28,.28Z"/><path class="cls-37" d="M14.37,7.88c0,.16-.13,.28-.28,.28s-.28-.13-.28-.28,.13-.28,.28-.28,.28,.13,.28,.28Z"/><path class="cls-33" d="M12.89,17.22c0,.16-.13,.28-.28,.28s-.28-.13-.28-.28,.13-.28,.28-.28,.28,.13,.28,.28Z"/><path class="cls-36" d="M4.32,12.27c0,.07-.05,.12-.12,.12s-.12-.05-.12-.12,.05-.12,.12-.12,.12,.05,.12,.12Z"/><path class="cls-35" d="M7.74,9.83c0,.07-.05,.12-.12,.12s-.12-.05-.12-.12,.05-.12,.12-.12,.12,.05,.12,.12Z"/><path class="cls-30" d="M16,3.36c0,.13-.1,.23-.23,.23s-.23-.1-.23-.23,.1-.23,.23-.23,.23,.1,.23,.23Z"/><path class="cls-38" d="M14.48,10.54s-.02,.05-.05,.05-.05-.02-.05-.05,.02-.05,.05-.05,.05,.02,.05,.05Z"/><path class="cls-34" d="M10.12,14.68c0,.06-.05,.11-.11,.11s-.11-.05-.11-.11,.05-.11,.11-.11,.11,.05,.11,.11Z"/><path class="cls-29" d="M7.79,17.5c0,.06-.05,.11-.11,.11s-.11-.05-.11-.11,.05-.11,.11-.11,.11,.05,.11,.11Z"/><circle class="cls-31" cx="8.76" cy="17.78" r=".11"/><path class="cls-25" d="M7.67,15.29c0,.06-.05,.11-.11,.11s-.11-.05-.11-.11,.05-.11,.11-.11,.11,.05,.11,.11Z"/><path class="cls-26" d="M3.31,15.6c0,.06-.05,.11-.11,.11s-.11-.05-.11-.11,.05-.11,.11-.11,.11,.05,.11,.11Z"/><path class="cls-45" d="M19.38,9.67c0,.08,0,.17,0,.25,0,.07,0,.14,0,.21,0,.09,0,.17-.02,.26,0,.04,0,.08,0,.12,0,.06,0,.12-.02,.17,0,.06-.01,.13-.02,.19,0,.03,0,.07-.01,.1,0,.03,0,.07-.01,.1-.12,.88-.37,1.72-.71,2.5-.09,.2-.18,.39-.28,.58-.06,.11-.12,.22-.18,.34-.05,.08-.1,.17-.15,.25-.21,.34-.43,.66-.68,.97-.12,.15-.25,.31-.38,.45-.34,.37-.7,.72-1.09,1.04-.36,.29-.73,.55-1.13,.79h0c-.5,.3-1.02,.56-1.57,.76-.1,.04-.21,.08-.31,.11-.09,.03-.18,.06-.27,.09-.07,.02-.15,.04-.22,.06-.84,.24-1.72,.36-2.63,.36-1.06,0-2.09-.17-3.04-.49-.21-.07-.41-.14-.61-.22-.32-.13-.63-.28-.94-.44-.09-.05-.18-.1-.26-.15-.02-.01-.05-.03-.07-.04-.01,0-.02-.01-.04-.02h0s-.06-.04-.1-.06c-.12-.07-.24-.15-.36-.23,0,0,0,0-.01,0-.06-.04-.11-.08-.17-.12h0c-.37-.26-.71-.55-1.04-.85-.32-.3-.61-.62-.89-.95-.03-.03-.05-.07-.08-.1-.15-.19-.29-.38-.42-.58,0-.01-.02-.02-.02-.03-.14-.21-.28-.43-.41-.66-.04-.07-.08-.14-.11-.21-.02-.03-.03-.06-.05-.09,2.67,.2,6.74,.05,11.12-1.77,3.56-1.48,5.68-3.31,6.94-4.85,.02,.07,.03,.14,.05,.2,0,.03,.01,.06,.02,.09,0,.03,.01,.05,.02,.08,.05,.25,.09,.49,.11,.74,.01,.09,.02,.18,.03,.28,0,.07,.01,.15,.02,.22,0,.07,0,.14,.01,.21v.03c0,.07,0,.14,0,.2,0,.04,0,.07,0,.11Z"/><g class="cls-43"><path class="cls-40" d="M19.38,9.67c0,.08,0,.17,0,.25,0,.07,0,.14,0,.21,0,.09,0,.17-.02,.26,0,.04,0,.08-.01,.12,0,.06,0,.12-.01,.17,0,.06-.01,.11-.02,.17,0,.04,0,.08-.02,.12,0,.03,0,.07-.01,.1-.13,.88-.37,1.72-.72,2.5h0c-.08,.19-.17,.38-.27,.56-.06,.11-.12,.22-.18,.34-.05,.09-.11,.18-.16,.27-.21,.34-.44,.66-.68,.97-.12,.15-.25,.31-.39,.45-.34,.37-.7,.72-1.09,1.03-.36,.29-.74,.56-1.14,.8-.49,.29-1,.54-1.54,.74-.1,.04-.21,.08-.31,.11-.11,.04-.22,.07-.32,.1-.05,.02-.11,.03-.16,.05-.84,.24-1.72,.36-2.63,.36-1.06,0-2.09-.17-3.04-.49-.21-.07-.41-.14-.61-.22-.32-.13-.63-.28-.94-.44-.09-.05-.18-.1-.26-.15-.02,0-.03-.02-.05-.03,0,0-.02,0-.03-.02-.05-.03-.09-.05-.13-.08-.11-.06-.21-.13-.32-.2,.07,.04,.13,.08,.2,.11,.15,.08,.3,.16,.46,.23,.16,.07,.32,.14,.48,.21,.2,.08,.4,.16,.61,.22,.96,.32,1.98,.49,3.04,.49,.53,0,1.06-.04,1.57-.13,.36-.06,.71-.14,1.06-.23,.16-.05,.32-.1,.48-.15,.1-.03,.21-.07,.31-.11,.2-.07,.39-.15,.58-.24h0c.62-.28,1.2-.62,1.74-1.02h0c.36-.26,.69-.55,1.01-.86h0c.15-.15,.3-.3,.44-.46,.23-.26,.45-.53,.66-.81,.2-.28,.39-.57,.57-.87,.06-.11,.12-.22,.18-.34,0,0,0-.01,0-.02,.4-.77,.7-1.61,.88-2.49,.01-.05,.02-.11,.03-.16,.03-.18,.06-.37,.09-.56,0-.02,0-.04,0-.07,.01-.11,.02-.22,.03-.34,.02-.2,.03-.39,.03-.59,0-.05,0-.11,0-.16,0-.03,0-.06,0-.09,0-.04,0-.07,0-.11,0-.08,0-.17,0-.25h0c0-.08,0-.14-.01-.21,0-.17-.02-.33-.04-.5,0-.09-.02-.18-.03-.27-.02-.16-.05-.32-.08-.48,0-.03,0-.05-.02-.08,0-.03-.01-.06-.02-.09-.11-.52-.25-1.02-.44-1.5-.02-.06-.04-.11-.07-.17-.04-.11-.09-.22-.14-.32-.06-.13-.12-.26-.18-.38-.07-.14-.14-.28-.22-.41-.06-.1-.12-.2-.18-.3-.05-.08-.1-.15-.15-.23,0,0,0,0,0,0-.02-.04-.05-.07-.07-.11-.03-.04-.05-.08-.08-.12-.03-.05-.07-.1-.11-.15-.02-.03-.03-.05-.05-.07-.01-.02-.03-.03-.04-.05-.11-.15-.23-.3-.35-.44-.01-.02-.03-.03-.04-.05l-.02-.02c-.12-.14-.25-.27-.37-.41-.02-.03-.04-.05-.07-.07h0c-.18-.18-.36-.35-.55-.52-.03-.02-.06-.05-.09-.07-.04-.03-.08-.07-.12-.1-.08-.06-.15-.12-.23-.19-.02-.02-.04-.03-.06-.05h0s-.08-.06-.12-.09c0,0,0,0,0,0-.06-.05-.13-.09-.2-.14,0,0,0,0-.01,0-.06-.04-.12-.09-.19-.13,.34,.19,.67,.4,.98,.63,0,0,0,0,0,0,.04,.03,.08,.06,.12,.09h0s.04,.03,.06,.05c.08,.06,.16,.12,.23,.19,.04,.03,.08,.07,.12,.1,.03,.02,.06,.05,.09,.07,.19,.16,.37,.34,.55,.52h0s.04,.05,.07,.07c.03,.03,.06,.06,.09,.09,.1,.1,.19,.21,.28,.31l.02,.02c.11,.13,.22,.26,.32,.39,.03,.03,.05,.06,.07,.1,.01,.02,.03,.03,.04,.05,.02,.03,.04,.05,.05,.07,.05,.07,.1,.14,.15,.22,.01,.02,.02,.03,.04,.05,.02,.04,.05,.07,.07,.11,0,0,0,0,0,0,.03,.05,.07,.1,.1,.15,.08,.13,.16,.26,.24,.39,.06,.11,.13,.23,.19,.35,.07,.15,.15,.3,.22,.45,.05,.1,.09,.21,.14,.32,.18,.45,.34,.92,.45,1.41,.02,.08,.04,.17,.06,.26,0,.03,.01,.06,.02,.09,0,.03,.01,.07,.02,.1,.05,.24,.08,.48,.11,.73,.01,.1,.02,.2,.03,.3,0,.07,.01,.13,.01,.2,0,.07,0,.14,.01,.21v.02s0,.02,0,.03c0,.07,0,.14,0,.2,0,.04,0,.07,0,.11Z"/></g></g></svg>