<?xml version="1.0" encoding="UTF-8"?><svg id="Layer_2" xmlns="http://www.w3.org/2000/svg" xmlns:xlink="http://www.w3.org/1999/xlink" viewBox="0 0 7.12 7.12"><defs><style>.cls-1{fill:url(#_ÂÁ_Ï_ÌÌ_È_ËÂÌÚ_156-2);}.cls-1,.cls-2{mix-blend-mode:multiply;}.cls-3{opacity:.09;}.cls-3,.cls-4,.cls-5{fill:#fff;}.cls-6{mask:url(#mask);}.cls-7{filter:url(#luminosity-noclip-2);}.cls-8{fill:url(#_ÂÁ_Ï_ÌÌ_È_ËÂÌÚ_102-2);opacity:.94;}.cls-9{fill:url(#_ÂÁ_Ï_ÌÌ_È_ËÂÌÚ_102);}.cls-9,.cls-10{opacity:.6;}.cls-11{fill:url(#_ÂÁ_Ï_ÌÌ_È_ËÂÌÚ_211);}.cls-12{mask:url(#mask-3);}.cls-13{mask:url(#mask-2);}.cls-14{mask:url(#mask-1);}.cls-10,.cls-15{fill:#9f3600;}.cls-16{fill:#510b00;opacity:.54;}.cls-4{opacity:.8;}.cls-5{opacity:.23;}.cls-15{opacity:.4;}.cls-2{fill:url(#_ÂÁ_Ï_ÌÌ_È_ËÂÌÚ_156);}</style><radialGradient id="_ÂÁ_Ï_ÌÌ_È_ËÂÌÚ_211" cx="2.22" cy="1.82" fx="2.22" fy="1.82" r="3.56" gradientUnits="userSpaceOnUse"><stop offset=".17" stop-color="#bdffe2"/><stop offset="1" stop-color="#9e86a6"/></radialGradient><filter id="luminosity-noclip-2" x="1.59" y=".46" width="5.53" height="6.66" color-interpolation-filters="sRGB" filterUnits="userSpaceOnUse"><feFlood flood-color="#fff" result="bg"/><feBlend in="SourceGraphic" in2="bg"/></filter><filter id="luminosity-noclip-3" x="7540.97" y="-7921.02" width="-32766" height="32766" color-interpolation-filters="sRGB" filterUnits="userSpaceOnUse"><feFlood flood-color="#fff" result="bg"/><feBlend in="SourceGraphic" in2="bg"/></filter><mask id="mask-1" x="7540.97" y="-7921.02" width="-32766" height="32766" maskUnits="userSpaceOnUse"/><linearGradient id="_ÂÁ_Ï_ÌÌ_È_ËÂÌÚ_156" x1="6.44" y1="5.65" x2="3.23" y2="3.32" gradientUnits="userSpaceOnUse"><stop offset="0" stop-color="#fff"/><stop offset="1" stop-color="#000"/></linearGradient><mask id="mask" x="1.59" y=".46" width="5.53" height="6.66" maskUnits="userSpaceOnUse"><g class="cls-7"><g class="cls-14"><path class="cls-2" d="M7.12,3.56s0,.06,0,.09c0,.03,0,.05,0,.08,0,.03,0,.06,0,.09,0,.01,0,.03,0,.04,0,.02,0,.04,0,.06,0,.02,0,.04,0,.06,0,.01,0,.03,0,.04,0,.01,0,.03,0,.04-.05,.32-.14,.63-.26,.92h0c-.03,.07-.06,.14-.1,.21-.02,.04-.04,.08-.07,.12-.02,.03-.04,.07-.06,.1-.08,.12-.16,.24-.25,.36-.05,.06-.09,.11-.14,.17-.12,.14-.26,.26-.4,.38-.13,.11-.27,.21-.42,.29-.18,.11-.37,.2-.56,.27-.04,.01-.08,.03-.11,.04-.04,.01-.08,.03-.12,.04-.02,0-.04,.01-.06,.02-.31,.09-.63,.13-.97,.13-.39,0-.77-.06-1.12-.18-.08-.02-.15-.05-.22-.08-.12-.05-.23-.1-.34-.16-.03-.02-.06-.03-.1-.05,0,0-.01,0-.02,0,0,0,0,0,0,0-.02,0-.03-.02-.05-.03-.04-.02-.08-.05-.12-.07,.02,.01,.05,.03,.07,.04,.06,.03,.11,.06,.17,.09,.06,.03,.12,.05,.17,.08,.07,.03,.15,.06,.22,.08,.35,.12,.73,.18,1.12,.18,.2,0,.39-.02,.58-.05,.13-.02,.26-.05,.39-.09,.06-.02,.12-.03,.18-.06,.04-.01,.08-.03,.11-.04,.07-.03,.14-.06,.21-.09h0c.23-.1,.44-.23,.64-.38h0c.13-.1,.26-.2,.37-.32h0c.06-.05,.11-.11,.16-.17,.09-.1,.17-.19,.24-.3,.08-.1,.14-.21,.21-.32,.02-.04,.05-.08,.07-.12,0,0,0,0,0,0,.15-.28,.26-.59,.32-.91,0-.02,0-.04,.01-.06,.01-.07,.02-.14,.03-.2,0,0,0-.02,0-.02,0-.04,0-.08,.01-.12,0-.07,.01-.14,.01-.22,0-.02,0-.04,0-.06,0-.01,0-.02,0-.03,0-.01,0-.03,0-.04,0-.03,0-.06,0-.09h0s0-.05,0-.08c0-.06,0-.12-.02-.18,0-.03,0-.07-.01-.1,0-.06-.02-.12-.03-.18,0,0,0-.02,0-.03,0-.01,0-.02,0-.03-.04-.19-.09-.37-.16-.55,0-.02-.02-.04-.02-.06-.02-.04-.03-.08-.05-.12-.02-.05-.04-.09-.07-.14-.03-.05-.05-.1-.08-.15-.02-.04-.04-.08-.07-.11-.02-.03-.03-.06-.05-.08,0,0,0,0,0,0,0-.01-.02-.03-.03-.04,0-.01-.02-.03-.03-.04-.01-.02-.03-.04-.04-.06,0,0-.01-.02-.02-.03,0,0,0-.01-.01-.02-.04-.06-.08-.11-.13-.16,0,0,0-.01-.01-.02h0c-.04-.06-.09-.11-.14-.16,0,0-.02-.02-.02-.03h0c-.06-.07-.13-.13-.2-.19-.01,0-.02-.02-.03-.03-.01-.01-.03-.03-.05-.04-.03-.02-.06-.05-.09-.07,0,0-.02-.01-.02-.02h0s-.03-.02-.04-.03c0,0,0,0,0,0-.02-.02-.05-.03-.07-.05,0,0,0,0,0,0-.02-.02-.05-.03-.07-.05,.13,.07,.25,.15,.36,.23,0,0,0,0,0,0,.01,.01,.03,.02,.04,.03h0s.02,.01,.02,.02c.03,.02,.06,.04,.09,.07,.02,.01,.03,.03,.05,.04,.01,0,.02,.02,.03,.03,.07,.06,.14,.12,.2,.19h0s.02,.02,.02,.03c.01,.01,.02,.02,.03,.03,.04,.04,.07,.08,.1,.12h0c.04,.05,.08,.1,.12,.15,0,.01,.02,.02,.03,.04,0,0,0,.01,.01,.02,0,0,.01,.02,.02,.03,.02,.03,.04,.05,.06,.08,0,0,0,.01,.01,.02,0,.01,.02,.03,.03,.04,0,0,0,0,0,0,.01,.02,.02,.04,.03,.06,.03,.05,.06,.1,.09,.14,.02,.04,.05,.08,.07,.13,.03,.05,.05,.11,.08,.16,.02,.04,.03,.08,.05,.12,.07,.17,.12,.34,.17,.52,0,.03,.01,.06,.02,.09v.03s.01,.02,.01,.04c.02,.09,.03,.18,.04,.27,0,.04,0,.07,.01,.11,0,.02,0,.05,0,.07,0,.03,0,.05,0,.08h0s0,.01,0,.02c0,.02,0,.05,0,.07,0,.01,0,.03,0,.04Z"/></g></g></mask><linearGradient id="_ÂÁ_Ï_ÌÌ_È_ËÂÌÚ_102" x1="6.44" y1="5.65" x2="3.23" y2="3.32" gradientUnits="userSpaceOnUse"><stop offset="0" stop-color="#fff"/><stop offset="1" stop-color="#fff"/></linearGradient><filter id="luminosity-noclip-4" x="7540.97" y="-7921.02" width="-32766" height="32766" color-interpolation-filters="sRGB" filterUnits="userSpaceOnUse"><feFlood flood-color="#fff" result="bg"/><feBlend in="SourceGraphic" in2="bg"/></filter><mask id="mask-3" x="7540.97" y="-7921.02" width="-32766" height="32766" maskUnits="userSpaceOnUse"/><linearGradient id="_ÂÁ_Ï_ÌÌ_È_ËÂÌÚ_156-2" x1="-229.9" y1="-26.68" x2="-229.66" y2="-24.88" gradientTransform="translate(254.62 -88.53) rotate(-27.25) scale(1.15 1.36)" xlink:href="#_ÂÁ_Ï_ÌÌ_È_ËÂÌÚ_156"/><mask id="mask-2" x=".65" y=".22" width="4.01" height="2.92" maskUnits="userSpaceOnUse"><g class="cls-12"><path class="cls-1" d="M4.58,.69c.3,.59-.31,1.52-1.37,2.06-1.06,.55-2.17,.51-2.48-.08s.31-1.52,1.37-2.06C3.17,.06,4.27,.09,4.58,.69Z"/></g></mask><linearGradient id="_ÂÁ_Ï_ÌÌ_È_ËÂÌÚ_102-2" x1="-229.9" y1="-26.68" x2="-229.66" y2="-24.88" gradientTransform="translate(254.62 -88.53) rotate(-27.25) scale(1.15 1.36)" xlink:href="#_ÂÁ_Ï_ÌÌ_È_ËÂÌÚ_102"/></defs><g id="solar_system"><path class="cls-11" d="M7.12,3.55s0,.06,0,.09c0,.03,0,.05,0,.08,0,.03,0,.06,0,.09,0,.01,0,.03,0,.04,0,.02,0,.04,0,.06,0,.02,0,.05,0,.07,0,.01,0,.02,0,.04,0,.01,0,.03,0,.04-.02,.11-.03,.21-.06,.32-.05,.2-.11,.4-.2,.59h0s0,0,0,.01c-.03,.07-.07,.14-.1,.21-.02,.04-.04,.08-.07,.12-.02,.03-.04,.06-.05,.09-.08,.12-.16,.24-.25,.36-.04,.05-.08,.1-.12,.14h0s-.01,.02-.02,.02c-.09,.1-.18,.19-.28,.28-.02,.02-.03,.03-.05,.04-.02,.02-.04,.04-.07,.06-.13,.11-.27,.2-.41,.29h0c-.18,.11-.38,.2-.58,.28-.04,.01-.08,.03-.11,.04-.03,.01-.07,.02-.1,.03-.03,0-.05,.02-.08,.02-.13,.04-.26,.06-.39,.09-.15,.02-.3,.04-.45,.04-.04,0-.08,0-.13,0-.08,0-.16,0-.25,0-.15-.01-.3-.03-.45-.06-.14-.03-.29-.07-.42-.11-.08-.02-.15-.05-.22-.08-.05-.02-.11-.04-.16-.07-.06-.03-.13-.06-.19-.09-.03-.02-.06-.03-.1-.05,0,0-.02,0-.03-.02,0,0,0,0-.01,0h0s-.02-.01-.04-.02c-.04-.03-.09-.06-.13-.08,0,0,0,0,0,0-.02-.01-.04-.03-.06-.04h0c-.13-.1-.26-.2-.38-.31-.12-.11-.22-.23-.33-.35,0-.01-.02-.02-.03-.04-.05-.07-.11-.14-.16-.21,0,0,0,0,0-.01-.05-.08-.1-.16-.15-.24-.01-.03-.03-.05-.04-.08,0-.01-.01-.02-.02-.03,0,0,0,0,0,0,0,0-.01-.02-.02-.03,0,0,0-.01-.01-.02-.02-.04-.04-.09-.06-.13-.03-.06-.05-.11-.07-.17-.09-.23-.15-.47-.19-.72,0-.02,0-.04,0-.06,0-.04-.01-.08-.01-.13,0-.05,0-.1-.01-.14,0-.01,0-.03,0-.04,0-.02,0-.04,0-.06,0-.04,0-.07,0-.11,0-.02,0-.04,0-.06,0-.01,0-.02,0-.03,0-.06,0-.12,0-.18,0-.03,0-.05,0-.08,0-.03,0-.07,.01-.1H.03s0-.07,.01-.1c0-.01,0-.03,0-.04,0-.04,.01-.07,.02-.11H.07s0-.04,.01-.06c.01-.06,.03-.11,.04-.17H.12s0-.02,0-.03c0-.01,0-.03,.01-.04,.01-.04,.03-.08,.04-.12,.03-.08,.05-.15,.08-.23,0,0,0,0,0-.01H.27c.03-.07,.06-.14,.1-.21,0,0,0,0,0,0,.01-.02,.02-.05,.04-.07,0,0,0,0,0,0,0-.01,.01-.02,.02-.04,.11-.21,.25-.41,.4-.59,.11-.13,.23-.26,.36-.37,.04-.03,.08-.07,.12-.1,.09-.07,.18-.14,.27-.2,.17-.12,.36-.22,.56-.3,0,0,0,0,0,0,0,0,0,0,.01,0,.43-.19,.91-.29,1.4-.29,.01,0,.03,0,.04,0,.53,0,1.04,.13,1.49,.35,.04,.02,.07,.03,.11,.05,0,0,0,0,0,0,.06,.03,.11,.06,.17,.1,0,0,0,0,0,0,.1,.06,.19,.12,.29,.19,0,0,0,0,0,0,.01,.01,.03,.02,.04,.03h0s.02,.01,.02,.02c.03,.02,.06,.04,.09,.07,.02,.01,.03,.03,.05,.04,.01,0,.02,.02,.03,.03,.07,.06,.14,.12,.2,.19h0s.02,.02,.02,.03h0s.02,.02,.02,.03c.03,.03,.05,.05,.08,.08l.06,.07s.07,.08,.1,.12c.01,.01,.02,.03,.03,.04,0,0,0,.01,.01,.02,0,0,.01,.02,.02,.03,.02,.02,.03,.05,.05,.07,0,0,.01,.02,.02,.03,0,.01,.02,.03,.03,.04,0,0,0,0,0,0,0,.01,.02,.02,.02,.04,0,0,0,0,0,.01,.03,.05,.06,.1,.09,.14,0,0,0,.02,.01,.03,0,.02,.02,.04,.03,.05,0,.02,.02,.03,.02,.05,0,.01,.02,.03,.02,.05,0,0,0,.01,0,.02,.01,.03,.03,.06,.04,.09,0,0,0,0,0,.01,0,.02,.01,.03,.02,.05,.01,.02,.02,.05,.03,.07,.04,.1,.08,.21,.11,.31,0,.03,.02,.06,.03,.1,0,.03,.02,.07,.03,.1,0,0,0,.02,0,.03,0,.02,.01,.05,.02,.08v.03s.01,.02,.01,.03c0,.01,0,.02,0,.03,.01,.08,.03,.16,.04,.24,0,.03,0,.07,0,.1,0,.03,0,.05,0,.08,0,.03,0,.05,0,.08h0s0,.06,0,.09c0,.01,0,.03,0,.04Z"/><path class="cls-15" d="M7.12,3.55s0,.06,0,.09c0,.03,0,.05,0,.08,0,.03,0,.06,0,.09,0,.01,0,.03,0,.04,0,.02,0,.04,0,.06,0,.02,0,.05,0,.07,0,.01,0,.02,0,.04,0,.01,0,.03,0,.04-.02,.11-.03,.21-.06,.32-.05,.2-.11,.4-.2,.59h0s0,0,0,.01c-.03,.07-.07,.14-.1,.21-.02,.04-.04,.08-.07,.12-.02,.03-.04,.06-.05,.09-.08,.12-.16,.24-.25,.36-.04,.05-.08,.1-.12,.14,.02-.04,.86-1.99,.21-2-.66-.01-.71,.83-1.57,.71-.86-.11-1.57-1.15-2.28-.5-.71,.65-.02,1.45,.69,2.22,.27,.3,.38,.56,.4,.78-.04,0-.08,0-.13,0-.24,0-.47-.02-.69-.07-.14-.03-.29-.07-.42-.11-.08-.02-.15-.05-.22-.08-.05-.02-.11-.04-.16-.07-.06-.03-.13-.06-.19-.09-.03-.02-.06-.03-.1-.05,0,0-.02,0-.03-.02,0,0,0,0-.01,0h0s-.02-.01-.04-.02c-.04-.03-.09-.06-.13-.08,0,0,0,0,0,0-.02-.01-.04-.03-.06-.04h0c-.13-.1-.26-.2-.38-.31-.12-.11-.22-.23-.33-.35,0-.01-.02-.02-.03-.04-.05-.07-.11-.14-.16-.21,0,0,0,0,0-.01-.05-.08-.1-.16-.15-.24-.01-.03-.03-.05-.04-.08,0-.01-.01-.02-.02-.03,0,0,0,0,0,0,0,0-.01-.02-.02-.03,0,0,0-.01-.01-.02-.02-.04-.04-.09-.06-.13-.03-.06-.05-.11-.07-.17-.09-.25-.16-.51-.2-.78,0-.04-.01-.08-.01-.13,0-.05,0-.1-.01-.14,0-.01,0-.03,0-.04,0-.02,0-.04,0-.06,0-.04,0-.07,0-.11,0-.02,0-.04,0-.06,0-.01,0-.02,0-.03H0c0-.06,0-.12,0-.18,0-.03,0-.05,0-.08,0-.03,0-.07,.01-.1H.03s0-.07,.01-.1c0-.01,0-.03,0-.04,0-.04,.01-.07,.02-.11H.07s0-.04,.01-.06c.01-.06,.03-.11,.04-.17H.12s0-.02,0-.03c0-.01,0-.03,.01-.04,.01-.04,.03-.08,.04-.12,.03-.08,.05-.15,.08-.23,0,0,0,0,0-.01H.27c.03-.07,.06-.14,.1-.21,0,0,0,0,0,0,.01-.02,.02-.05,.04-.07,0,0,0,0,0,0,0-.01,.01-.02,.02-.04,.11-.21,.25-.41,.4-.59,.11-.13,.23-.26,.36-.37,.04-.03,.08-.07,.12-.1,.07-.06,.14-.11,.22-.16,.02-.01,.04-.03,.06-.04,.1-.06,.2-.12,.3-.18,.08-.05,.17-.09,.26-.13,0,0,0,0,0,0,0,0,0,0,.01,0,.43-.19,.91-.29,1.4-.29,.01,0,.03,0,.04,0,.51,0,1,.12,1.44,.32,.02,0,.03,.01,.05,.02,.04,.02,.07,.03,.11,.05,0,0,0,0,0,0,.06,.03,.11,.06,.17,.1,0,0,0,0,0,0,.08,.05,.16,.1,.24,.15,.02,.01,.03,.02,.05,.04,0,0,0,0,0,0,.01,.01,.03,.02,.04,.03h0s.02,.01,.02,.02c.03,.02,.06,.04,.09,.07,.02,.01,.03,.03,.05,.04,.01,0,.02,.02,.03,.03,.07,.06,.14,.12,.2,.19h0s.02,.02,.02,.03h0s.02,.02,.02,.03c.03,.03,.05,.05,.08,.08l.06,.07s.07,.08,.1,.12c.01,.01,.02,.03,.03,.04,0,0,0,.01,.01,.02,0,0,.01,.02,.02,.03,.02,.02,.03,.05,.05,.07,0,0,.01,.02,.02,.03,0,.01,.02,.03,.03,.04,0,0,0,0,0,0,0,.01,.02,.02,.02,.04,0,0,0,0,0,.01,.03,.05,.06,.1,.09,.14,0,0,0,.02,.01,.03,0,.02,.02,.04,.03,.05,0,.02,.02,.03,.02,.05,0,.01,.02,.03,.02,.05,0,0,0,.01,0,.02,.01,.03,.03,.06,.04,.09,0,0,0,0,0,.01,0,.02,.01,.03,.02,.05,.01,.02,.02,.05,.03,.07,.04,.1,.08,.21,.11,.31,0,.03,.02,.06,.03,.1,0,.03,.02,.07,.03,.1,0,0,0,.02,0,.03,0,.02,.01,.05,.02,.08v.03s.01,.02,.01,.03c0,.01,0,.02,0,.03,.01,.08,.03,.16,.04,.24,0,.03,0,.07,0,.1,0,.03,0,.05,0,.08,0,.03,0,.05,0,.08h0s0,.04,0,.05c0,.01,0,.03,0,.04,0,.01,0,.03,0,.04Z"/><path class="cls-16" d="M3.31,7.11c-.15-.01-.3-.03-.45-.06-.14-.03-.29-.07-.42-.11-.08-.02-.15-.05-.22-.08-.05-.02-.11-.04-.16-.07-.06-.03-.13-.06-.19-.09-.03-.02-.06-.03-.1-.05,0,0-.02,0-.03-.02,0,0,0,0-.01,0h0s-.02-.01-.04-.02c-.04-.03-.09-.06-.13-.08,0,0,0,0,0,0-.02-.01-.04-.03-.06-.04h0c-.13-.1-.26-.2-.38-.31-.12-.11-.22-.23-.33-.35,0-.01-.02-.02-.03-.04-.05-.07-.11-.14-.16-.21,0,0,0,0,0-.01-.05-.08-.1-.16-.15-.24-.01-.03-.03-.05-.04-.08,0-.01-.01-.02-.02-.03,0,0,0,0,0,0,0,0-.01-.02-.02-.03,0,0,0-.01-.01-.02-.02-.04-.04-.09-.06-.13-.03-.06-.05-.11-.07-.17-.09-.23-.15-.47-.19-.72,.15,.32,.41,.75,.84,1.12,.8,.69,1.27,.55,1.95,1.14,.34,.3,.45,.56,.48,.75Z"/><path class="cls-10" d="M7.12,3.48c-.13-.11-.31-.22-.53-.3-.72-.26-1.16,.21-1.93-.12-.77-.33,.14-.79,.2-1.2,.06-.4-1.02-.59-.89-1.01,.13-.42,1.08,.15,1.39,0,.13-.06,.2-.13,.25-.19,.02,.01,.03,.02,.05,.04,0,0,0,0,0,0,.01,.01,.03,.02,.04,.03h0s.02,.01,.02,.02c.03,.02,.06,.04,.09,.07,.02,.01,.03,.03,.05,.04,.01,0,.02,.02,.03,.03,.07,.06,.14,.12,.2,.19h0s.02,.02,.02,.03h0s.02,.02,.02,.03c.03,.03,.05,.05,.08,.08l.06,.07s.07,.08,.1,.12c.01,.01,.02,.03,.03,.04,0,0,0,.01,.01,.02,0,0,.01,.02,.02,.03,.02,.02,.03,.05,.05,.07,0,0,.01,.02,.02,.03,0,.01,.02,.03,.03,.04,0,0,0,0,0,0,0,.01,.02,.02,.02,.04,0,0,0,0,0,.01,.03,.05,.06,.1,.09,.14,0,0,0,.02,.01,.03,0,.02,.02,.04,.03,.05,0,.02,.02,.03,.02,.05,0,.01,.02,.03,.02,.05,0,0,0,.01,0,.02,.01,.03,.03,.06,.04,.09,0,0,0,0,0,.01,0,.02,.01,.03,.02,.05,.01,.02,.02,.05,.03,.07,.04,.1,.08,.21,.11,.31,0,.03,.02,.06,.03,.1,0,.03,.02,.07,.03,.1,0,0,0,.02,0,.03,0,.02,.01,.05,.02,.08v.03s.01,.02,.01,.03c0,.01,0,.02,0,.03,.01,.08,.03,.16,.04,.24,0,.03,0,.07,0,.1,0,.03,0,.05,0,.08,0,.03,0,.05,0,.08h0s0,.04,0,.05Z"/><path class="cls-5" d="M5.93,6.22s-.03,.03-.05,.04c-.02,.02-.04,.04-.07,.06-.13,.11-.27,.2-.41,.29h0c-.18,.11-.38,.2-.58,.28-.04,.01-.08,.03-.11,.04-.03,.01-.07,.02-.1,.03-.03,0-.05,.02-.08,.02-.13,.04-.26,.06-.39,.09,0-.1-.01-.21-.03-.33-.07-.66-1.61-1.71-.99-2.12,.62-.42,1.42,.26,2.02,.39,.6,.13,.53-.55,1.04-.61,.41-.05-.05,1.29-.25,1.82Z"/><path class="cls-3" d="M1.48,1.4c-.22,.31-.66,.51-.8,.96-.14,.45,.54,1.17-.3,1.12-.14,0-.27-.01-.38,0,0-.06,0-.12,0-.18,0-.03,0-.05,0-.08,0-.03,0-.07,.01-.1H.03s0-.07,.01-.1c0-.01,0-.03,0-.04,0-.04,.01-.07,.02-.11H.07s0-.04,.01-.06c.01-.06,.03-.11,.04-.17H.12s0-.02,0-.03c0-.01,0-.03,.01-.04,.01-.04,.03-.08,.04-.12,.03-.08,.05-.15,.08-.23,0,0,0,0,0-.01H.27c.03-.07,.06-.14,.1-.21,0,0,0,0,0,0,.01-.02,.02-.05,.04-.07,0,0,0,0,0,0,0-.01,.01-.02,.02-.04,.11-.21,.25-.41,.4-.59,.11-.13,.23-.26,.36-.37,.04-.03,.08-.07,.12-.1,.07-.06,.14-.11,.22-.16,.05,.21,.1,.55-.05,.76Z"/><path class="cls-16" d="M6.58,2.62c-.3,.11-.57-.34-.9-.48-.34-.14-.77-.47-.53-.67,.24-.2,.35-.36,.5-.48,.15-.12,.31,.23,.42,.57s.67,1,.52,1.06Z"/><path class="cls-16" d="M5.59,2.19s-.12-.13-.27-.22c-.15-.09-.24-.21-.29-.21s.05,.19,.22,.32c.17,.13,.32,.14,.34,.11Z"/><path class="cls-16" d="M1.23,5.82c0-.11,.66,.11,1.18,.37,.52,.26,.77,.78,.66,.79-.11,0-.4-.23-1-.59-.46-.28-.83-.48-.84-.56Z"/><path class="cls-16" d="M1.14,6.02c-.08,.05,.86,.65,.97,.59,.11-.06-.82-.68-.97-.59Z"/><path class="cls-10" d="M3.98,2.78c-.12,.06,.38,.54,1.04,.63,.66,.09,1.2-.11,1.25-.18,.05-.07-.69,.04-1.24-.01-.55-.05-.99-.46-1.05-.44Z"/><path class="cls-10" d="M6.41,3.21c-.11,.06,.46,.31,.52,.27,.07-.04-.44-.32-.52-.27Z"/><path class="cls-16" d="M1.36,5.23c-.2,.05,.82,.62,1.14,.79,.32,.18,.54,.36,.62,.34,.08-.02-.25-.3-.53-.47-.28-.17-1.1-.7-1.22-.67Z"/><path class="cls-10" d="M4.51,1.91c0,.06-.05,.1-.1,.1s-.1-.05-.1-.1,.05-.1,.1-.1,.1,.05,.1,.1Z"/><path class="cls-10" d="M2.97,3.2c0,.06-.05,.1-.1,.1s-.1-.05-.1-.1,.05-.1,.1-.1,.1,.05,.1,.1Z"/><circle class="cls-3" cx="4.11" cy="3.9" r=".1"/><path class="cls-3" d="M4.26,2.34c0,.06-.05,.1-.1,.1s-.1-.05-.1-.1,.04-.1,.1-.1,.1,.05,.1,.1Z"/><path class="cls-3" d="M2.16,4.59c0,.06-.05,.1-.1,.1s-.1-.05-.1-.1,.04-.1,.1-.1,.1,.05,.1,.1Z"/><path class="cls-3" d="M2.31,4.11s-.01,.03-.03,.03-.03-.01-.03-.03,.01-.03,.03-.03,.03,.01,.03,.03Z"/><path class="cls-3" d="M.98,4.69s-.01,.03-.03,.03-.03-.01-.03-.03,.01-.03,.03-.03,.03,.01,.03,.03Z"/><circle class="cls-3" cx="1.33" cy="5.41" r=".03"/><path class="cls-3" d="M1.25,4.44s-.04,.08-.08,.08-.08-.04-.08-.08,.04-.08,.08-.08,.08,.04,.08,.08Z"/><path class="cls-3" d="M4.45,4.19s-.03,.06-.06,.06-.06-.03-.06-.06,.03-.06,.06-.06,.06,.03,.06,.06Z"/><path class="cls-3" d="M4.22,4.1s-.03,.06-.06,.06-.06-.03-.06-.06,.03-.06,.06-.06,.06,.03,.06,.06Z"/><circle class="cls-3" cx="4.59" cy="1.75" r=".06"/><path class="cls-3" d="M3.96,1.23s-.03,.06-.06,.06-.06-.03-.06-.06,.03-.06,.06-.06,.06,.03,.06,.06Z"/><path class="cls-3" d="M4.46,.46s-.03,.06-.06,.06-.06-.03-.06-.06,.03-.06,.06-.06,.06,.03,.06,.06Z"/><path class="cls-3" d="M5.32,3.6s-.03,.06-.06,.06-.06-.03-.06-.06,.03-.06,.06-.06,.06,.03,.06,.06Z"/><path class="cls-10" d="M.64,4.52c-.02-.08,.04-.16,.12-.18,.08-.02,.16,.04,.18,.12,.02,.08-.04,.16-.12,.18-.08,.02-.16-.04-.18-.12Z"/><path class="cls-10" d="M5.64,3.62c0,.06-.04,.1-.1,.1s-.1-.05-.1-.1,.05-.1,.1-.1,.1,.05,.1,.1Z"/><path class="cls-10" d="M5.8,5.79c0,.06-.04,.1-.1,.1s-.1-.05-.1-.1,.05-.1,.1-.1,.1,.05,.1,.1Z"/><path class="cls-10" d="M4.01,6.62c0,.06-.05,.1-.1,.1s-.1-.05-.1-.1,.05-.1,.1-.1,.1,.05,.1,.1Z"/><path class="cls-10" d="M6.41,3.39c0,.05-.04,.1-.1,.1s-.1-.04-.1-.1,.04-.1,.1-.1,.1,.04,.1,.1Z"/><path class="cls-10" d="M5.98,5.41c0,.05-.04,.1-.1,.1s-.1-.04-.1-.1,.04-.1,.1-.1,.1,.04,.1,.1Z"/><path class="cls-10" d="M4.44,1.67s-.02,.04-.04,.04-.04-.02-.04-.04,.02-.04,.04-.04,.04,.02,.04,.04Z"/><path class="cls-10" d="M2.53,2.31s-.02,.04-.04,.04-.04-.02-.04-.04,.02-.04,.04-.04,.04,.02,.04,.04Z"/><path class="cls-10" d="M1.99,4s-.02,.04-.04,.04-.04-.02-.04-.04,.02-.04,.04-.04,.04,.02,.04,.04Z"/><circle class="cls-10" cx=".95" cy="4.86" r=".07"/><path class="cls-10" d="M2.72,5.38s-.03,.07-.07,.07-.07-.03-.07-.07,.03-.07,.07-.07,.07,.03,.07,.07Z"/><circle class="cls-10" cx="3.96" cy="5.38" r=".07"/><path class="cls-10" d="M5.88,3.6s-.02,.04-.04,.04-.04-.02-.04-.04,.02-.04,.04-.04,.04,.02,.04,.04Z"/><path class="cls-10" d="M3.39,4.22s-.02,.04-.04,.04-.04-.02-.04-.04,.02-.04,.04-.04,.04,.02,.04,.04Z"/><path class="cls-10" d="M5.11,.69s-.02,.04-.04,.04-.04-.02-.04-.04,.02-.04,.04-.04,.04,.02,.04,.04Z"/><path class="cls-10" d="M5.44,3.76s-.02,.04-.04,.04-.04-.02-.04-.04,.02-.04,.04-.04,.04,.02,.04,.04Z"/><path class="cls-10" d="M6.7,3.8s-.02,.04-.04,.04-.04-.02-.04-.04,.02-.04,.04-.04,.04,.02,.04,.04Z"/><path class="cls-10" d="M4.95,4.76s-.02,.04-.04,.04-.04-.02-.04-.04,.02-.04,.04-.04,.04,.02,.04,.04Z"/><path class="cls-10" d="M6.05,4.79s-.02,.04-.04,.04-.04-.02-.04-.04,.02-.04,.04-.04,.04,.02,.04,.04Z"/><path class="cls-10" d="M4.47,6.01s-.02,.04-.04,.04-.04-.02-.04-.04,.02-.04,.04-.04,.04,.02,.04,.04Z"/><path class="cls-10" d="M4.71,1.78s0,.02-.02,.02-.02,0-.02-.02,0-.02,.02-.02,.02,0,.02,.02Z"/><circle class="cls-10" cx="4.92" cy=".72" r=".02"/><path class="cls-10" d="M4.24,1.82s0,.02-.02,.02-.02,0-.02-.02,0-.02,.02-.02,.02,0,.02,.02Z"/><g class="cls-6"><path class="cls-9" d="M7.12,3.56s0,.06,0,.09c0,.03,0,.05,0,.08,0,.03,0,.06,0,.09,0,.01,0,.03,0,.04,0,.02,0,.04,0,.06,0,.02,0,.04,0,.06,0,.01,0,.03,0,.04,0,.01,0,.03,0,.04-.05,.32-.14,.63-.26,.92h0c-.03,.07-.06,.14-.1,.21-.02,.04-.04,.08-.07,.12-.02,.03-.04,.07-.06,.1-.08,.12-.16,.24-.25,.36-.05,.06-.09,.11-.14,.17-.12,.14-.26,.26-.4,.38-.13,.11-.27,.21-.42,.29-.18,.11-.37,.2-.56,.27-.04,.01-.08,.03-.11,.04-.04,.01-.08,.03-.12,.04-.02,0-.04,.01-.06,.02-.31,.09-.63,.13-.97,.13-.39,0-.77-.06-1.12-.18-.08-.02-.15-.05-.22-.08-.12-.05-.23-.1-.34-.16-.03-.02-.06-.03-.1-.05,0,0-.01,0-.02,0,0,0,0,0,0,0-.02,0-.03-.02-.05-.03-.04-.02-.08-.05-.12-.07,.02,.01,.05,.03,.07,.04,.06,.03,.11,.06,.17,.09,.06,.03,.12,.05,.17,.08,.07,.03,.15,.06,.22,.08,.35,.12,.73,.18,1.12,.18,.2,0,.39-.02,.58-.05,.13-.02,.26-.05,.39-.09,.06-.02,.12-.03,.18-.06,.04-.01,.08-.03,.11-.04,.07-.03,.14-.06,.21-.09h0c.23-.1,.44-.23,.64-.38h0c.13-.1,.26-.2,.37-.32h0c.06-.05,.11-.11,.16-.17,.09-.1,.17-.19,.24-.3,.08-.1,.14-.21,.21-.32,.02-.04,.05-.08,.07-.12,0,0,0,0,0,0,.15-.28,.26-.59,.32-.91,0-.02,0-.04,.01-.06,.01-.07,.02-.14,.03-.2,0,0,0-.02,0-.02,0-.04,0-.08,.01-.12,0-.07,.01-.14,.01-.22,0-.02,0-.04,0-.06,0-.01,0-.02,0-.03,0-.01,0-.03,0-.04,0-.03,0-.06,0-.09h0s0-.05,0-.08c0-.06,0-.12-.02-.18,0-.03,0-.07-.01-.1,0-.06-.02-.12-.03-.18,0,0,0-.02,0-.03,0-.01,0-.02,0-.03-.04-.19-.09-.37-.16-.55,0-.02-.02-.04-.02-.06-.02-.04-.03-.08-.05-.12-.02-.05-.04-.09-.07-.14-.03-.05-.05-.1-.08-.15-.02-.04-.04-.08-.07-.11-.02-.03-.03-.06-.05-.08,0,0,0,0,0,0,0-.01-.02-.03-.03-.04,0-.01-.02-.03-.03-.04-.01-.02-.03-.04-.04-.06,0,0-.01-.02-.02-.03,0,0,0-.01-.01-.02-.04-.06-.08-.11-.13-.16,0,0,0-.01-.01-.02h0c-.04-.06-.09-.11-.14-.16,0,0-.02-.02-.02-.03h0c-.06-.07-.13-.13-.2-.19-.01,0-.02-.02-.03-.03-.01-.01-.03-.03-.05-.04-.03-.02-.06-.05-.09-.07,0,0-.02-.01-.02-.02h0s-.03-.02-.04-.03c0,0,0,0,0,0-.02-.02-.05-.03-.07-.05,0,0,0,0,0,0-.02-.02-.05-.03-.07-.05,.13,.07,.25,.15,.36,.23,0,0,0,0,0,0,.01,.01,.03,.02,.04,.03h0s.02,.01,.02,.02c.03,.02,.06,.04,.09,.07,.02,.01,.03,.03,.05,.04,.01,0,.02,.02,.03,.03,.07,.06,.14,.12,.2,.19h0s.02,.02,.02,.03c.01,.01,.02,.02,.03,.03,.04,.04,.07,.08,.1,.12h0c.04,.05,.08,.1,.12,.15,0,.01,.02,.02,.03,.04,0,0,0,.01,.01,.02,0,0,.01,.02,.02,.03,.02,.03,.04,.05,.06,.08,0,0,0,.01,.01,.02,0,.01,.02,.03,.03,.04,0,0,0,0,0,0,.01,.02,.02,.04,.03,.06,.03,.05,.06,.1,.09,.14,.02,.04,.05,.08,.07,.13,.03,.05,.05,.11,.08,.16,.02,.04,.03,.08,.05,.12,.07,.17,.12,.34,.17,.52,0,.03,.01,.06,.02,.09v.03s.01,.02,.01,.04c.02,.09,.03,.18,.04,.27,0,.04,0,.07,.01,.11,0,.02,0,.05,0,.07,0,.03,0,.05,0,.08h0s0,.01,0,.02c0,.02,0,.05,0,.07,0,.01,0,.03,0,.04Z"/></g><path class="cls-5" d="M5.04,.32c-.07,.04-.16,.07-.29,.08-.39,.03-.6-.3-.95-.24-.34,.06-.43,.68-1.09,.58-.38-.06-.66-.21-.84-.32,.08-.05,.17-.09,.26-.13,0,0,0,0,0,0,0,0,0,0,.01,0,.43-.19,.91-.29,1.4-.29,.01,0,.03,0,.04,0,.51,0,1,.12,1.44,.32Z"/><g class="cls-13"><path class="cls-8" d="M4.58,.69c.3,.59-.31,1.52-1.37,2.06-1.06,.55-2.17,.51-2.48-.08s.31-1.52,1.37-2.06C3.17,.06,4.27,.09,4.58,.69Z"/></g><path class="cls-4" d="M3.41,.51c.07,.13-.27,.43-.76,.68s-.93,.35-.99,.22c-.07-.13,.27-.43,.76-.68,.48-.25,.93-.35,.99-.22Z"/><path class="cls-4" d="M1.52,1.58c.05,.09,.01,.2-.08,.24-.09,.05-.2,.01-.24-.08s-.01-.2,.08-.24c.09-.05,.2-.01,.24,.08Z"/></g></svg>