<?xml version="1.0" encoding="UTF-8"?><svg xmlns="http://www.w3.org/2000/svg" viewBox="0 0 107 107"><defs><style>.d{fill:#fff;}</style></defs><g id="a"/><g id="b"><g id="c"><path class="d" d="M104.22,1.41c-1.42-1.07-3.11-1.51-4.75-1.38-.18-.01-.36-.03-.54-.03H8.08c-.18,0-.36,.01-.55,.03-1.64-.13-3.33,.31-4.75,1.38C-.3,3.74-.92,8.13,1.41,11.22L35.44,56.32v43.68c0,3.87,3.13,7,7,7,.01,0,.03,0,.04,0,.02,0,.03,0,.05,0,.12,0,.24-.02,.36-.02,.1,0,.21,0,.31-.02,.99-.1,1.97-.39,2.89-.93l21.4-12.68c2.4-1.11,4.06-3.53,4.06-6.35v-30.68L105.59,11.22c2.33-3.09,1.71-7.48-1.37-9.8ZM58.97,49.76c-.22,.29-.4,.59-.57,.9h0c-.1,.2-.2,.39-.28,.59l-.02,.05c-.08,.19-.15,.38-.21,.57-.01,.04-.02,.07-.03,.11-.05,.18-.1,.36-.14,.53-.01,.06-.02,.11-.03,.17-.03,.16-.06,.33-.08,.49,0,.08-.02,.15-.02,.23-.01,.15-.02,.29-.02,.44,0,.05,0,.11,0,.16v28.97l-8.12,4.81V53.99c0-.06,0-.12,0-.18,0-.13,0-.26-.02-.4,0-.09-.02-.18-.03-.27-.02-.15-.04-.3-.07-.45-.01-.07-.03-.14-.04-.2-.04-.17-.08-.33-.13-.5-.01-.05-.03-.1-.04-.14-.06-.18-.12-.36-.19-.53-.01-.03-.02-.06-.04-.09-.08-.19-.17-.37-.27-.55l-.02-.04c-.16-.3-.34-.6-.56-.88L21.05,14H85.95l-26.98,35.76Z"/></g></g></svg>