<svg xmlns="http://www.w3.org/2000/svg" viewBox="0 0 49.52 16.32"><defs><style>.cls-1{fill:#fff;}</style></defs><g id="Layer_2" data-name="Layer 2"><g id="Logo"><path class="cls-1" d="M1.52,1.76V7.35H5.9V8.67H1.52V16H0V.37H6.23V1.76Z"/><path class="cls-1" d="M8.71,16V.37h1.54V16Z"/><path class="cls-1" d="M13.82,16V.37h6.26V1.74H15.31V7.19h4.47V8.51H15.31v6.05h5V16Z"/><path class="cls-1" d="M23,16V.37h1.54V14.52H29V16Z"/><path class="cls-1" d="M39.86,8.18a13.06,13.06,0,0,1-.39,3.37A7,7,0,0,1,38.32,14a5,5,0,0,1-1.79,1.48,5.36,5.36,0,0,1-2.32.49H30.87V.37h3.36a5.33,5.33,0,0,1,2.32.5,4.68,4.68,0,0,1,1.78,1.48,7.18,7.18,0,0,1,1.14,2.46A13.11,13.11,0,0,1,39.86,8.18Zm-1.52,0A11.71,11.71,0,0,0,38,5.3a6.51,6.51,0,0,0-.88-2,3.9,3.9,0,0,0-1.32-1.19,3.58,3.58,0,0,0-1.64-.4H32.38V14.63h1.81a3.46,3.46,0,0,0,1.64-.4A3.8,3.8,0,0,0,37.15,13,6.45,6.45,0,0,0,38,11,11.45,11.45,0,0,0,38.34,8.18Z"/><path class="cls-1" d="M49.52,12a5,5,0,0,1-.31,1.84,3.91,3.91,0,0,1-.84,1.36A3.81,3.81,0,0,1,47.1,16a4,4,0,0,1-1.54.29,4.7,4.7,0,0,1-3.81-1.84l1-1.08A3.45,3.45,0,0,0,44,14.52a3.41,3.41,0,0,0,1.56.4,2.36,2.36,0,0,0,1.77-.75A3,3,0,0,0,48,12a3,3,0,0,0-.22-1.16,3.08,3.08,0,0,0-.6-.9,4.51,4.51,0,0,0-.85-.71,10.48,10.48,0,0,0-1-.57A11.86,11.86,0,0,1,44.15,8a5.35,5.35,0,0,1-1-.89,4.38,4.38,0,0,1-.69-1.2,4.44,4.44,0,0,1-.26-1.62,4.9,4.9,0,0,1,.33-1.88,3.74,3.74,0,0,1,.89-1.34A3.68,3.68,0,0,1,44.68.26,4.31,4.31,0,0,1,46.16,0a4.84,4.84,0,0,1,1.9.36A3.4,3.4,0,0,1,49.48,1.5l-.95,1.07a2.6,2.6,0,0,0-1-.91,3.12,3.12,0,0,0-1.3-.27,2.61,2.61,0,0,0-.91.16,2.2,2.2,0,0,0-.81.52,2.67,2.67,0,0,0-.57.9,3.44,3.44,0,0,0-.22,1.3,3,3,0,0,0,.2,1.14,2.84,2.84,0,0,0,.54.86,3.9,3.9,0,0,0,.79.66,9.51,9.51,0,0,0,.94.53,12.68,12.68,0,0,1,1.22.7,6,6,0,0,1,1.09.93,4.27,4.27,0,0,1,.77,1.23A4.39,4.39,0,0,1,49.52,12Z"/></g></g></svg>