<svg xmlns="http://www.w3.org/2000/svg" viewBox="0 0 53.73 106.99"><g id="Layer_2" data-name="Layer 2"><g id="Sort_-_False" data-name="Sort - False"><path d="M52.27,28.47,32.41,2.72l-.1-.12L32,2.29l-.23-.24-.24-.23a2.69,2.69,0,0,0-.32-.27l-.11-.1L31,1.38l-.36-.25L30.45,1,30.1.79,29.82.65,29.5.52,29.17.39A2.46,2.46,0,0,0,28.88.3L28.52.19,28.23.13,27.86.07l-.31,0L27.2,0h-.66l-.39,0a2.06,2.06,0,0,0-.26,0l-.42.07-.24,0L24.82.3l-.25.08L24.2.52l-.28.13L23.61.8,23.29,1,23,1.14a4,4,0,0,0-.34.23l-.11.08-.12.11-.31.25-.24.24-.23.24-.27.31-.1.12L1.46,28.47A7,7,0,1,0,12.54,37l7.32-9.49V100a7,7,0,0,0,14,0V27.53L41.18,37a7,7,0,1,0,11.09-8.55Z"/></g></g></svg>