<svg xmlns="http://www.w3.org/2000/svg" viewBox="0 0 107 107"><defs><style>.cls-1{fill:#fff;}</style></defs><g id="Layer_2" data-name="Layer 2"><g id="Sort_-_True" data-name="Sort - True"><path class="cls-1" d="M52.27,28.48,32.41,2.72l-.1-.11L32,2.3a1.75,1.75,0,0,0-.23-.24l-.24-.24-.31-.26-.12-.1L31,1.38l-.35-.24L30.44,1,30.1.8,29.82.66,29.5.52c-.11,0-.22-.09-.33-.12L28.88.3,28.52.2,28.23.14,27.86.08l-.31,0L27.2,0h-.66l-.39,0-.27,0-.41.08L25.22.2l-.39.11-.26.08-.36.14-.29.12-.3.15L23.29,1,23,1.14l-.35.24-.1.08-.12.1a3.88,3.88,0,0,0-.31.26l-.24.24a1.75,1.75,0,0,0-.23.24,4,4,0,0,0-.27.31l-.1.11L1.46,28.48A7,7,0,0,0,12.54,37l7.32-9.49V100a7,7,0,0,0,14,0V27.54L41.18,37a7,7,0,1,0,11.09-8.55Z"/><path class="cls-1" d="M104.28,68.7A7,7,0,0,0,94.46,70l-7.32,9.49V7a7,7,0,0,0-14,0V79.46L65.82,70a7,7,0,1,0-11.09,8.55l19.86,25.76.09.09c.11.14.23.28.35.41l.19.2.34.31c.09.07.17.15.26.21l0,0,.09.06a7.56,7.56,0,0,0,.79.51l.21.11a6.74,6.74,0,0,0,.92.4l.19.06a7.16,7.16,0,0,0,.8.19l.29,0a6.22,6.22,0,0,0,1,.08h0a6.12,6.12,0,0,0,1-.08l.3,0a7,7,0,0,0,.79-.19l.19-.06a6.36,6.36,0,0,0,.93-.4l.21-.11a6.52,6.52,0,0,0,.78-.51l.09-.06,0,0,.25-.21.34-.31.19-.2a4.47,4.47,0,0,0,.35-.41l.09-.09,19.86-25.76A7,7,0,0,0,104.28,68.7Z"/></g></g></svg>