<?xml version="1.0" encoding="UTF-8"?><svg id="Layer_2" xmlns="http://www.w3.org/2000/svg" viewBox="0 0 83.26 92"><defs><style>.cls-1{fill:#fff;}</style></defs><g id="Generate_Data"><path class="cls-1" d="M47,92H3.5c-1.93,0-3.5-1.57-3.5-3.5V3.5C0,1.57,1.57,0,3.5,0h61.51c1.93,0,3.5,1.57,3.5,3.5V51c0,1.93-1.57,3.5-3.5,3.5s-3.5-1.57-3.5-3.5V7H7V85H47c1.93,0,3.5,1.57,3.5,3.5s-1.57,3.5-3.5,3.5Z"/><path class="cls-1" d="M52.71,22.1H15.8c-1.93,0-3.5-1.57-3.5-3.5s1.57-3.5,3.5-3.5H52.71c1.93,0,3.5,1.57,3.5,3.5s-1.57,3.5-3.5,3.5Z"/><path class="cls-1" d="M52.71,35.8H15.8c-1.93,0-3.5-1.57-3.5-3.5s1.57-3.5,3.5-3.5H52.71c1.93,0,3.5,1.57,3.5,3.5s-1.57,3.5-3.5,3.5Z"/><path class="cls-1" d="M52.71,49.5H15.8c-1.93,0-3.5-1.57-3.5-3.5s1.57-3.5,3.5-3.5H52.71c1.93,0,3.5,1.57,3.5,3.5s-1.57,3.5-3.5,3.5Z"/><path class="cls-1" d="M49,63.2H15.8c-1.93,0-3.5-1.57-3.5-3.5s1.57-3.5,3.5-3.5H49c1.93,0,3.5,1.57,3.5,3.5s-1.57,3.5-3.5,3.5Z"/><path class="cls-1" d="M43,76.9H15.8c-1.93,0-3.5-1.57-3.5-3.5s1.57-3.5,3.5-3.5h27.2c1.93,0,3.5,1.57,3.5,3.5s-1.57,3.5-3.5,3.5Z"/><g><path class="cls-1" d="M68.71,70.98c-.51-.2-1.05-.3-1.59-.3-1.82,0-3.49,1.14-4.14,2.85-.42,1.11-.39,2.31,.09,3.39,.48,1.08,1.36,1.91,2.46,2.34,.51,.2,1.05,.3,1.59,.3,1.82,0,3.49-1.14,4.14-2.85,.42-1.11,.39-2.31-.09-3.39-.48-1.08-1.36-1.91-2.46-2.34Z"/><path class="cls-1" d="M78.81,76.53c.14-1.15,.11-2.31-.09-3.42l4.34-2.26-2.1-4.71-4.58,1.72c-.7-.89-1.53-1.69-2.48-2.36l1.47-4.67-4.81-1.85-2.03,4.46c-1.16-.14-2.31-.11-3.42,.09l-2.26-4.34-4.71,2.1,1.72,4.58c-.89,.7-1.69,1.53-2.36,2.48l-4.67-1.47-1.85,4.81,4.46,2.03c-.14,1.15-.11,2.31,.09,3.42l-4.34,2.26,2.1,4.71,4.58-1.72c.7,.89,1.53,1.69,2.48,2.36l-1.47,4.67,4.81,1.85,2.03-4.46c1.16,.14,2.31,.11,3.42-.09l2.26,4.34,4.71-2.1-1.72-4.58c.89-.7,1.69-1.53,2.36-2.48l4.67,1.47,1.85-4.81-4.46-2.03Zm-3.81,1.62c-1.29,3.36-4.49,5.42-7.88,5.42-1.01,0-2.03-.18-3.02-.56-4.35-1.67-6.52-6.55-4.85-10.9,1.29-3.36,4.49-5.42,7.88-5.42,1.01,0,2.03,.18,3.02,.56,4.35,1.67,6.52,6.55,4.85,10.9Z"/></g></g></svg>