<?xml version="1.0" encoding="UTF-8"?><svg xmlns="http://www.w3.org/2000/svg" viewBox="0 0 76.2 87.71"><defs><style>.d{fill:#fff;stroke:#fff;stroke-miterlimit:10;stroke-width:5px;}</style></defs><g id="a"/><g id="b"><g id="c"><path class="d" d="M73.7,76.1c0,6.4-3.1,9.1-9.3,9.1H11.8c-6.2,0-9.3-2.7-9.3-9.1V11.7C2.5,5.2,5.6,2.5,11.8,2.5h52.6c6.2,0,9.3,2.7,9.3,9.2V76.1Zm-8-37.4V13.1c0-2.3-1.2-3-3.4-3H13.9c-2.2,0-3.4,.7-3.4,3v25.6h55.2ZM10.5,74.6c0,2.3,1.2,3,3.4,3H62.3c2.2,0,3.4-.7,3.4-3v-28.4H10.5v28.4Z"/></g></g></svg>