<?xml version="1.0" encoding="UTF-8"?><svg xmlns="http://www.w3.org/2000/svg" viewBox="0 0 82.2 92.61"><defs><style>.d{fill:#fff;stroke:#fff;stroke-miterlimit:10;stroke-width:5px;}</style></defs><g id="a"/><g id="b"><g id="c"><path class="d" d="M23.1,57.7c-1.8,12.6-5.6,22.6-12.8,30.9-.9,1-2.1,1.5-3.3,1.5-1,0-2-.3-2.9-1-1.1-.8-1.6-2-1.6-3.1,0-.9,.4-1.9,1.1-2.7,11-12,13.2-27.8,13.2-55.9V11.1c0-6.1,3-8.6,9-8.6h45c5.9,0,8.9,2.5,8.9,8.6V79.91c0,6.5-2.7,9.4-12.9,9.4-3.9,0-7.7-.4-10.9-1.1-1.9-.4-3.1-1.6-3.1-3.6,0-.3,0-.7,.1-1.1,.5-2.1,1.8-3,3.2-3,.3,0,.6,0,.9,.1,2.6,.7,5.7,1.1,8.8,1.1,5.2,0,6.1-.8,6.1-4v-20H23.1Zm1.6-24.4c-.1,5.6-.1,11.3-.7,16.9h47.9v-16.9H24.7ZM71.9,12.6c0-2-1-2.6-3.1-2.6H27.9c-2,0-3.2,.6-3.2,2.6v13.2h47.2V12.6Z"/></g></g></svg>