<?xml version="1.0" encoding="UTF-8"?><svg xmlns="http://www.w3.org/2000/svg" viewBox="0 0 95.3 95.5"><defs><style>.d{fill:#00b8a9;stroke:#00b8a9;stroke-miterlimit:10;stroke-width:5px;}</style></defs><g id="a"/><g id="b"><g id="c"><path class="d" d="M8.8,92.5c-.8,.3-1.5,.5-2.3,.5-1.4,0-2.8-.7-3.5-2.4-.3-.7-.5-1.4-.5-2.1,0-1.5,.8-3,2.6-3.7,12.6-5.1,23.1-14,30.1-26.7,7.2-13.2,8.3-24.2,8.3-52.3,0-2.2,1.7-3.3,4.1-3.3s4.1,1.1,4.1,3.3c0,27.8,.3,36.9,7.9,51.3,7,13.3,16.9,21.6,31.1,27.7,1.4,.6,2.1,1.8,2.1,3.2,0,.9-.2,1.7-.7,2.6-.8,1.4-1.8,2.2-3.4,2.2-.9,0-2-.3-3.4-.9-21.1-9.5-33.9-27.1-37.7-47.6-3.5,21.4-16.7,38.2-38.8,48.2ZM26.8,22.6c0,.5-.1,1.1-.3,1.8-2.4,8.4-6.3,18.3-11.1,25.3-1.1,1.5-2.6,2.5-4.2,2.5-.7,0-1.4-.2-2.1-.6-1.3-.8-2.1-2-2.1-3.4,0-1,.4-2,1.2-3.1,4.1-5.9,8.2-15.1,10.1-22.9,.4-2.1,1.7-3.2,3.7-3.2,.6,0,1.2,.1,1.9,.3,1.9,.6,2.9,1.6,2.9,3.3Zm60.8,.4c0,.4-.1,.9-.3,1.3-3.6,8-8.9,16.9-14.4,23.3-1.1,1.3-2.2,1.9-3.4,1.9-.9,0-1.8-.4-2.6-1-1.2-.9-1.9-2.1-1.9-3.4,0-.8,.3-1.5,.9-2.2,5.3-6.1,10.2-14.8,13.3-21.9,.6-1.4,1.8-2.1,3.2-2.1,.7,0,1.5,.2,2.3,.5,1.8,.8,2.9,2.1,2.9,3.6Z"/></g></g></svg>