<?xml version="1.0" encoding="UTF-8"?><svg xmlns="http://www.w3.org/2000/svg" viewBox="0 0 97.61 95.61"><defs><style>.d{fill:#00b8a9;stroke:#00b8a9;stroke-miterlimit:10;stroke-width:5px;}</style></defs><g id="a"/><g id="b"><g id="c"><path class="d" d="M7.7,34.5c-1.9,0-3.1-1.5-3.1-3.8s1.2-3.8,3.1-3.8h24.9c4.8,0,7.1,2.1,7.1,6.4,0,1.3-.2,2.8-.6,4.6-2,7.6-5.7,16-10.4,23.1-5.4,8.2-12.3,15.1-19.2,20.1-1,.7-2,1.1-2.9,1.1-1.3,0-2.4-.6-3.2-1.8-.6-.8-.9-1.6-.9-2.5,0-1.2,.6-2.5,2-3.4,6.5-4.6,12.6-10.7,16.6-16.4,5-7.1,8.6-14.6,10.4-21.3,.2-.6,.3-1,.3-1.4,0-.7-.4-.9-1.6-.9H7.7Zm45.3-13.9c1.5,7,4.6,14.4,8.2,20.9,7.6-5.8,14.8-13.5,19.7-20.7,.7-1.1,1.8-1.6,3-1.6,.8,0,1.7,.3,2.6,.9,1.2,.8,1.8,2.1,1.8,3.5,0,.8-.3,1.7-.8,2.5-6,7.9-14,15.7-22.4,21.8,1.5,2.2,3,4.3,4.5,6.1,6,7.3,14.2,14.9,23.4,20.2,1.4,.8,2.1,2.2,2.1,3.6,0,.9-.2,1.7-.7,2.5-.7,1.3-2.3,2.3-3.9,2.3-.8,0-1.5-.2-2.3-.7-8.4-5.1-16.9-13-23.2-21.1-5.5-7.1-11.2-18.1-13.9-27.5,1,8.3,1.9,15.8,1.9,22.7v27.2c0,7.2-4.2,9.9-11.7,9.9-3.9,0-7.6-.4-10.4-1-2-.4-3-1.7-3-3.5,0-.4,0-.7,.1-1.1,.3-2,1.6-3.2,3.2-3.2,.2,0,.5,0,.8,.1,2.3,.6,5.4,1,8.2,1,3.6,0,4.8-.9,4.8-4.5V5.5c0-1.9,1.6-3,4-3s4,1.1,4,3v15.1Z"/></g></g></svg>