<?xml version="1.0" encoding="UTF-8"?><svg xmlns="http://www.w3.org/2000/svg" viewBox="0 0 97.01 97.61"><defs><style>.d{fill:#00b8a9;stroke:#00b8a9;stroke-miterlimit:10;stroke-width:5px;}</style></defs><g id="a"/><g id="b"><g id="c"><path class="d" d="M7.1,30.2c-1.9,0-2.9-1.7-2.9-3.7,0-2.1,1-3.7,2.9-3.7H43.9V5.4c0-1.9,1.6-2.9,3.9-2.9s3.9,1,3.9,2.9V22.8h38.1c1.9,0,2.9,1.6,2.9,3.6,0,2.1-1,3.8-2.9,3.8H54c9.4,18,23.4,31.7,38.5,40.8,1.3,.8,2,2.1,2,3.5,0,.8-.3,1.8-.8,2.6-.9,1.5-2,2.1-3.4,2.1-.8,0-1.8-.3-2.7-.9-13.1-8.5-26.7-21.1-36.7-42.1,.7,5.1,.8,9.3,.8,14.2v41.8c0,1.9-1.5,2.9-3.9,2.9s-3.9-1-3.9-2.9V50.1c0-3.7,0-8.5,.8-13.7-8.1,18.1-21.7,33.3-35.2,42.6-.9,.6-1.9,.9-2.8,.9-1.2,0-2.3-.5-3.2-1.7-.7-.9-1-1.9-1-2.9,0-1.3,.6-2.6,2-3.4,12-7.8,28.1-23,37-41.7H7.1Z"/></g></g></svg>