<?xml version="1.0" encoding="UTF-8"?><svg xmlns="http://www.w3.org/2000/svg" viewBox="0 0 99.61 93.5"><defs><style>.d{fill:#fff;stroke:#fff;stroke-miterlimit:10;stroke-width:5px;}</style></defs><g id="a"/><g id="b"><g id="c"><path class="d" d="M94.5,32.7c1.8,.7,2.6,2.3,2.6,3.9,0,.7-.1,1.3-.4,1.8-.6,1.5-1.9,2.5-3.6,2.5-.6,0-1.3-.1-2-.5-15.3-6.7-30.9-17.8-40.4-28.8-.5-.6-1-.9-1.4-.9-.5,0-.9,.3-1.5,.9-9.8,11.9-24.9,22.4-39.6,28.8-.6,.4-1.3,.5-1.9,.5-1.6,0-2.9-.9-3.5-2.5-.2-.6-.3-1.2-.3-1.7,0-1.6,.8-2.9,2.6-3.7,14.5-5.8,28.1-15.8,38.3-27.9,1.5-1.8,3.7-2.6,5.9-2.6s4.3,.8,5.8,2.5c10,11.9,24.4,21.4,39.4,27.7Zm-64,5.4c-1.8,0-2.9-1.3-2.9-3.3,0-2.1,1.1-3.5,2.9-3.5h38.1c1.8,0,3,1.4,3,3.5s-1.2,3.3-3,3.3h-15.9v12.8h35.7c1.8,0,2.9,1.4,2.9,3.5s-1.1,3.5-2.9,3.5H52.7v26h38.6c1.9,0,2.9,1.5,2.9,3.5,0,2.1-1,3.6-2.9,3.6H8.1c-1.9,0-2.9-1.5-2.9-3.6s1-3.5,2.9-3.5H45.1v-26H11c-1.8,0-2.9-1.5-2.9-3.5,0-2.1,1.1-3.5,2.9-3.5H45.1v-12.8h-14.6Zm-7,22.8c1.3,0,2.5,.6,3.2,1.7,2.8,4.5,5.1,9.1,6.5,12.9,.3,.7,.4,1.3,.4,1.9,0,1.6-1,2.7-2.4,3.2-.5,.2-1,.3-1.6,.3-1.5,0-2.9-.8-3.5-2.4-1.3-3.6-3.7-8.5-6.1-12.4-.4-.6-.6-1.2-.6-1.8,0-1.3,.9-2.3,2-2.9,.7-.3,1.4-.5,2.1-.5Zm55.9,3.2c0,.6-.1,1.2-.4,1.8-2.2,5.1-4.9,10.3-7.6,13.8-1,1.3-2.2,1.9-3.4,1.9-.7,0-1.4-.2-2.1-.6-1.1-.7-1.6-1.7-1.6-2.7,0-.8,.3-1.6,.7-2.2,2.6-3.6,5.4-8.6,7.2-13.2,.7-1.5,1.7-2.2,3-2.2,.6,0,1.3,.1,1.9,.4,1.4,.5,2.3,1.6,2.3,3Z"/></g></g></svg>