<?xml version="1.0" encoding="UTF-8"?><svg xmlns="http://www.w3.org/2000/svg" viewBox="0 0 96.41 91.41"><defs><style>.d{fill:#00b8a9;stroke:#00b8a9;stroke-miterlimit:10;stroke-width:5px;}</style></defs><g id="a"/><g id="b"><g id="c"><path class="d" d="M14.1,41.1c-1.9,0-3-1.6-3-3.8s1.1-3.9,3-3.9h29.1V5.8c0-2,1.6-3.3,4.1-3.3s4.2,1.3,4.2,3.3v27.6h31.3c1.9,0,3.1,1.7,3.1,3.9s-1.2,3.8-3.1,3.8h-31.3v40h39.4c1.9,0,3,1.7,3,3.9s-1.1,3.9-3,3.9H5.6c-2,0-3.1-1.7-3.1-3.9s1.1-3.9,3.1-3.9H43.2V41.1H14.1Z"/></g></g></svg>